<?xml version="1.0" encoding="UTF-8"?>
<svg width="48px" height="48px" viewBox="0 0 48 48" version="1.1" xmlns="http://www.w3.org/2000/svg" xmlns:xlink="http://www.w3.org/1999/xlink">
    <!-- Generator: Sketch 54.1 (76490) - https://sketchapp.com -->
    <title>Icon-bicolor/Navegacion/48px/Notificación/white@2x</title>
    <desc>Created with Sketch.</desc>
    <g id="Icon-bicolor/Navegacion/48px/Notificación/white" stroke="none" stroke-width="1" fill="none" fill-rule="evenodd">
        <g id="Group" transform="translate(4.000000, 0.000000)">
            <path d="M20.3827965,43.1935884 C19.5752905,44.5887792 18.065703,45.5286265 16.3407805,45.5286265 C14.615858,45.5286265 13.1062705,44.5887792 12.2987645,43.1935884 L16.3407805,43.1935884 L20.3827965,43.1935884 M23.3436517,40.8585503 L16.3407805,40.8585503 L9.33566622,40.8585503 C9.33566622,44.7256066 12.4714811,47.8614215 16.3407805,47.8614215 C20.2078368,47.8614215 23.3436517,44.7256066 23.3436517,40.8585503" id="Shape" fill="#FFFFFF" fill-rule="nonzero"></path>
            <path d="M25.6786898,8.17698931 C29.54126,8.17698931 32.681561,11.3195334 32.681561,15.1798605 C32.681561,17.6741567 31.3716069,19.9262011 29.1711531,21.2047523 L28.0114848,21.879917 L28.0114848,23.2235172 L28.0114848,31.520641 C28.0114848,34.5128992 28.8077754,37.3840316 29.5188293,39.3512058 C25.6585021,40.3291853 21.0803919,40.8585503 16.3407805,40.8585503 C11.6146275,40.8585503 7.04548957,40.3314283 3.19413472,39.357935 C3.89845937,37.4333791 4.66783311,34.6250528 4.66783311,31.520641 L4.66783311,22.1827317 C4.66783311,15.7473578 9.90316347,10.5097843 16.3385374,10.5097843 C17.1370711,10.5097843 17.9400909,10.592778 18.7274092,10.7565223 L19.934182,11.0077463 L20.8224386,10.1508928 C22.1436081,8.87682782 23.8662875,8.17698931 25.6786898,8.17698931 M25.6786898,5.84195122 C23.1597198,5.84195122 20.8830016,6.84909061 19.2029405,8.47083176 C18.2787948,8.27792756 17.321003,8.17698931 16.3407805,8.17698931 C8.6044247,8.17698931 2.33503809,14.448619 2.33503809,22.1827317 L2.33503809,31.520641 C2.33503809,36.6011994 1.38555833e-13,40.8585503 1.38555833e-13,40.8585503 C4.66783311,42.4152423 10.5043068,43.1935884 16.3407805,43.1935884 C22.1772542,43.1935884 28.0114848,42.4174854 32.681561,40.8585503 C32.681561,40.8585503 30.348766,36.3073569 30.348766,31.520641 L30.348766,23.2235172 C33.1279323,21.6040191 35.0188421,18.6274624 35.0188421,15.1798605 C35.0165991,10.0230377 30.8355126,5.84195122 25.6786898,5.84195122" id="Shape" fill="#FFFFFF" fill-rule="nonzero"></path>
            <path d="M26.9089208,0 C34.0212869,0 39.7869696,5.76570849 39.7869696,12.8780488 C39.7869696,19.9904148 34.0212869,25.7560718 26.9089208,25.7560718 C19.7965548,25.7560718 14.030872,19.9904148 14.030872,12.8780488 C14.030872,5.76570849 19.7965548,0 26.9089208,0 Z" id="Notification-bg" fill="#E8200C"></path>
            <path d="M30.3420915,12.8839024 C30.5762391,13.4458565 30.6933111,14.0897525 30.6933111,14.8156098 C30.6933111,15.3658564 30.5879463,15.9453628 30.3772135,16.5541463 C30.1079439,17.291711 29.6630703,17.862437 29.0425793,18.2663415 C28.4220884,18.6702459 27.6728276,18.8721951 26.7947745,18.8721951 C25.9284287,18.8721951 25.1762411,18.6526851 24.5381891,18.2136585 C23.9001371,17.774632 23.4464831,17.1804916 23.1772135,16.4312195 C23.0601397,16.0448761 22.9781893,15.5941489 22.9313598,15.0790244 C22.9313598,14.8917064 23.0250174,14.7980488 23.2123354,14.7980488 L24.7050184,14.7980488 C24.8923364,14.7980488 24.9918476,14.8917064 25.003555,15.0790244 C25.0269697,15.3834162 25.0737985,15.6585354 25.1440428,15.9043902 C25.2611165,16.2790263 25.4630657,16.5746331 25.7498964,16.7912195 C26.0367271,17.007806 26.3850163,17.1160976 26.7947745,17.1160976 C27.5791686,17.1160976 28.1059926,16.7648816 28.3752623,16.062439 C28.5508729,15.687803 28.6386769,15.2546366 28.6386769,14.7629268 C28.6386769,14.1892654 28.5391657,13.6917094 28.3401403,13.2702439 C28.0591633,12.6146309 27.5381929,12.2868293 26.7772135,12.2868293 C26.5781881,12.2868293 26.3440441,12.3629261 26.0747745,12.515122 C26.0045302,12.5502441 25.9459942,12.5678049 25.8991647,12.5678049 C25.8289205,12.5678049 25.7586773,12.5268297 25.688433,12.444878 L24.950872,11.5141463 C24.9040425,11.4556095 24.8806281,11.3912199 24.8806281,11.3209756 C24.8806281,11.2507314 24.9157497,11.1804882 24.985994,11.1102439 L27.8133111,8.31804878 C27.8484332,8.28292665 27.8601404,8.25365865 27.848433,8.2302439 C27.8367256,8.20682915 27.8074576,8.19512195 27.7606281,8.19512195 L23.4055062,8.19512195 C23.2181882,8.19512195 23.1245306,8.10146435 23.1245306,7.91414634 L23.1245306,6.72 C23.1245306,6.53268199 23.2181882,6.43902439 23.4055062,6.43902439 L30.2718476,6.43902439 C30.4591656,6.43902439 30.5528232,6.53268199 30.5528232,6.72 L30.5528232,8.03707317 C30.5528232,8.15414693 30.5059944,8.27121893 30.4123354,8.38829268 L27.9011159,10.9346341 C27.8894086,10.9463415 27.883555,10.9639023 27.883555,10.9873171 C27.883555,11.0224392 27.9186766,11.0517072 27.9889208,11.075122 C29.1011215,11.2390252 29.8855039,11.841946 30.3420915,12.8839024 Z" id="3" fill="#FFFFFF"></path>
        </g>
    </g>
</svg>