<?xml version="1.0" encoding="UTF-8"?>
<svg width="36px" height="36px" viewBox="0 0 48 48" version="1.1" xmlns="http://www.w3.org/2000/svg" xmlns:xlink="http://www.w3.org/1999/xlink">
    <!-- Generator: Sketch 54.1 (76490) - https://sketchapp.com -->
    <title>Icon/Beneficios/48px/Auto-SUV/blue@2x</title>
    <desc>Created with Sketch.</desc>
    <defs>
        <path d="M4.35121674,30.603096 L3.3,30.603096 L3.02108403,30.5687599 C2.6550694,30.4772562 2.1761439,30.2777039 1.69,29.913096 C0.841967863,29.2770719 0.31,28.3461281 0.31,27.153096 L0.31,23.550376 C0.31,21.6953352 2.82433013,19.6594462 5.00633807,18.9321102 C5.3721072,18.8101872 5.88016814,18.6764869 6.52016157,18.5287961 C6.83317116,18.4565631 7.17486737,18.3817154 7.54093705,18.30481 C8.18053102,18.1704415 8.86392427,18.03606 9.54705592,17.9078532 C9.83335617,17.8541218 10.0754864,17.8096779 10.2581712,17.7766971 C10.3241304,17.7388603 10.4026696,17.6941579 10.4932506,17.6430694 C10.8233838,17.4568712 11.2006027,17.2499039 11.619132,17.0273348 C12.8131853,16.3923506 14.1022183,15.7576219 15.4407316,15.1644232 C17.1687295,14.3986138 18.8526839,13.758861 20.4500314,13.2867451 C22.0439037,12.8156563 23.5155124,12.522455 24.8452353,12.4355289 C33.0118369,11.90347 41.3756608,12.7301806 44.9298675,15.70914 C47.3823762,17.7642981 48.167783,22.8421545 47.3125085,27.527033 C47.0042796,29.215687 45.5547827,30.2566594 43.6650925,30.5304676 C43.1713932,32.8077192 41.1449545,34.513096 38.72,34.513096 C36.3208949,34.513096 34.3118547,32.8438831 33.7912167,30.603096 L14.2087833,30.603096 C13.6881453,32.8438831 11.6791051,34.513096 9.28,34.513096 C6.88089491,34.513096 4.87185467,32.8438831 4.35121674,30.603096 Z M4.35127782,28.303096 C4.87204223,26.0626834 6.88120373,24.393096 9.28,24.393096 C11.6787963,24.393096 13.6879578,26.0626834 14.2087222,28.303096 L33.7912778,28.303096 C34.3120422,26.0626834 36.3212037,24.393096 38.72,24.393096 C41.0831471,24.393096 43.0681543,26.0134278 43.6245219,28.2035917 C44.4451875,28.0239177 44.9581121,27.6168588 45.0498977,27.1140047 C45.7718383,23.1594805 45.1065075,18.8579461 43.4525254,17.471939 C40.540272,15.031033 32.5328619,14.2395517 24.9950172,14.7306466 C23.8537055,14.805256 22.5440448,15.066191 21.1019464,15.4924211 C19.6091414,15.9336382 18.0156944,16.5390063 16.3726245,17.2671775 C15.0878833,17.8365457 13.847286,18.4474243 12.6990422,19.0580475 C12.2977674,19.2714409 11.9371564,19.469296 11.6231473,19.6463999 C11.4368013,19.7515008 11.3087826,19.8254979 11.2450017,19.8631834 L11.0653481,19.9693333 L10.8598531,20.0055971 C10.6835404,20.0367111 10.3722596,20.0931378 9.97130186,20.1683875 C9.30320184,20.2937732 8.63536343,20.4250961 8.01380785,20.555675 C7.66171426,20.6296442 7.33453292,20.7013125 7.03733843,20.7698959 C6.46264436,20.9025176 6.0147678,21.0203798 5.73366193,21.1140818 C4.39724923,21.5595527 2.61,23.0067139 2.61,23.550376 L2.61,27.153096 C2.61,27.5700639 2.76803214,27.8466201 3.07,28.073096 C3.2174289,28.1836677 3.36863316,28.2602722 3.4765937,28.303096 L4.35127782,28.303096 Z M41.48,29.453096 C41.48,27.9289835 40.2441125,26.693096 38.72,26.693096 C37.1958875,26.693096 35.96,27.9289835 35.96,29.453096 C35.96,30.977769 37.1955278,32.213096 38.72,32.213096 C40.2444722,32.213096 41.48,30.977769 41.48,29.453096 Z M12.04,29.453096 C12.04,27.9289835 10.8041125,26.693096 9.28,26.693096 C7.75588746,26.693096 6.52,27.9289835 6.52,29.453096 C6.52,30.977769 7.75552784,32.213096 9.28,32.213096 C10.8044722,32.213096 12.04,30.977769 12.04,29.453096 Z" id="path-1"></path>
    </defs>
    <g id="Icon/Beneficios/48px/Auto-SUV/blue" stroke="none" stroke-width="1" fill="none" fill-rule="evenodd">
        <mask id="mask-2" fill="white">
            <use xlink:href="#path-1"></use>
        </mask>
        <g id="Combined-Shape" fill-rule="nonzero"></g>
        <rect id="🎨-color" fill="#002EFF" mask="url(#mask-2)" x="0" y="0" width="48" height="48"></rect>
    </g>
</svg>
