<?xml version="1.0" encoding="UTF-8"?>
<svg width="36px" height="36px" viewBox="0 0 48 48" version="1.1" xmlns="http://www.w3.org/2000/svg" xmlns:xlink="http://www.w3.org/1999/xlink">
    <!-- Generator: Sketch 54.1 (76490) - https://sketchapp.com -->
    <title>Icon-bicolor/Beneficios/48px/Auto-SUV/green-blue@2x</title>
    <desc>Created with Sketch.</desc>
    <g id="Icon-bicolor/Beneficios/48px/Auto-SUV/green-blue" stroke="none" stroke-width="1" fill="none" fill-rule="evenodd">
        <g id="Group-9" transform="translate(1.000000, 13.000000)" fill-rule="nonzero">
            <path d="M9.49325057,4.64306938 C9.82338381,4.45687122 10.2006027,4.24990394 10.619132,4.02733478 C11.8131853,3.39235064 13.1022183,2.75762194 14.4407316,2.16442324 C16.1687295,1.39861382 17.8526839,0.75886097 19.4500314,0.286745061 C21.0439037,-0.184343664 22.5155124,-0.477545048 23.8452353,-0.564471098 C32.0118369,-1.09652996 40.3756608,-0.269819401 43.9298675,2.70913998 C46.3823762,4.76429806 47.167783,9.84215453 46.3125085,14.527033 C45.9500186,16.5129602 44.0090708,17.603096 41.63,17.603096 L41.63,15.303096 C43.0239559,15.303096 43.9252527,14.7968815 44.0498977,14.1140047 C44.7718383,10.1594805 44.1065075,5.85794615 42.4525254,4.47193897 C39.540272,2.03103301 31.5328619,1.23955166 23.9950172,1.73064662 C22.8537055,1.80525595 21.5440448,2.06619104 20.1019464,2.49242113 C18.6091414,2.93363818 17.0156944,3.53900629 15.3726245,4.26717753 C14.0878833,4.83654566 12.847286,5.44742429 11.6990422,6.05804746 C11.2977674,6.27144087 10.9371564,6.46929597 10.6231473,6.64639993 C10.4368013,6.75150083 10.3087826,6.82549788 10.2450017,6.86318337 L10.0653481,6.96933328 L9.85985313,7.00559709 C9.68354044,7.0367111 9.37225958,7.09313776 8.97130186,7.16838753 C8.30320184,7.29377325 7.63536343,7.42509609 7.01380785,7.555675 C6.66171426,7.62964424 6.33453292,7.70131253 6.03733843,7.76989588 C5.46264436,7.90251759 5.0147678,8.02037984 4.73366193,8.11408179 C3.39724923,8.55955269 1.61,10.0067139 1.61,10.550376 L1.61,14.153096 C1.61,14.5700639 1.76803214,14.8466201 2.07,15.073096 C2.2174289,15.1836677 2.36863316,15.2602722 2.4765937,15.303096 L4.37,15.303096 L4.37,17.603096 L2.3,17.603096 L2.02108403,17.5687599 C1.6550694,17.4772562 1.1761439,17.2777039 0.69,16.913096 C-0.158032137,16.2770719 -0.69,15.3461281 -0.69,14.153096 L-0.69,10.550376 C-0.69,8.69533521 1.82433013,6.65944619 4.00633807,5.93211021 C4.3721072,5.81018716 4.88016814,5.67648691 5.52016157,5.52879612 C5.83317116,5.45656314 6.17486737,5.3817154 6.54093705,5.30481001 C7.18053102,5.17044152 7.86392427,5.03605999 8.54705592,4.90785321 C8.83335617,4.8541218 9.07548644,4.80967787 9.25817116,4.77669706 C9.32413042,4.73886031 9.40266956,4.69415791 9.49325057,4.64306938 Z" id="Stroke-1" fill="#002EFF"></path>
            <polygon id="Stroke-3" fill="#002EFF" points="33.81 15.303096 33.81 17.603096 12.19 17.603096 12.19 15.303096"></polygon>
            <path d="M40.48,16.453096 C40.48,14.9289835 39.2441125,13.693096 37.72,13.693096 C36.1958875,13.693096 34.96,14.9289835 34.96,16.453096 C34.96,17.977769 36.1955278,19.213096 37.72,19.213096 C39.2444722,19.213096 40.48,17.977769 40.48,16.453096 Z M42.78,16.453096 C42.78,19.2481076 40.5146434,21.513096 37.72,21.513096 C34.9253566,21.513096 32.66,19.2481076 32.66,16.453096 C32.66,13.6587285 34.9256325,11.393096 37.72,11.393096 C40.5143675,11.393096 42.78,13.6587285 42.78,16.453096 Z" id="Stroke-5" fill="#42E8B4"></path>
            <path d="M11.04,16.453096 C11.04,14.9289835 9.80411254,13.693096 8.28,13.693096 C6.75588746,13.693096 5.52,14.9289835 5.52,16.453096 C5.52,17.977769 6.75552784,19.213096 8.28,19.213096 C9.80447216,19.213096 11.04,17.977769 11.04,16.453096 Z M13.34,16.453096 C13.34,19.2481076 11.0746434,21.513096 8.28,21.513096 C5.48535659,21.513096 3.22,19.2481076 3.22,16.453096 C3.22,13.6587285 5.48563254,11.393096 8.28,11.393096 C11.0743675,11.393096 13.34,13.6587285 13.34,16.453096 Z" id="Stroke-7" fill="#42E8B4"></path>
        </g>
    </g>
</svg>
