<?xml version="1.0" encoding="UTF-8"?>
<svg width="48px" height="48px" viewBox="0 0 48 48" version="1.1" xmlns="http://www.w3.org/2000/svg" xmlns:xlink="http://www.w3.org/1999/xlink">
    <!-- Generator: Sketch 54.1 (76490) - https://sketchapp.com -->
    <title>Icon-bicolor/Beneficios/48px/Auto-SUV/green-white@2x</title>
    <desc>Created with Sketch.</desc>
    <g id="Icon-bicolor/Beneficios/48px/Auto-SUV/green-white" stroke="none" stroke-width="1" fill="none" fill-rule="evenodd">
        <g id="Group-9" transform="translate(0.000000, 12.000000)" fill-rule="nonzero">
            <path d="M10.4932506,5.64306938 C10.8233838,5.45687122 11.2006027,5.24990394 11.619132,5.02733478 C12.8131853,4.39235064 14.1022183,3.75762194 15.4407316,3.16442324 C17.1687295,2.39861382 18.8526839,1.75886097 20.4500314,1.28674506 C22.0439037,0.815656336 23.5155124,0.522454952 24.8452353,0.435528902 C33.0118369,-0.0965299614 41.3756608,0.730180599 44.9298675,3.70913998 C47.3823762,5.76429806 48.167783,10.8421545 47.3125085,15.527033 C46.9500186,17.5129602 45.0090708,18.603096 42.63,18.603096 L42.63,16.303096 C44.0239559,16.303096 44.9252527,15.7968815 45.0498977,15.1140047 C45.7718383,11.1594805 45.1065075,6.85794615 43.4525254,5.47193897 C40.540272,3.03103301 32.5328619,2.23955166 24.9950172,2.73064662 C23.8537055,2.80525595 22.5440448,3.06619104 21.1019464,3.49242113 C19.6091414,3.93363818 18.0156944,4.53900629 16.3726245,5.26717753 C15.0878833,5.83654566 13.847286,6.44742429 12.6990422,7.05804746 C12.2977674,7.27144087 11.9371564,7.46929597 11.6231473,7.64639993 C11.4368013,7.75150083 11.3087826,7.82549788 11.2450017,7.86318337 L11.0653481,7.96933328 L10.8598531,8.00559709 C10.6835404,8.0367111 10.3722596,8.09313776 9.97130186,8.16838753 C9.30320184,8.29377325 8.63536343,8.42509609 8.01380785,8.555675 C7.66171426,8.62964424 7.33453292,8.70131253 7.03733843,8.76989588 C6.46264436,8.90251759 6.0147678,9.02037984 5.73366193,9.11408179 C4.39724923,9.55955269 2.61,11.0067139 2.61,11.550376 L2.61,15.153096 C2.61,15.5700639 2.76803214,15.8466201 3.07,16.073096 C3.2174289,16.1836677 3.36863316,16.2602722 3.4765937,16.303096 L5.37,16.303096 L5.37,18.603096 L3.3,18.603096 L3.02108403,18.5687599 C2.6550694,18.4772562 2.1761439,18.2777039 1.69,17.913096 C0.841967863,17.2770719 0.31,16.3461281 0.31,15.153096 L0.31,11.550376 C0.31,9.69533521 2.82433013,7.65944619 5.00633807,6.93211021 C5.3721072,6.81018716 5.88016814,6.67648691 6.52016157,6.52879612 C6.83317116,6.45656314 7.17486737,6.3817154 7.54093705,6.30481001 C8.18053102,6.17044152 8.86392427,6.03605999 9.54705592,5.90785321 C9.83335617,5.8541218 10.0754864,5.80967787 10.2581712,5.77669706 C10.3241304,5.73886031 10.4026696,5.69415791 10.4932506,5.64306938 Z" id="Stroke-1" fill="#FFFFFF"></path>
            <polygon id="Stroke-3" fill="#FFFFFF" points="34.81 16.303096 34.81 18.603096 13.19 18.603096 13.19 16.303096"></polygon>
            <path d="M41.48,17.453096 C41.48,15.9289835 40.2441125,14.693096 38.72,14.693096 C37.1958875,14.693096 35.96,15.9289835 35.96,17.453096 C35.96,18.977769 37.1955278,20.213096 38.72,20.213096 C40.2444722,20.213096 41.48,18.977769 41.48,17.453096 Z M43.78,17.453096 C43.78,20.2481076 41.5146434,22.513096 38.72,22.513096 C35.9253566,22.513096 33.66,20.2481076 33.66,17.453096 C33.66,14.6587285 35.9256325,12.393096 38.72,12.393096 C41.5143675,12.393096 43.78,14.6587285 43.78,17.453096 Z" id="Stroke-5" fill="#42E8B4"></path>
            <path d="M12.04,17.453096 C12.04,15.9289835 10.8041125,14.693096 9.28,14.693096 C7.75588746,14.693096 6.52,15.9289835 6.52,17.453096 C6.52,18.977769 7.75552784,20.213096 9.28,20.213096 C10.8044722,20.213096 12.04,18.977769 12.04,17.453096 Z M14.34,17.453096 C14.34,20.2481076 12.0746434,22.513096 9.28,22.513096 C6.48535659,22.513096 4.22,20.2481076 4.22,17.453096 C4.22,14.6587285 6.48563254,12.393096 9.28,12.393096 C12.0743675,12.393096 14.34,14.6587285 14.34,17.453096 Z" id="Stroke-7" fill="#42E8B4"></path>
        </g>
    </g>
</svg>