<?xml version="1.0" encoding="UTF-8"?>
<svg width="36px" height="36px" viewBox="0 0 48 48" version="1.1" xmlns="http://www.w3.org/2000/svg" xmlns:xlink="http://www.w3.org/1999/xlink">
    <!-- Generator: Sketch 54.1 (76490) - https://sketchapp.com -->
    <title>Icon-bicolor/Beneficios/48px/Minibus/green-blue@2x</title>
    <desc>Created with Sketch.</desc>
    <g id="Icon-bicolor/Beneficios/48px/Minibus/green-blue" stroke="none" stroke-width="1" fill="none" fill-rule="evenodd">
        <g id="Group-15" transform="translate(1.000000, 8.000000)" fill-rule="nonzero">
            <path d="M5.02472695,10.3894387 L14.6254978,0.482889775 C15.3517798,-0.26652378 16.3508141,-0.68954 17.3944166,-0.68954 L43.600272,-0.68954 C45.1793195,-0.68954 46.459632,0.590772538 46.459632,2.16982 L46.459632,23.36846 L42.643472,23.36846 C42.0083445,23.36846 41.493472,22.8535875 41.493472,22.21846 C41.493472,21.5833325 42.0083445,21.06846 42.643472,21.06846 L44.159632,21.06846 L44.159632,2.16982 C44.159632,1.86102746 43.9090645,1.61046 43.600272,1.61046 L17.3944166,1.61046 C16.9733138,1.61046 16.5701947,1.78115076 16.2771336,2.0835457 L6.38621705,12.2894813 L1.72568611,14.4974347 C1.65481537,14.5310102 1.609632,14.6024135 1.609632,14.6808353 L1.609632,20.47782 C1.609632,20.8040925 1.87399946,21.06846 2.200272,21.06846 L5.705472,21.06846 C6.34059946,21.06846 6.855472,21.5833325 6.855472,22.21846 C6.855472,22.8535875 6.34059946,23.36846 5.705472,23.36846 L2.200272,23.36846 C0.603744538,23.36846 -0.690368,22.0743475 -0.690368,20.47782 L-0.690368,14.6808353 C-0.690368,13.7136337 -0.133106403,12.8329921 0.740966016,12.4188953 L5.02472695,10.3894387 Z" id="Stroke-5" fill="#002EFF"></path>
            <path d="M12.7759553,12.489276 C12.3411809,12.489276 11.9262392,12.3073592 11.6316537,11.9875965 C11.0494335,11.3556162 11.0897721,10.3713122 11.7217524,9.78909205 L17.3567608,4.59776639 C17.6690204,4.31009311 18.0780608,4.150396 18.5026335,4.150396 L40.7392199,4.150396 C41.59851,4.150396 42.2951023,4.84698826 42.2951023,5.70627835 L42.2951023,12.489276 L12.7759553,12.489276 Z M14.681902,10.189276 L39.9951023,10.189276 L39.9951023,6.450396 L18.7403298,6.450396 L14.681902,10.189276 Z" id="Stroke-7" fill="#002EFF"></path>
            <path d="M34.562928,21.06846 C35.1980555,21.06846 35.712928,21.5833325 35.712928,22.21846 C35.712928,22.8535875 35.1980555,23.36846 34.562928,23.36846 L13.525288,23.36846 C12.8901605,23.36846 12.375288,22.8535875 12.375288,22.21846 C12.375288,21.5833325 12.8901605,21.06846 13.525288,21.06846 L34.562928,21.06846 Z" id="Stroke-9" fill="#002EFF"></path>
            <polygon id="Stroke-11" fill="#002EFF" points="32.5322222 6.38888889 34.8322222 6.38888889 34.8322222 11.339276 32.5322222 11.339276"></polygon>
            <polygon id="Stroke-13" fill="#002EFF" points="22.31 6.38888889 24.61 6.38888889 24.61 11.339276 22.31 11.339276"></polygon>
            <path d="M12.375104,22.21846 C12.375104,20.693787 11.1395762,19.45846 9.615104,19.45846 C8.09007146,19.45846 6.855104,20.6934275 6.855104,22.21846 C6.855104,23.7429322 8.09043104,24.97846 9.615104,24.97846 C11.1392165,24.97846 12.375104,23.7425725 12.375104,22.21846 Z M14.675104,22.21846 C14.675104,25.0128275 12.4094715,27.27846 9.615104,27.27846 C6.82009242,27.27846 4.555104,25.0131034 4.555104,22.21846 C4.555104,19.4231725 6.81981654,17.15846 9.615104,17.15846 C12.4097474,17.15846 14.675104,19.4234484 14.675104,22.21846 Z" id="Stroke-1" fill="#42E8B4"></path>
            <path d="M41.493472,22.21846 C41.493472,20.6934275 40.2585045,19.45846 38.733472,19.45846 C37.2084395,19.45846 35.973472,20.6934275 35.973472,22.21846 C35.973472,23.7429322 37.208799,24.97846 38.733472,24.97846 C40.258145,24.97846 41.493472,23.7429322 41.493472,22.21846 Z M43.793472,22.21846 C43.793472,25.0131034 41.5284836,27.27846 38.733472,27.27846 C35.9384604,27.27846 33.673472,25.0131034 33.673472,22.21846 C33.673472,19.4231725 35.9381845,17.15846 38.733472,17.15846 C41.5287595,17.15846 43.793472,19.4231725 43.793472,22.21846 Z" id="Stroke-3" fill="#42E8B4"></path>
        </g>
    </g>
</svg>
