<?xml version="1.0" encoding="UTF-8"?>
<svg width="48px" height="48px" viewBox="0 0 48 48" version="1.1" xmlns="http://www.w3.org/2000/svg" xmlns:xlink="http://www.w3.org/1999/xlink">
    <!-- Generator: Sketch 54.1 (76490) - https://sketchapp.com -->
    <title>Icon-bicolor/Beneficios/48px/Minibus@2x</title>
    <desc>Created with Sketch.</desc>
    <g id="Icon-bicolor/Beneficios/48px/Minibus" stroke="none" stroke-width="1" fill="none" fill-rule="evenodd">
        <g id="Group-15" transform="translate(0.000000, 7.000000)" fill-rule="nonzero">
            <path d="M6.02472695,11.3894387 L15.6254978,1.48288977 C16.3517798,0.73347622 17.3508141,0.31046 18.3944166,0.31046 L44.600272,0.31046 C46.1793195,0.31046 47.459632,1.59077254 47.459632,3.16982 L47.459632,24.36846 L43.643472,24.36846 C43.0083445,24.36846 42.493472,23.8535875 42.493472,23.21846 C42.493472,22.5833325 43.0083445,22.06846 43.643472,22.06846 L45.159632,22.06846 L45.159632,3.16982 C45.159632,2.86102746 44.9090645,2.61046 44.600272,2.61046 L18.3944166,2.61046 C17.9733138,2.61046 17.5701947,2.78115076 17.2771336,3.0835457 L7.38621705,13.2894813 L2.72568611,15.4974347 C2.65481537,15.5310102 2.609632,15.6024135 2.609632,15.6808353 L2.609632,21.47782 C2.609632,21.8040925 2.87399946,22.06846 3.200272,22.06846 L6.705472,22.06846 C7.34059946,22.06846 7.855472,22.5833325 7.855472,23.21846 C7.855472,23.8535875 7.34059946,24.36846 6.705472,24.36846 L3.200272,24.36846 C1.60374454,24.36846 0.309632,23.0743475 0.309632,21.47782 L0.309632,15.6808353 C0.309632,14.7136337 0.866893597,13.8329921 1.74096602,13.4188953 L6.02472695,11.3894387 Z" id="Stroke-5" fill="#FFFFFF"></path>
            <path d="M13.7759553,13.489276 C13.3411809,13.489276 12.9262392,13.3073592 12.6316537,12.9875965 C12.0494335,12.3556162 12.0897721,11.3713122 12.7217524,10.7890921 L18.3567608,5.59776639 C18.6690204,5.31009311 19.0780608,5.150396 19.5026335,5.150396 L41.7392199,5.150396 C42.59851,5.150396 43.2951023,5.84698826 43.2951023,6.70627835 L43.2951023,13.489276 L13.7759553,13.489276 Z M15.681902,11.189276 L40.9951023,11.189276 L40.9951023,7.450396 L19.7403298,7.450396 L15.681902,11.189276 Z" id="Stroke-7" fill="#FFFFFF"></path>
            <path d="M35.562928,22.06846 C36.1980555,22.06846 36.712928,22.5833325 36.712928,23.21846 C36.712928,23.8535875 36.1980555,24.36846 35.562928,24.36846 L14.525288,24.36846 C13.8901605,24.36846 13.375288,23.8535875 13.375288,23.21846 C13.375288,22.5833325 13.8901605,22.06846 14.525288,22.06846 L35.562928,22.06846 Z" id="Stroke-9" fill="#FFFFFF"></path>
            <polygon id="Stroke-11" fill="#FFFFFF" points="33.5322222 7.38888889 35.8322222 7.38888889 35.8322222 12.339276 33.5322222 12.339276"></polygon>
            <polygon id="Stroke-13" fill="#FFFFFF" points="23.31 7.38888889 25.61 7.38888889 25.61 12.339276 23.31 12.339276"></polygon>
            <path d="M13.375104,23.21846 C13.375104,21.693787 12.1395762,20.45846 10.615104,20.45846 C9.09007146,20.45846 7.855104,21.6934275 7.855104,23.21846 C7.855104,24.7429322 9.09043104,25.97846 10.615104,25.97846 C12.1392165,25.97846 13.375104,24.7425725 13.375104,23.21846 Z M15.675104,23.21846 C15.675104,26.0128275 13.4094715,28.27846 10.615104,28.27846 C7.82009242,28.27846 5.555104,26.0131034 5.555104,23.21846 C5.555104,20.4231725 7.81981654,18.15846 10.615104,18.15846 C13.4097474,18.15846 15.675104,20.4234484 15.675104,23.21846 Z" id="Stroke-1" fill="#42E8B4"></path>
            <path d="M42.493472,23.21846 C42.493472,21.6934275 41.2585045,20.45846 39.733472,20.45846 C38.2084395,20.45846 36.973472,21.6934275 36.973472,23.21846 C36.973472,24.7429322 38.208799,25.97846 39.733472,25.97846 C41.258145,25.97846 42.493472,24.7429322 42.493472,23.21846 Z M44.793472,23.21846 C44.793472,26.0131034 42.5284836,28.27846 39.733472,28.27846 C36.9384604,28.27846 34.673472,26.0131034 34.673472,23.21846 C34.673472,20.4231725 36.9381845,18.15846 39.733472,18.15846 C42.5287595,18.15846 44.793472,20.4231725 44.793472,23.21846 Z" id="Stroke-3" fill="#42E8B4"></path>
        </g>
    </g>
</svg>