<?xml version="1.0" encoding="UTF-8"?>
<svg width="48px" height="48px" viewBox="0 0 48 48" version="1.1" xmlns="http://www.w3.org/2000/svg" xmlns:xlink="http://www.w3.org/1999/xlink">
    <!-- Generator: Sketch 54.1 (76490) - https://sketchapp.com -->
    <title>Icon/Beneficios/48px/Minibus/white@2x</title>
    <desc>Created with Sketch.</desc>
    <defs>
        <path d="M44.6623085,29.06846 L45.159632,29.06846 L45.159632,10.16982 C45.159632,9.86102746 44.9090645,9.61046 44.600272,9.61046 L18.3944166,9.61046 C17.9733138,9.61046 17.5701947,9.78115076 17.2771336,10.0835457 L7.38621705,20.2894813 L2.72568611,22.4974347 C2.65481537,22.5310102 2.609632,22.6024135 2.609632,22.6808353 L2.609632,28.47782 C2.609632,28.8040925 2.87399946,29.06846 3.200272,29.06846 L5.68626746,29.06846 C6.20675058,26.8275124 8.2154152,25.15846 10.615104,25.15846 C13.0142091,25.15846 15.0232493,26.8276729 15.5438873,29.06846 L34.8046355,29.06846 C35.3251186,26.8275124 37.3337832,25.15846 39.733472,25.15846 C42.1331608,25.15846 44.1418254,26.8275124 44.6623085,29.06846 Z M44.6622475,31.36846 C44.1416379,33.609033 42.132852,35.27846 39.733472,35.27846 C37.334092,35.27846 35.3253061,33.609033 34.8046965,31.36846 L15.5438262,31.36846 C15.0230618,33.6088726 13.0139003,35.27846 10.615104,35.27846 C8.21572397,35.27846 6.20693806,33.609033 5.68632851,31.36846 L3.200272,31.36846 C1.60374454,31.36846 0.309632,30.0743475 0.309632,28.47782 L0.309632,22.6808353 C0.309632,21.7136337 0.866893597,20.8329921 1.74096602,20.4188953 L6.02472695,18.3894387 L15.6254978,8.48288977 C16.3517798,7.73347622 17.3508141,7.31046 18.3944166,7.31046 L44.600272,7.31046 C46.1793195,7.31046 47.459632,8.59077254 47.459632,10.16982 L47.459632,31.36846 L44.6622475,31.36846 Z M7.85521204,30.1937621 C7.85538506,30.2019739 7.855472,30.2102068 7.855472,30.21846 C7.855472,30.226712 7.85538508,30.2349437 7.85521212,30.2431542 C7.86846653,31.7562523 9.09867201,32.97846 10.615104,32.97846 C12.1392165,32.97846 13.375104,31.7425725 13.375104,30.21846 C13.375104,28.693787 12.1395762,27.45846 10.615104,27.45846 C9.09831261,27.45846 7.86845979,28.6801162 7.85521204,30.1937621 Z M25.61,14.450396 L25.61,18.189276 L33.5322222,18.189276 L33.5322222,14.450396 L25.61,14.450396 Z M23.31,14.450396 L19.7403298,14.450396 L15.681902,18.189276 L23.31,18.189276 L23.31,14.450396 Z M35.8322222,14.450396 L35.8322222,18.189276 L40.9951023,18.189276 L40.9951023,14.450396 L35.8322222,14.450396 Z M13.7759553,20.489276 C13.3411809,20.489276 12.9262392,20.3073592 12.6316537,19.9875965 C12.0494335,19.3556162 12.0897721,18.3713122 12.7217524,17.7890921 L18.3567608,12.5977664 C18.6690204,12.3100931 19.0780608,12.150396 19.5026335,12.150396 L41.7392199,12.150396 C42.59851,12.150396 43.2951023,12.8469883 43.2951023,13.7062784 L43.2951023,20.489276 L13.7759553,20.489276 Z M42.493472,30.21846 C42.493472,28.6934275 41.2585045,27.45846 39.733472,27.45846 C38.2084395,27.45846 36.973472,28.6934275 36.973472,30.21846 C36.973472,31.7429322 38.208799,32.97846 39.733472,32.97846 C41.258145,32.97846 42.493472,31.7429322 42.493472,30.21846 Z" id="path-1"></path>
    </defs>
    <g id="Icon/Beneficios/48px/Minibus/white" stroke="none" stroke-width="1" fill="none" fill-rule="evenodd">
        <mask id="mask-2" fill="white">
            <use xlink:href="#path-1"></use>
        </mask>
        <g id="Icon/letra-M/36px/Minibus/blue" fill-rule="nonzero"></g>
        <rect id="🎨-color" fill="#FFFFFF" mask="url(#mask-2)" x="0" y="0" width="48" height="48"></rect>
    </g>
</svg>