<?xml version="1.0" encoding="UTF-8"?>
<svg width="48px" height="48px" viewBox="0 0 48 48" version="1.1" xmlns="http://www.w3.org/2000/svg" xmlns:xlink="http://www.w3.org/1999/xlink">
    <!-- Generator: Sketch 54.1 (76490) - https://sketchapp.com -->
    <title>Icon/Navegacion/48px/Intalacion/black@2x</title>
    <desc>Created with Sketch.</desc>
    <defs>
        <path d="M20.0151937,44.4162083 C16.4308464,48.0005557 10.9871528,48.8372913 6.5231479,46.6021185 L4.67348548,45.6759736 L11.4715363,38.8779228 C11.9494979,38.399961 11.9494979,37.6275718 11.4715363,37.14961 L10.7581673,36.4362411 C10.2802057,35.9582795 9.50781633,35.9582795 9.0298547,36.4362411 L2.23224237,43.2338535 L1.30584908,41.3850091 C-0.929707978,36.9234077 -0.092664242,31.476817 3.49156903,27.8925837 C6.7507288,24.6334239 11.5534057,23.6403389 15.7607492,25.1765798 L25.1116226,15.8257064 C23.575288,11.616671 24.5680309,6.81612184 27.8274854,3.55666734 C31.4118326,-0.0276798833 36.8555262,-0.864415604 41.3195313,1.37075731 L43.1691936,2.2969022 L36.3711428,9.094953 C35.8931812,9.57291463 35.8931812,10.345304 36.3711428,10.8232656 L37.0845117,11.5366346 C37.5624735,12.0145962 38.3348627,12.0145962 38.8128245,11.5366346 L45.6104367,4.73902225 L46.5368301,6.58786673 C48.772387,11.0494678 47.9353435,16.4960587 44.35111,20.080292 C41.0919503,23.3394518 36.2892735,24.3325368 32.0819299,22.7962959 L22.7311976,32.1470282 C24.2674385,36.3543718 23.2743535,41.1570486 20.0151937,44.4162083 Z M9.91151058,44.6574981 C12.7399865,45.2697358 15.7672145,44.4446375 17.9054187,42.3064335 C20.524465,39.6873871 21.1785018,35.7294056 19.6214955,32.4358292 L19.1725381,31.4861377 L31.4210394,19.2376364 L32.3707309,19.6865938 C35.6643073,21.2436001 39.6222888,20.5895633 42.2413352,17.9705171 C44.3792373,15.8326147 45.2045054,12.804032 44.592593,9.97641598 L40.9225992,13.6464095 C39.2794413,15.2895676 36.6178949,15.2895676 34.9747369,13.6464095 L34.261368,12.9330406 C32.6182097,11.2898824 32.6182097,8.62833622 34.261368,6.98517807 L37.9311686,3.31537746 C35.1026925,2.70313995 32.0754645,3.52823807 29.9372603,5.66644227 C27.3179654,8.28573721 26.6642318,12.2412227 28.2213602,15.5374201 L28.6699224,16.4869564 L16.4216396,28.7352393 L15.4719482,28.2862819 C12.1783719,26.7292756 8.2203902,27.3833124 5.60134396,30.0023586 C3.46344167,32.140261 2.63817373,35.1688438 3.25008624,37.9964597 L6.92007977,34.3264663 C8.56323791,32.683308 11.2247841,32.683308 12.8679423,34.3264663 L13.5813112,35.0398352 C15.2244693,36.6829932 15.2244693,39.3445396 13.5813112,40.9876976 L9.91151058,44.6574981 Z" id="path-1"></path>
    </defs>
    <g id="Icon/Navegacion/48px/Intalacion/black" stroke="none" stroke-width="1" fill="none" fill-rule="evenodd">
        <mask id="mask-2" fill="white">
            <use xlink:href="#path-1"></use>
        </mask>
        <g id="icon/letra-I/48px/Intalacion" fill-rule="nonzero"></g>
        <rect id="🎨-color" fill="#191919" mask="url(#mask-2)" x="0" y="0" width="48" height="48"></rect>
    </g>
</svg>