<?xml version="1.0" encoding="UTF-8"?>
<svg width="48px" height="48px" viewBox="0 0 48 48" version="1.1" xmlns="http://www.w3.org/2000/svg" xmlns:xlink="http://www.w3.org/1999/xlink">
    <!-- Generator: Sketch 54.1 (76490) - https://sketchapp.com -->
    <title>Icon/Navegacion/48px/Menu-user/black@2x</title>
    <desc>Created with Sketch.</desc>
    <g id="Icon/Navegacion/48px/Menu-user/black" stroke="none" stroke-width="1" fill="none" fill-rule="evenodd">
        <g id="Group-15" transform="translate(0.000000, 10.000000)" fill="#191919" fill-rule="nonzero">
            <g id="Group-4" transform="translate(26.057143, 5.485714)" stroke="#191919">
                <g id="Clipped" transform="translate(2.742857, 17.828571)">
                    <path d="M18.8318208,1.37142857 L0.36453389,1.37142857 C0.164040251,1.37142857 0,1.06285714 0,0.685714286 C0,0.308571429 0.164040251,3.63797881e-12 0.36453389,3.63797881e-12 L18.8354661,3.63797881e-12 C19.0359597,3.63797881e-12 19.2,0.308571429 19.2,0.685714286 C19.2,1.06285714 19.0359597,1.37142857 18.8318208,1.37142857" id="Shape"></path>
                </g>
                <g id="Clipped" transform="translate(0.000000, 8.228571)">
                    <path d="M21.5220809,2.05714286 L0.41661016,2.05714286 C0.187474572,2.05714286 0,1.74857143 0,1.37142857 C0,0.994285714 0.187474572,0.685714286 0.41661016,0.685714286 L21.526247,0.685714286 C21.7553826,0.685714286 21.9428571,0.994285714 21.9428571,1.37142857 C21.938691,1.74857143 21.7553826,2.05714286 21.5220809,2.05714286" id="Shape"></path>
                </g>
                <g id="Clipped" transform="translate(2.742857, -0.000000)">
                    <path d="M0.36453389,1.37142857 C0.164040251,1.37142857 0,1.06285714 0,0.685714286 C0,0.308571429 0.164040251,0 0.36453389,0 L18.8354661,0 C19.0359597,0 19.2,0.308571429 19.2,0.685714286 C19.2,1.06285714 19.0359597,1.37142857 18.8318208,1.37142857 L0.36453389,1.37142857 Z" id="Shape"></path>
                </g>
            </g>
            <path d="M17.7889098,16.8364197 C22.082102,18.3845301 25.1626615,22.6616097 25.1626615,27.6651729 C25.1626615,28.1920368 24.7293651,28.6191443 24.1948668,28.6191443 L0.967794673,28.6191443 C0.433296434,28.6191443 0,28.1920368 0,27.6651729 C0,22.4183949 3.38874032,17.9697733 8.00988093,16.6299045 C5.51797408,15.0072827 3.87117869,12.2217249 3.87117869,9.06355352 C3.87117869,4.0647336 7.99439167,0 13.0652281,0 L13.0652281,0.953971478 L13.0652281,0 C18.1360645,0 22.2592775,4.0647336 22.2592775,9.06355352 C22.2592775,12.3606516 20.4654466,15.2508474 17.7889098,16.8364197 Z M13.0652281,0.953971478 L13.0652281,1.90794296 C9.0634322,1.90794296 5.80676804,5.11841797 5.80676804,9.06355352 C5.80676804,13.0072654 9.0636608,16.2175151 13.0652281,16.2175151 C17.0674033,16.2175151 20.3236881,13.0083152 20.3236881,9.06355352 C20.3236881,5.11841797 17.067024,1.90794296 13.0652281,1.90794296 L13.0652281,0.953971478 Z M14.2411302,18.1254581 L10.9215313,18.1254581 C6.28492815,18.1254581 2.43327005,21.8871173 1.98015293,26.7112014 L23.1825295,26.7112014 C22.7295697,21.8866094 18.878778,18.1254581 14.2411302,18.1254581 Z" id="Combined-Shape"></path>
        </g>
    </g>
</svg>