<?xml version="1.0" encoding="UTF-8"?>
<svg width="48px" height="48px" viewBox="0 0 48 48" version="1.1" xmlns="http://www.w3.org/2000/svg" xmlns:xlink="http://www.w3.org/1999/xlink">
    <!-- Generator: Sketch 54.1 (76490) - https://sketchapp.com -->
    <title>Icon/pago-cobro/48px/Reclamos/black@2x</title>
    <desc>Created with Sketch.</desc>
    <defs>
        <path d="M24.0019527,43.0035518 L10.5990041,43.0035518 C7.51172027,43.0035518 5,40.5403302 5,37.4888896 L5,5.51466216 C5,2.46322161 7.51172027,6.21724894e-13 10.5990041,6.21724894e-13 L28.1325519,6.21724894e-13 L28.1331697,0.139915273 L28.2594041,0.0240747637 L35.8778219,8.32605856 L35.9015716,8.32605856 L35.9015716,28.6490415 C39.6937081,30.0341487 42.4002225,33.6731659 42.4002225,37.9452009 C42.4002225,43.4079604 37.9711919,47.836991 32.5062698,47.836991 C28.8903702,47.836991 25.7279724,45.8980104 24.0019527,43.0035518 Z M22.9795804,40.6246779 C22.7402936,39.7725062 22.6123171,38.8737883 22.6123171,37.9452009 C22.6123171,32.4802788 27.0413477,28.0512482 32.5062698,28.0512482 C32.849444,28.0512482 33.1885334,28.0687133 33.5226977,28.1028032 L33.5226977,10.7049324 L25.8009233,10.7049324 L25.7641589,2.37887387 L10.5990041,2.37887387 C8.81526625,2.37887387 7.37887387,3.78753102 7.37887387,5.51466216 L7.37887387,37.4888896 C7.37887387,39.2160208 8.81526625,40.6246779 10.5990041,40.6246779 L22.9795804,40.6246779 Z M28.1476563,3.42070344 L28.1693163,8.32605856 L32.649116,8.32605856 L28.1476563,3.42070344 Z M19.307845,17.8047896 C18.6509372,17.8047896 18.1184081,17.2722606 18.1184081,16.6153527 C18.1184081,15.9584448 18.6509372,15.4259158 19.307845,15.4259158 L28.966073,15.4259158 C29.6229808,15.4259158 30.1555099,15.9584448 30.1555099,16.6153527 C30.1555099,17.2722606 29.6229808,17.8047896 28.966073,17.8047896 L19.307845,17.8047896 Z M19.307845,25.0127775 C18.6509372,25.0127775 18.1184081,24.4802484 18.1184081,23.8233405 C18.1184081,23.1664327 18.6509372,22.6339036 19.307845,22.6339036 L28.966073,22.6339036 C29.6229808,22.6339036 30.1555099,23.1664327 30.1555099,23.8233405 C30.1555099,24.4802484 29.6229808,25.0127775 28.966073,25.0127775 L19.307845,25.0127775 Z M12.0998572,17.8047896 C11.4429493,17.8047896 10.9104203,17.2722606 10.9104203,16.6153527 C10.9104203,15.9584448 11.4429493,15.4259158 12.0998572,15.4259158 L14.4787311,15.4259158 C15.135639,15.4259158 15.668168,15.9584448 15.668168,16.6153527 C15.668168,17.2722606 15.135639,17.8047896 14.4787311,17.8047896 L12.0998572,17.8047896 Z M12.0998572,25.0127775 C11.4429493,25.0127775 10.9104203,24.4802484 10.9104203,23.8233405 C10.9104203,23.1664327 11.4429493,22.6339036 12.0998572,22.6339036 L14.4787311,22.6339036 C15.135639,22.6339036 15.668168,23.1664327 15.668168,23.8233405 C15.668168,24.4802484 15.135639,25.0127775 14.4787311,25.0127775 L12.0998572,25.0127775 Z M12.0998572,32.2229279 C11.4429493,32.2229279 10.9104203,31.6903988 10.9104203,31.033491 C10.9104203,30.3765831 11.4429493,29.8440541 12.0998572,29.8440541 L14.4787311,29.8440541 C15.135639,29.8440541 15.668168,30.3765831 15.668168,31.033491 C15.668168,31.6903988 15.135639,32.2229279 14.4787311,32.2229279 L12.0998572,32.2229279 Z M32.5062698,30.525277 C28.4146068,30.525277 25.0863459,33.8535378 25.0863459,37.9452009 C25.0863459,42.036864 28.4146068,45.3651248 32.5062698,45.3651248 C36.5979329,45.3651248 39.9261937,42.036864 39.9261937,37.9452009 C39.9261937,33.8535378 36.5979329,30.525277 32.5062698,30.525277 Z M31.3168329,33.1593392 C31.3168329,32.5024313 31.849362,31.9699023 32.5062698,31.9699023 C33.1631777,31.9699023 33.6957068,32.5024313 33.6957068,33.1593392 L33.6957068,39.2146545 C33.6957068,39.8715624 33.1631777,40.4040914 32.5062698,40.4040914 C31.849362,40.4040914 31.3168329,39.8715624 31.3168329,39.2146545 L31.3168329,33.1593392 Z M32.5062698,43.6112459 C31.789643,43.6112459 31.2087023,43.0303052 31.2087023,42.3136784 C31.2087023,41.5970516 31.789643,41.0161108 32.5062698,41.0161108 C33.2228966,41.0161108 33.8038374,41.5970516 33.8038374,42.3136784 C33.8038374,43.0303052 33.2228966,43.6112459 32.5062698,43.6112459 Z" id="path-1"></path>
    </defs>
    <g id="Icon/pago-cobro/48px/Reclamos/black" stroke="none" stroke-width="1" fill="none" fill-rule="evenodd">
        <mask id="mask-2" fill="white">
            <use xlink:href="#path-1"></use>
        </mask>
        <g id="Combined-Shape"></g>
        <rect id="🎨-color" fill="#191919" mask="url(#mask-2)" x="0" y="0" width="48" height="48"></rect>
    </g>
</svg>