<?xml version="1.0" encoding="UTF-8"?>
<svg width="48px" height="48px" viewBox="0 0 48 48" version="1.1" xmlns="http://www.w3.org/2000/svg" xmlns:xlink="http://www.w3.org/1999/xlink">
    <!-- Generator: Sketch 54.1 (76490) - https://sketchapp.com -->
    <title>Icon/pago-cobro/48px/Reclamos/blue@2x</title>
    <desc>Created with Sketch.</desc>
    <defs>
        <path d="M24.371045,43.1434468 L10.9680964,43.1434468 C7.88081262,43.1434468 5.36909234,40.6802252 5.36909234,37.6287847 L5.36909234,5.65455721 C5.36909234,2.60311665 7.88081262,0.139895045 10.9680964,0.139895045 L28.5016442,0.139895045 L28.502262,0.279810318 L28.6284964,0.163969809 L36.2469142,8.4659536 L36.270664,8.4659536 L36.270664,28.7889366 C40.0628005,30.1740437 42.7693149,33.8130609 42.7693149,38.0850959 C42.7693149,43.5478554 38.3402842,47.976886 32.8753622,47.976886 C29.2594625,47.976886 26.0970647,46.0379054 24.371045,43.1434468 Z M23.3486728,40.764573 C23.1093859,39.9124013 22.9814095,39.0136834 22.9814095,38.0850959 C22.9814095,32.6201739 27.4104401,28.1911432 32.8753622,28.1911432 C33.2185364,28.1911432 33.5576258,28.2086083 33.8917901,28.2426982 L33.8917901,10.8448275 L26.1700157,10.8448275 L26.1332513,2.51876892 L10.9680964,2.51876892 C9.18435859,2.51876892 7.74796622,3.92742607 7.74796622,5.65455721 L7.74796622,37.6287847 C7.74796622,39.3559159 9.18435859,40.764573 10.9680964,40.764573 L23.3486728,40.764573 Z M28.5167486,3.56059849 L28.5384087,8.4659536 L33.0182083,8.4659536 L28.5167486,3.56059849 Z M19.6769374,17.9446847 C19.0200295,17.9446847 18.4875005,17.4121556 18.4875005,16.7552477 C18.4875005,16.0983399 19.0200295,15.5658108 19.6769374,15.5658108 L29.3351653,15.5658108 C29.9920732,15.5658108 30.5246023,16.0983399 30.5246023,16.7552477 C30.5246023,17.4121556 29.9920732,17.9446847 29.3351653,17.9446847 L19.6769374,17.9446847 Z M19.6769374,25.1526725 C19.0200295,25.1526725 18.4875005,24.6201434 18.4875005,23.9632356 C18.4875005,23.3063277 19.0200295,22.7737986 19.6769374,22.7737986 L29.3351653,22.7737986 C29.9920732,22.7737986 30.5246023,23.3063277 30.5246023,23.9632356 C30.5246023,24.6201434 29.9920732,25.1526725 29.3351653,25.1526725 L19.6769374,25.1526725 Z M12.4689495,17.9446847 C11.8120417,17.9446847 11.2795126,17.4121556 11.2795126,16.7552477 C11.2795126,16.0983399 11.8120417,15.5658108 12.4689495,15.5658108 L14.8478234,15.5658108 C15.5047313,15.5658108 16.0372604,16.0983399 16.0372604,16.7552477 C16.0372604,17.4121556 15.5047313,17.9446847 14.8478234,17.9446847 L12.4689495,17.9446847 Z M12.4689495,25.1526725 C11.8120417,25.1526725 11.2795126,24.6201434 11.2795126,23.9632356 C11.2795126,23.3063277 11.8120417,22.7737986 12.4689495,22.7737986 L14.8478234,22.7737986 C15.5047313,22.7737986 16.0372604,23.3063277 16.0372604,23.9632356 C16.0372604,24.6201434 15.5047313,25.1526725 14.8478234,25.1526725 L12.4689495,25.1526725 Z M12.4689495,32.362823 C11.8120417,32.362823 11.2795126,31.8302939 11.2795126,31.173386 C11.2795126,30.5164782 11.8120417,29.9839491 12.4689495,29.9839491 L14.8478234,29.9839491 C15.5047313,29.9839491 16.0372604,30.5164782 16.0372604,31.173386 C16.0372604,31.8302939 15.5047313,32.362823 14.8478234,32.362823 L12.4689495,32.362823 Z M32.8753622,30.6651721 C28.7836991,30.6651721 25.4554383,33.9934329 25.4554383,38.0850959 C25.4554383,42.176759 28.7836991,45.5050198 32.8753622,45.5050198 C36.9670252,45.5050198 40.295286,42.176759 40.295286,38.0850959 C40.295286,33.9934329 36.9670252,30.6651721 32.8753622,30.6651721 Z M31.6859252,33.2992342 C31.6859252,32.6423264 32.2184543,32.1097973 32.8753622,32.1097973 C33.53227,32.1097973 34.0647991,32.6423264 34.0647991,33.2992342 L34.0647991,39.3545495 C34.0647991,40.0114574 33.53227,40.5439865 32.8753622,40.5439865 C32.2184543,40.5439865 31.6859252,40.0114574 31.6859252,39.3545495 L31.6859252,33.2992342 Z M32.8753622,43.751141 C32.1587354,43.751141 31.5777946,43.1702002 31.5777946,42.4535734 C31.5777946,41.7369466 32.1587354,41.1560059 32.8753622,41.1560059 C33.5919889,41.1560059 34.1729297,41.7369466 34.1729297,42.4535734 C34.1729297,43.1702002 33.5919889,43.751141 32.8753622,43.751141 Z" id="path-1"></path>
    </defs>
    <g id="Icon/pago-cobro/48px/Reclamos/blue" stroke="none" stroke-width="1" fill="none" fill-rule="evenodd">
        <mask id="mask-2" fill="white">
            <use xlink:href="#path-1"></use>
        </mask>
        <g id="Combined-Shape"></g>
        <rect id="🎨-color" fill="#002EFF" mask="url(#mask-2)" x="0" y="0" width="48" height="48"></rect>
    </g>
</svg>