<?xml version="1.0" encoding="UTF-8"?>
<svg width="48px" height="48px" viewBox="0 0 48 48" version="1.1" xmlns="http://www.w3.org/2000/svg" xmlns:xlink="http://www.w3.org/1999/xlink">
    <!-- Generator: Sketch 54.1 (76490) - https://sketchapp.com -->
    <title>Icon-bicolor/pago-cobro/48px/Reclamos/green-blue@2x</title>
    <desc>Created with Sketch.</desc>
    <g id="Icon-bicolor/pago-cobro/48px/Reclamos/green-blue" stroke="none" stroke-width="1" fill="none" fill-rule="evenodd">
        <g id="Group" transform="translate(5.185270, -0.005000)">
            <g id="Reclamos">
                <g id="Group">
                    <g>
                        <g id="Path" fill="#002EFF">
                            <path d="M20.947981,2.52376892 L5.78282613,2.52376892 C3.99908832,2.52376892 2.56269595,3.93242607 2.56269595,5.65955721 L2.56269595,37.6337847 C2.56269595,39.3609159 3.99908832,40.769573 5.78282613,40.769573 L19.3229437,40.769573 L19.3229437,43.1484468 L5.78282613,43.1484468 C2.69554235,43.1484468 0.183822072,40.6852252 0.183822072,37.6337847 L0.183822072,5.65955721 C0.183822072,2.60811665 2.69554235,0.144895045 5.78282613,0.144895045 L23.316374,0.144895045 L23.3531384,8.4709536 L31.0853937,8.4709536 L31.0853937,28.979009 L28.7065198,28.979009 L28.7065198,10.8498275 L20.9847454,10.8498275 L20.947981,2.52376892 Z"></path>
                            <polygon points="21.690499 1.77738154 23.4432261 0.168969809 31.0837365 8.49502837 29.3310095 10.1034401"></polygon>
                            <path d="M14.4916671,17.9496847 C13.8347592,17.9496847 13.3022302,17.4171556 13.3022302,16.7602477 C13.3022302,16.1033399 13.8347592,15.5708108 14.4916671,15.5708108 L24.149895,15.5708108 C24.8068029,15.5708108 25.339332,16.1033399 25.339332,16.7602477 C25.339332,17.4171556 24.8068029,17.9496847 24.149895,17.9496847 L14.4916671,17.9496847 Z"></path>
                            <path d="M14.4916671,25.1576725 C13.8347592,25.1576725 13.3022302,24.6251434 13.3022302,23.9682356 C13.3022302,23.3113277 13.8347592,22.7787986 14.4916671,22.7787986 L24.149895,22.7787986 C24.8068029,22.7787986 25.339332,23.3113277 25.339332,23.9682356 C25.339332,24.6251434 24.8068029,25.1576725 24.149895,25.1576725 L14.4916671,25.1576725 Z"></path>
                            <path d="M7.28367928,17.9496847 C6.6267714,17.9496847 6.09424234,17.4171556 6.09424234,16.7602477 C6.09424234,16.1033399 6.6267714,15.5708108 7.28367928,15.5708108 L9.66255315,15.5708108 C10.319461,15.5708108 10.8519901,16.1033399 10.8519901,16.7602477 C10.8519901,17.4171556 10.319461,17.9496847 9.66255315,17.9496847 L7.28367928,17.9496847 Z"></path>
                            <path d="M7.28367928,25.1576725 C6.6267714,25.1576725 6.09424234,24.6251434 6.09424234,23.9682356 C6.09424234,23.3113277 6.6267714,22.7787986 7.28367928,22.7787986 L9.66255315,22.7787986 C10.319461,22.7787986 10.8519901,23.3113277 10.8519901,23.9682356 C10.8519901,24.6251434 10.319461,25.1576725 9.66255315,25.1576725 L7.28367928,25.1576725 Z"></path>
                            <path d="M7.28367928,32.367823 C6.6267714,32.367823 6.09424234,31.8352939 6.09424234,31.178386 C6.09424234,30.5214782 6.6267714,29.9889491 7.28367928,29.9889491 L9.66255315,29.9889491 C10.319461,29.9889491 10.8519901,30.5214782 10.8519901,31.178386 C10.8519901,31.8352939 10.319461,32.367823 9.66255315,32.367823 L7.28367928,32.367823 Z"></path>
                        </g>
                        <path d="M27.6900919,30.6701721 C31.781755,30.6701721 35.1100158,33.9984329 35.1100158,38.0900959 C35.1100158,42.181759 31.781755,45.5100198 27.6900919,45.5100198 C23.5984288,45.5100198 20.270168,42.181759 20.270168,38.0900959 C20.270168,33.9984329 23.5984288,30.6701721 27.6900919,30.6701721 M27.6900919,28.1961432 C22.2251698,28.1961432 17.7961392,32.6251739 17.7961392,38.0900959 C17.7961392,43.5528554 22.2251698,47.981886 27.6900919,47.981886 C33.155014,47.981886 37.5840446,43.5528554 37.5840446,38.0900959 C37.5840446,32.6251739 33.155014,28.1961432 27.6900919,28.1961432" id="Shape" fill="#002EFF" fill-rule="nonzero"></path>
                        <path d="M26.500655,33.3042342 C26.500655,32.6473264 27.033184,32.1147973 27.6900919,32.1147973 C28.3469997,32.1147973 28.8795288,32.6473264 28.8795288,33.3042342 L28.8795288,39.3595495 C28.8795288,40.0164574 28.3469997,40.5489865 27.6900919,40.5489865 C27.033184,40.5489865 26.500655,40.0164574 26.500655,39.3595495 L26.500655,33.3042342 Z" id="Path" fill="#42E8B4"></path>
                        <circle id="Oval" fill="#42E8B4" cx="27.6900919" cy="42.4585734" r="1.29756757"></circle>
                    </g>
                </g>
            </g>
        </g>
    </g>
</svg>