<?xml version="1.0" encoding="UTF-8"?>
<svg width="48px" height="48px" viewBox="0 0 48 48" version="1.1" xmlns="http://www.w3.org/2000/svg" xmlns:xlink="http://www.w3.org/1999/xlink">
    <!-- Generator: Sketch 54.1 (76490) - https://sketchapp.com -->
    <title>Icon/pago-cobro/48px/Reclamos/white@2x</title>
    <desc>Created with Sketch.</desc>
    <defs>
        <path d="M25.0019527,43.0035518 L11.5990041,43.0035518 C8.51172027,43.0035518 6,40.5403302 6,37.4888896 L6,5.51466216 C6,2.46322161 8.51172027,5.32907052e-14 11.5990041,5.32907052e-14 L29.1325519,5.32907052e-14 L29.1331697,0.139915273 L29.2594041,0.0240747637 L36.8778219,8.32605856 L36.9015716,8.32605856 L36.9015716,28.6490415 C40.6937081,30.0341487 43.4002225,33.6731659 43.4002225,37.9452009 C43.4002225,43.4079604 38.9711919,47.836991 33.5062698,47.836991 C29.8903702,47.836991 26.7279724,45.8980104 25.0019527,43.0035518 Z M23.9795804,40.6246779 C23.7402936,39.7725062 23.6123171,38.8737883 23.6123171,37.9452009 C23.6123171,32.4802788 28.0413477,28.0512482 33.5062698,28.0512482 C33.849444,28.0512482 34.1885334,28.0687133 34.5226977,28.1028032 L34.5226977,10.7049324 L26.8009233,10.7049324 L26.7641589,2.37887387 L11.5990041,2.37887387 C9.81526625,2.37887387 8.37887387,3.78753102 8.37887387,5.51466216 L8.37887387,37.4888896 C8.37887387,39.2160208 9.81526625,40.6246779 11.5990041,40.6246779 L23.9795804,40.6246779 Z M29.1476563,3.42070344 L29.1693163,8.32605856 L33.649116,8.32605856 L29.1476563,3.42070344 Z M20.307845,17.8047896 C19.6509372,17.8047896 19.1184081,17.2722606 19.1184081,16.6153527 C19.1184081,15.9584448 19.6509372,15.4259158 20.307845,15.4259158 L29.966073,15.4259158 C30.6229808,15.4259158 31.1555099,15.9584448 31.1555099,16.6153527 C31.1555099,17.2722606 30.6229808,17.8047896 29.966073,17.8047896 L20.307845,17.8047896 Z M20.307845,25.0127775 C19.6509372,25.0127775 19.1184081,24.4802484 19.1184081,23.8233405 C19.1184081,23.1664327 19.6509372,22.6339036 20.307845,22.6339036 L29.966073,22.6339036 C30.6229808,22.6339036 31.1555099,23.1664327 31.1555099,23.8233405 C31.1555099,24.4802484 30.6229808,25.0127775 29.966073,25.0127775 L20.307845,25.0127775 Z M13.0998572,17.8047896 C12.4429493,17.8047896 11.9104203,17.2722606 11.9104203,16.6153527 C11.9104203,15.9584448 12.4429493,15.4259158 13.0998572,15.4259158 L15.4787311,15.4259158 C16.135639,15.4259158 16.668168,15.9584448 16.668168,16.6153527 C16.668168,17.2722606 16.135639,17.8047896 15.4787311,17.8047896 L13.0998572,17.8047896 Z M13.0998572,25.0127775 C12.4429493,25.0127775 11.9104203,24.4802484 11.9104203,23.8233405 C11.9104203,23.1664327 12.4429493,22.6339036 13.0998572,22.6339036 L15.4787311,22.6339036 C16.135639,22.6339036 16.668168,23.1664327 16.668168,23.8233405 C16.668168,24.4802484 16.135639,25.0127775 15.4787311,25.0127775 L13.0998572,25.0127775 Z M13.0998572,32.2229279 C12.4429493,32.2229279 11.9104203,31.6903988 11.9104203,31.033491 C11.9104203,30.3765831 12.4429493,29.8440541 13.0998572,29.8440541 L15.4787311,29.8440541 C16.135639,29.8440541 16.668168,30.3765831 16.668168,31.033491 C16.668168,31.6903988 16.135639,32.2229279 15.4787311,32.2229279 L13.0998572,32.2229279 Z M33.5062698,30.525277 C29.4146068,30.525277 26.0863459,33.8535378 26.0863459,37.9452009 C26.0863459,42.036864 29.4146068,45.3651248 33.5062698,45.3651248 C37.5979329,45.3651248 40.9261937,42.036864 40.9261937,37.9452009 C40.9261937,33.8535378 37.5979329,30.525277 33.5062698,30.525277 Z M32.3168329,33.1593392 C32.3168329,32.5024313 32.849362,31.9699023 33.5062698,31.9699023 C34.1631777,31.9699023 34.6957068,32.5024313 34.6957068,33.1593392 L34.6957068,39.2146545 C34.6957068,39.8715624 34.1631777,40.4040914 33.5062698,40.4040914 C32.849362,40.4040914 32.3168329,39.8715624 32.3168329,39.2146545 L32.3168329,33.1593392 Z M33.5062698,43.6112459 C32.789643,43.6112459 32.2087023,43.0303052 32.2087023,42.3136784 C32.2087023,41.5970516 32.789643,41.0161108 33.5062698,41.0161108 C34.2228966,41.0161108 34.8038374,41.5970516 34.8038374,42.3136784 C34.8038374,43.0303052 34.2228966,43.6112459 33.5062698,43.6112459 Z" id="path-1"></path>
    </defs>
    <g id="Icon/pago-cobro/48px/Reclamos/white" stroke="none" stroke-width="1" fill="none" fill-rule="evenodd">
        <mask id="mask-2" fill="white">
            <use xlink:href="#path-1"></use>
        </mask>
        <g id="icon/letra-R/48px/Reclamos-Copy-2"></g>
        <rect id="🎨-color" fill="#FFFFFF" mask="url(#mask-2)" x="1" y="0" width="48" height="48"></rect>
    </g>
</svg>