<?xml version="1.0" encoding="UTF-8"?>
<svg width="48px" height="48px" viewBox="0 0 48 48" version="1.1" xmlns="http://www.w3.org/2000/svg" xmlns:xlink="http://www.w3.org/1999/xlink">
    <!-- Generator: Sketch 54.1 (76490) - https://sketchapp.com -->
    <title>Icon/pago-cobro/48px/Contrato/black@2x</title>
    <desc>Created with Sketch.</desc>
    <defs>
        <path d="M13.5109483,5.00578199 L13.5109483,3.52680095 C13.5109483,1.57965048 15.0905988,-2.98427949e-13 17.0377493,-2.98427949e-13 L40.1348825,-2.98427949e-13 C42.0820329,-2.98427949e-13 43.6616834,1.57965048 43.6616834,3.52680095 L43.6616834,39.2225773 C43.6616834,41.1697277 42.0820329,42.7493782 40.1348825,42.7493782 L36.1507351,42.7493782 L36.1507351,44.2283592 C36.1507351,46.177785 34.5733599,47.7551602 32.6239341,47.7551602 L9.52680095,47.7551602 C7.57965048,47.7551602 6,46.1755097 6,44.2283592 L6,8.53258294 C6,6.58543247 7.57965048,5.00578199 9.52680095,5.00578199 L13.5109483,5.00578199 Z M16.0138393,5.00578199 L32.6239341,5.00578199 C34.5710846,5.00578199 36.1507351,6.58543247 36.1507351,8.53258294 L36.1507351,40.2464872 L40.1348825,40.2464872 C40.6997244,40.2464872 41.1587924,39.7874192 41.1587924,39.2225773 L41.1587924,3.52680095 C41.1587924,2.961959 40.6997244,2.502891 40.1348825,2.502891 L17.0377493,2.502891 C16.4729073,2.502891 16.0138393,2.961959 16.0138393,3.52680095 L16.0138393,5.00578199 Z M32.6239341,45.2522692 C33.1910515,45.2522692 33.6478441,44.7954766 33.6478441,44.2283592 L33.6478441,8.53258294 C33.6478441,7.96774099 33.1887761,7.50867299 32.6239341,7.50867299 L9.52680095,7.50867299 C8.961959,7.50867299 8.502891,7.96774099 8.502891,8.53258294 L8.502891,44.2283592 C8.502891,44.7932012 8.961959,45.2522692 9.52680095,45.2522692 L32.6239341,45.2522692 Z M12.2208218,15.1697948 C11.5296675,15.1697948 10.9693763,14.6095035 10.9693763,13.9183493 C10.9693763,13.227195 11.5296675,12.6669038 12.2208218,12.6669038 L29.8548265,12.6669038 C30.5459808,12.6669038 31.106272,13.227195 31.106272,13.9183493 C31.106272,14.6095035 30.5459808,15.1697948 29.8548265,15.1697948 L12.2208218,15.1697948 Z M12.2208218,22.603381 C11.5296675,22.603381 10.9693763,22.0430898 10.9693763,21.3519355 C10.9693763,20.6607813 11.5296675,20.10049 12.2208218,20.10049 L29.8548265,20.10049 C30.5459808,20.10049 31.106272,20.6607813 31.106272,21.3519355 C31.106272,22.0430898 30.5459808,22.603381 29.8548265,22.603381 L12.2208218,22.603381 Z M12.2208218,30.2622275 C11.5296675,30.2622275 10.9693763,29.7019362 10.9693763,29.010782 C10.9693763,28.3196278 11.5296675,27.7593365 12.2208218,27.7593365 L29.8548265,27.7593365 C30.5459808,27.7593365 31.106272,28.3196278 31.106272,29.010782 C31.106272,29.7019362 30.5459808,30.2622275 29.8548265,30.2622275 L12.2208218,30.2622275 Z M12.2208218,37.620727 C11.5296675,37.620727 10.9693763,37.0604358 10.9693763,36.3692815 C10.9693763,35.6781273 11.5296675,35.117836 12.2208218,35.117836 L29.8548265,35.117836 C30.5459808,35.117836 31.106272,35.6781273 31.106272,36.3692815 C31.106272,37.0604358 30.5459808,37.620727 29.8548265,37.620727 L12.2208218,37.620727 Z" id="path-1"></path>
    </defs>
    <g id="Icon/pago-cobro/48px/Contrato/black" stroke="none" stroke-width="1" fill="none" fill-rule="evenodd">
        <mask id="mask-2" fill="white">
            <use xlink:href="#path-1"></use>
        </mask>
        <g id="Combined-Shape" fill-rule="nonzero"></g>
        <rect id="🎨-color" fill="#191919" mask="url(#mask-2)" x="1" y="0" width="48" height="48"></rect>
    </g>
</svg>