<?xml version="1.0" encoding="UTF-8"?>
<svg width="48px" height="48px" viewBox="0 0 48 48" version="1.1" xmlns="http://www.w3.org/2000/svg" xmlns:xlink="http://www.w3.org/1999/xlink">
    <!-- Generator: Sketch 54.1 (76490) - https://sketchapp.com -->
    <title>Icon/pago-cobro/48px/Contrato/blue@2x</title>
    <desc>Created with Sketch.</desc>
    <defs>
        <path d="M12.5109483,5.00578199 L12.5109483,3.52680095 C12.5109483,1.57965048 14.0905988,-1.42108547e-14 16.0377493,-1.42108547e-14 L39.1348825,-1.42108547e-14 C41.0820329,-1.42108547e-14 42.6616834,1.57965048 42.6616834,3.52680095 L42.6616834,39.2225773 C42.6616834,41.1697277 41.0820329,42.7493782 39.1348825,42.7493782 L35.1507351,42.7493782 L35.1507351,44.2283592 C35.1507351,46.177785 33.5733599,47.7551602 31.6239341,47.7551602 L8.52680095,47.7551602 C6.57965048,47.7551602 5,46.1755097 5,44.2283592 L5,8.53258294 C5,6.58543247 6.57965048,5.00578199 8.52680095,5.00578199 L12.5109483,5.00578199 Z M15.0138393,5.00578199 L31.6239341,5.00578199 C33.5710846,5.00578199 35.1507351,6.58543247 35.1507351,8.53258294 L35.1507351,40.2464872 L39.1348825,40.2464872 C39.6997244,40.2464872 40.1587924,39.7874192 40.1587924,39.2225773 L40.1587924,3.52680095 C40.1587924,2.961959 39.6997244,2.502891 39.1348825,2.502891 L16.0377493,2.502891 C15.4729073,2.502891 15.0138393,2.961959 15.0138393,3.52680095 L15.0138393,5.00578199 Z M31.6239341,45.2522692 C32.1910515,45.2522692 32.6478441,44.7954766 32.6478441,44.2283592 L32.6478441,8.53258294 C32.6478441,7.96774099 32.1887761,7.50867299 31.6239341,7.50867299 L8.52680095,7.50867299 C7.961959,7.50867299 7.502891,7.96774099 7.502891,8.53258294 L7.502891,44.2283592 C7.502891,44.7932012 7.961959,45.2522692 8.52680095,45.2522692 L31.6239341,45.2522692 Z M11.2208218,15.1697948 C10.5296675,15.1697948 9.9693763,14.6095035 9.9693763,13.9183493 C9.9693763,13.227195 10.5296675,12.6669038 11.2208218,12.6669038 L28.8548265,12.6669038 C29.5459808,12.6669038 30.106272,13.227195 30.106272,13.9183493 C30.106272,14.6095035 29.5459808,15.1697948 28.8548265,15.1697948 L11.2208218,15.1697948 Z M11.2208218,22.603381 C10.5296675,22.603381 9.9693763,22.0430898 9.9693763,21.3519355 C9.9693763,20.6607813 10.5296675,20.10049 11.2208218,20.10049 L28.8548265,20.10049 C29.5459808,20.10049 30.106272,20.6607813 30.106272,21.3519355 C30.106272,22.0430898 29.5459808,22.603381 28.8548265,22.603381 L11.2208218,22.603381 Z M11.2208218,30.2622275 C10.5296675,30.2622275 9.9693763,29.7019362 9.9693763,29.010782 C9.9693763,28.3196278 10.5296675,27.7593365 11.2208218,27.7593365 L28.8548265,27.7593365 C29.5459808,27.7593365 30.106272,28.3196278 30.106272,29.010782 C30.106272,29.7019362 29.5459808,30.2622275 28.8548265,30.2622275 L11.2208218,30.2622275 Z M11.2208218,37.620727 C10.5296675,37.620727 9.9693763,37.0604358 9.9693763,36.3692815 C9.9693763,35.6781273 10.5296675,35.117836 11.2208218,35.117836 L28.8548265,35.117836 C29.5459808,35.117836 30.106272,35.6781273 30.106272,36.3692815 C30.106272,37.0604358 29.5459808,37.620727 28.8548265,37.620727 L11.2208218,37.620727 Z" id="path-1"></path>
    </defs>
    <g id="Icon/pago-cobro/48px/Contrato/blue" stroke="none" stroke-width="1" fill="none" fill-rule="evenodd">
        <mask id="mask-2" fill="white">
            <use xlink:href="#path-1"></use>
        </mask>
        <g id="Combined-Shape" fill-rule="nonzero"></g>
        <rect id="🎨-color" fill="#002EFF" mask="url(#mask-2)" x="0" y="0" width="48" height="48"></rect>
    </g>
</svg>