<?xml version="1.0" encoding="UTF-8"?>
<svg width="48px" height="48px" viewBox="0 0 48 48" version="1.1" xmlns="http://www.w3.org/2000/svg" xmlns:xlink="http://www.w3.org/1999/xlink">
    <!-- Generator: Sketch 54.1 (76490) - https://sketchapp.com -->
    <title>Icon-bicolor/pago-cobro/48px/Contrato/green-blue@2x</title>
    <desc>Created with Sketch.</desc>
    <g id="Icon-bicolor/pago-cobro/48px/Contrato/green-blue" stroke="none" stroke-width="1" fill="none" fill-rule="evenodd">
        <g id="Group" transform="translate(5.000000, 0.000000)">
            <g id="Contrato">
                <g id="Group">
                    <g>
                        <path d="M26.7991365,45.4411237 C27.3662538,45.4411237 27.8230464,44.9843311 27.8230464,44.4172137 L27.8230464,8.72143744 C27.8230464,8.15659549 27.3639785,7.69752749 26.7991365,7.69752749 L3.70200332,7.69752749 C3.13716137,7.69752749 2.67809336,8.15659549 2.67809336,8.72143744 L2.67809336,44.4172137 C2.67809336,44.9820557 3.13716137,45.4411237 3.70200332,45.4411237 L26.7991365,45.4411237 Z M26.7991365,47.9440147 L3.70200332,47.9440147 C1.75485285,47.9440147 0.17520237,46.3643642 0.17520237,44.4172137 L0.17520237,8.72143744 C0.17520237,6.77428697 1.75485285,5.19463649 3.70200332,5.19463649 L26.7991365,5.19463649 C28.7462869,5.19463649 30.3259374,6.77428697 30.3259374,8.72143744 L30.3259374,44.4172137 C30.3259374,46.3666395 28.7485623,47.9440147 26.7991365,47.9440147 Z" id="Path" fill="#002EFF" fill-rule="nonzero"></path>
                        <path d="M10.1890417,6.48476303 L7.68615071,6.48476303 L7.68615071,3.71565545 C7.68615071,1.76850498 9.26580119,0.188854502 11.2129517,0.188854502 L34.3100848,0.188854502 C36.2572353,0.188854502 37.8368858,1.76850498 37.8368858,3.71565545 L37.8368858,39.4114318 C37.8368858,41.3585822 36.2572353,42.9382327 34.3100848,42.9382327 L29.0380863,42.9382327 L29.0380863,40.4353417 L34.3100848,40.4353417 C34.8749268,40.4353417 35.3339948,39.9762737 35.3339948,39.4114318 L35.3339948,3.71565545 C35.3339948,3.1508135 34.8749268,2.6917455 34.3100848,2.6917455 L11.2129517,2.6917455 C10.6481097,2.6917455 10.1890417,3.1508135 10.1890417,3.71565545 L10.1890417,6.48476303 Z" id="Path" fill="#002EFF"></path>
                        <path d="M6.39602417,15.3586493 C5.70486991,15.3586493 5.14457867,14.798358 5.14457867,14.1072038 C5.14457867,13.4160495 5.70486991,12.8557583 6.39602417,12.8557583 L24.0300289,12.8557583 C24.7211831,12.8557583 25.2814744,13.4160495 25.2814744,14.1072038 C25.2814744,14.798358 24.7211831,15.3586493 24.0300289,15.3586493 L6.39602417,15.3586493 Z" id="Path" fill="#42E8B4"></path>
                        <path d="M6.39602417,22.7922355 C5.70486991,22.7922355 5.14457867,22.2319443 5.14457867,21.54079 C5.14457867,20.8496358 5.70486991,20.2893445 6.39602417,20.2893445 L24.0300289,20.2893445 C24.7211831,20.2893445 25.2814744,20.8496358 25.2814744,21.54079 C25.2814744,22.2319443 24.7211831,22.7922355 24.0300289,22.7922355 L6.39602417,22.7922355 Z" id="Path" fill="#002EFF"></path>
                        <path d="M6.39602417,30.451082 C5.70486991,30.451082 5.14457867,29.8907907 5.14457867,29.1996365 C5.14457867,28.5084823 5.70486991,27.948191 6.39602417,27.948191 L24.0300289,27.948191 C24.7211831,27.948191 25.2814744,28.5084823 25.2814744,29.1996365 C25.2814744,29.8907907 24.7211831,30.451082 24.0300289,30.451082 L6.39602417,30.451082 Z" id="Path" fill="#002EFF"></path>
                        <path d="M6.39602417,37.8095815 C5.70486991,37.8095815 5.14457867,37.2492903 5.14457867,36.558136 C5.14457867,35.8669818 5.70486991,35.3066905 6.39602417,35.3066905 L24.0300289,35.3066905 C24.7211831,35.3066905 25.2814744,35.8669818 25.2814744,36.558136 C25.2814744,37.2492903 24.7211831,37.8095815 24.0300289,37.8095815 L6.39602417,37.8095815 Z" id="Path" fill="#002EFF"></path>
                    </g>
                </g>
            </g>
        </g>
    </g>
</svg>