<svg width="36" height="37" viewBox="0 0 36 37" fill="none" xmlns="http://www.w3.org/2000/svg">
<path fill-rule="evenodd" clip-rule="evenodd" d="M18 14C14.6863 14 12 16.6863 12 20C12 22.2222 13.2079 24.1604 15 25.1971V28C15 29.6569 16.3431 31 18 31C19.6569 31 21 29.6569 21 28V25.1971C22.7921 24.1604 24 22.2222 24 20C24 16.6863 21.3137 14 18 14ZM14 20C14 17.7909 15.7909 16 18 16C20.2091 16 22 17.7909 22 20C22 21.6387 21.0144 23.0494 19.5996 23.6676L19 23.9296V28C19 28.5523 18.5523 29 18 29C17.4477 29 17 28.5523 17 28V23.9296L16.4004 23.6676C14.9856 23.0494 14 21.6387 14 20Z" fill="#10069F"/>
<path fill-rule="evenodd" clip-rule="evenodd" d="M9 3V10.0307L8.99769 10.0307C6.78946 10.0319 5 11.8224 5 14.0307V32.0186C5 34.2277 6.79086 36.0186 9 36.0186H27C29.2091 36.0186 31 34.2277 31 32.0186V14.0203C31 11.811 29.209 10.0203 27 10.0203V3C27 1.34315 25.6569 0 24 0H12C10.3431 0 9 1.34315 9 3ZM12 2C11.4477 2 11 2.44772 11 3V10.0295L25 10.0214V3C25 2.44772 24.5523 2 24 2H12ZM29 14.0203C29 12.9153 28.1039 12.0196 26.9988 12.0203L8.99885 12.0307C7.89473 12.0313 7 12.9265 7 14.0307V32.0186C7 33.1231 7.89543 34.0186 9 34.0186H27C28.1046 34.0186 29 33.1231 29 32.0186V14.0203Z" fill="#10069F"/>
</svg>
