<?xml version="1.0" encoding="UTF-8"?>
<svg width="48px" height="48px" viewBox="0 0 48 48" version="1.1" xmlns="http://www.w3.org/2000/svg" xmlns:xlink="http://www.w3.org/1999/xlink">
    <!-- Generator: Sketch 54.1 (76490) - https://sketchapp.com -->
    <title>Icon/pago-cobro/48px/Tienda-entel/black@2x</title>
    <desc>Created with Sketch.</desc>
    <defs>
        <path d="M46.0140784,19.2683949 L46.0140784,40.8681995 C46.0140784,43.4272982 43.926406,45.5149705 41.3673074,45.5149705 L8.58369131,45.5149705 C6.02459261,45.5149705 3.93692032,43.4272982 3.93692032,40.8681995 L3.93692032,19.4244518 C3.73552285,19.3089693 3.53967173,19.1806924 3.35056199,19.0397197 C1.56373569,17.7077219 0.6901605,15.4756556 1.0995191,13.2859119 C1.10296739,13.2674663 1.10677081,13.2491769 1.11092099,13.2310493 C1.11584948,13.2013864 1.11932391,13.1808349 1.123297,13.1583207 C1.13059619,13.1169587 1.13794639,13.0786246 1.14468845,13.0472802 L2.46497857,6.69946077 C3.02569875,3.97364763 5.42048335,2.01297736 8.21055659,2 L37.0837208,2 L41.5330757,2.00000092 C44.3232485,2.00324154 46.7278873,3.96399106 47.2914919,6.69456185 L48.6105768,13.0491632 C48.6108945,13.0506448 48.610948,13.0508803 48.6142368,13.0650285 C48.6350758,13.1539851 48.6419216,13.185353 48.6532269,13.2567538 C48.6649187,13.3305974 48.6725333,13.4053249 48.6749465,13.4835873 C48.9859067,15.6075634 48.1060568,17.7376632 46.3736516,19.0219781 C46.2562739,19.1089959 46.1363216,19.1911427 46.0140784,19.2683949 Z M6.67324157,20.1949676 L6.67324157,40.8681995 C6.67324157,41.9160697 7.53582109,42.7786492 8.58369131,42.7786492 L41.3673074,42.7786492 C42.4151776,42.7786492 43.2777571,41.9160697 43.2777571,40.8681995 L43.2777571,20.1588394 C42.2449991,20.2269605 41.193095,20.0211385 40.2351147,19.5319235 C39.518188,19.1658084 38.8989108,18.6639348 38.4019448,18.0671183 C37.322329,19.3480056 35.7060525,20.1617104 33.8996379,20.1617104 C32.0847759,20.1617104 30.4618346,19.3403775 29.3822203,18.0491182 C28.302606,19.3403775 26.6796647,20.1617104 24.8648027,20.1617104 C23.0499407,20.1617104 21.4269993,19.3403775 20.3473851,18.0491182 C19.2677708,19.3403775 17.6448295,20.1617104 15.8299675,20.1617104 C14.030112,20.1617104 12.4190164,19.3539041 11.3394421,18.0810527 C10.8434084,18.6805289 10.2243128,19.1849377 9.50679711,19.5531056 C8.61391134,20.0112584 7.63870405,20.22268 6.67324157,20.1949676 Z M45.9309279,13.6030467 L44.6119734,7.24920823 C44.3102365,5.78734536 43.0233999,4.73805493 41.5314866,4.73632124 L12.683198,4.73632124 L8.21692747,4.73630641 C6.72687789,4.74324494 5.44513415,5.79264072 5.14457344,7.25373171 L3.82197326,13.6125518 C3.82125104,13.6159222 3.81992555,13.6228351 3.81798118,13.6338532 C3.81581728,13.6461154 3.81403878,13.6566927 3.80829938,13.6912158 C3.801954,13.7292881 3.79760063,13.7545682 3.79215675,13.7839652 C3.7881837,13.8054196 3.78373016,13.8266638 3.77880929,13.8476885 C3.58765737,14.9916259 4.05207653,16.1497135 4.98596569,16.8458855 C5.93521573,17.5535082 7.20404774,17.6591638 8.25760104,17.1185701 C9.29135776,16.5881342 9.94097055,15.5251845 9.94505729,14.3657297 C9.94461244,14.3359171 9.94438923,14.3060507 9.94438923,14.2761321 C9.94438923,12.4678022 12.6488735,12.4441496 12.6805012,14.2522029 C12.6810255,14.282173 12.6813199,14.3121119 12.6813858,14.3420176 C12.7164514,16.0510076 14.1125696,17.4253891 15.8299675,17.4253891 C17.5693807,17.4253891 18.9792245,16.0155453 18.9792245,14.2761321 C18.9792245,12.451918 21.7155457,12.451918 21.7155457,14.2761321 C21.7155457,16.0155453 23.1253895,17.4253891 24.8648027,17.4253891 C26.6042159,17.4253891 28.0140597,16.0155453 28.0140597,14.2761321 C28.0140597,12.451918 30.7503809,12.451918 30.7503809,14.2761321 C30.7503809,16.0155453 32.1602247,17.4253891 33.8996379,17.4253891 C35.6243275,17.4253891 37.0250036,16.039312 37.0485924,14.3202312 C37.0486218,14.3002045 37.0487539,14.2801634 37.0489887,14.2601079 C37.0702295,12.44667 39.7852162,12.4625698 39.7852162,14.2761321 C39.7852162,14.2961361 39.7851164,14.3161167 39.7849172,14.3360735 C39.7876811,15.4985017 40.4408509,16.5645153 41.4795985,17.0949759 C42.5313912,17.6320983 43.7955596,17.526992 44.7440564,16.823826 C45.692287,16.1208571 46.1600098,14.9414245 45.951092,13.7794278 C45.9404682,13.7203383 45.9338102,13.6614535 45.9309279,13.6030467 Z M30.2628182,24.0622119 C30.2628182,24.0622119 33.5115778,26.0423135 33.5115778,30.4701788 C33.5115778,34.9328699 30.1533654,36.9577477 30.1533654,36.9577477 C29.9021214,37.1070016 29.5090861,37.0846135 29.2827177,36.9005337 L27.8548556,35.7487912 C27.6284872,35.5647114 27.6384374,35.2761539 27.8747561,35.1045119 C27.8747561,35.1045119 30.2180421,33.4079927 30.2180421,30.4602285 C30.2180421,27.3532601 27.9941592,25.907985 27.9941592,25.907985 C27.7478903,25.7462933 27.7279898,25.467686 27.9543581,25.2836062 L29.3946581,24.1144508 C29.6210265,23.9328585 30.0115742,23.9079829 30.2628182,24.0622119 Z M23.6508711,27.656743 C23.2478856,26.810971 22.4120638,26.1816171 21.1409182,26.1816171 C19.8722602,26.1816171 19.0364385,26.810971 18.6309654,27.656743 C18.3996219,28.176644 18.3125571,28.559729 18.2827063,29.1865953 L23.9966426,29.1865953 C23.9692794,28.5572415 23.8822146,28.1741565 23.6508711,27.656743 Z M18.6707664,31.6144585 C18.6707664,31.6144585 18.2951442,31.5796326 18.2951442,31.8781404 C18.2951442,33.5746596 19.5712649,34.7836161 21.5737545,34.7836161 C23.0613182,34.7836161 23.6956473,34.4278943 24.5961457,33.7612269 C24.8051012,33.6045104 25.0314695,33.4602316 25.2006239,33.6443114 C25.3200271,33.7711772 26.8971431,35.2139648 26.8971431,35.2139648 C27.0936607,35.3980446 27.0414219,35.6169503 26.8299789,35.7935674 C26.6185359,35.9701845 24.2603245,37.7861067 21.5463913,37.7861067 C17.9991239,37.7861067 14.5936478,36.2562544 14.5936478,30.497542 C14.5936478,25.8532585 17.2478794,23.2338528 21.1434058,23.2338528 C25.3274898,23.2338528 27.6931638,26.1293782 27.6931638,30.0323674 L27.6931638,31.0199306 C27.6931638,31.4229161 27.3623177,31.6169461 27.0911732,31.6169461 L18.6707664,31.6169461 L18.6707664,31.6144585 Z" id="path-1"></path>
    </defs>
    <g id="Icon/pago-cobro/48px/Tienda-entel/black" stroke="none" stroke-width="1" fill="none" fill-rule="evenodd">
        <mask id="mask-2" fill="white">
            <use xlink:href="#path-1"></use>
        </mask>
        <g id="Combined-Shape"></g>
        <rect id="🎨-color" fill="#191919" mask="url(#mask-2)" x="1" y="0" width="48" height="48"></rect>
    </g>
</svg>