<?xml version="1.0" encoding="UTF-8"?>
<svg width="48px" height="48px" viewBox="0 0 48 48" version="1.1" xmlns="http://www.w3.org/2000/svg" xmlns:xlink="http://www.w3.org/1999/xlink">
    <!-- Generator: Sketch 54.1 (76490) - https://sketchapp.com -->
    <title>Icon/pago-cobro/48px/Tienda-entel/blue@2x</title>
    <desc>Created with Sketch.</desc>
    <defs>
        <path d="M45.0140784,19.2683949 L45.0140784,40.8681995 C45.0140784,43.4272982 42.926406,45.5149705 40.3673074,45.5149705 L7.58369131,45.5149705 C5.02459261,45.5149705 2.93692032,43.4272982 2.93692032,40.8681995 L2.93692032,19.4244518 C2.73552285,19.3089693 2.53967173,19.1806924 2.35056199,19.0397197 C0.563735694,17.7077219 -0.3098395,15.4756556 0.099519101,13.2859119 C0.10296739,13.2674663 0.106770814,13.2491769 0.110920986,13.2310493 C0.115849475,13.2013864 0.119323912,13.1808349 0.123297004,13.1583207 C0.130596193,13.1169587 0.137946387,13.0786246 0.144688446,13.0472802 L1.46497857,6.69946077 C2.02569875,3.97364763 4.42048335,2.01297736 7.21055659,2 L36.0837208,2 L40.5330757,2.00000092 C43.3232485,2.00324154 45.7278873,3.96399106 46.2914919,6.69456185 L47.6105768,13.0491632 C47.6108945,13.0506448 47.610948,13.0508803 47.6142368,13.0650285 C47.6350758,13.1539851 47.6419216,13.185353 47.6532269,13.2567538 C47.6649187,13.3305974 47.6725333,13.4053249 47.6749465,13.4835873 C47.9859067,15.6075634 47.1060568,17.7376632 45.3736516,19.0219781 C45.2562739,19.1089959 45.1363216,19.1911427 45.0140784,19.2683949 Z M5.67324157,20.1949676 L5.67324157,40.8681995 C5.67324157,41.9160697 6.53582109,42.7786492 7.58369131,42.7786492 L40.3673074,42.7786492 C41.4151776,42.7786492 42.2777571,41.9160697 42.2777571,40.8681995 L42.2777571,20.1588394 C41.2449991,20.2269605 40.193095,20.0211385 39.2351147,19.5319235 C38.518188,19.1658084 37.8989108,18.6639348 37.4019448,18.0671183 C36.322329,19.3480056 34.7060525,20.1617104 32.8996379,20.1617104 C31.0847759,20.1617104 29.4618346,19.3403775 28.3822203,18.0491182 C27.302606,19.3403775 25.6796647,20.1617104 23.8648027,20.1617104 C22.0499407,20.1617104 20.4269993,19.3403775 19.3473851,18.0491182 C18.2677708,19.3403775 16.6448295,20.1617104 14.8299675,20.1617104 C13.030112,20.1617104 11.4190164,19.3539041 10.3394421,18.0810527 C9.84340837,18.6805289 9.22431281,19.1849377 8.50679711,19.5531056 C7.61391134,20.0112584 6.63870405,20.22268 5.67324157,20.1949676 Z M44.9309279,13.6030467 L43.6119734,7.24920823 C43.3102365,5.78734536 42.0233999,4.73805493 40.5314866,4.73632124 L11.683198,4.73632124 L7.21692747,4.73630641 C5.72687789,4.74324494 4.44513415,5.79264072 4.14457344,7.25373171 L2.82197326,13.6125518 C2.82125104,13.6159222 2.81992555,13.6228351 2.81798118,13.6338532 C2.81581728,13.6461154 2.81403878,13.6566927 2.80829938,13.6912158 C2.801954,13.7292881 2.79760063,13.7545682 2.79215675,13.7839652 C2.7881837,13.8054196 2.78373016,13.8266638 2.77880929,13.8476885 C2.58765737,14.9916259 3.05207653,16.1497135 3.98596569,16.8458855 C4.93521573,17.5535082 6.20404774,17.6591638 7.25760104,17.1185701 C8.29135776,16.5881342 8.94097055,15.5251845 8.94505729,14.3657297 C8.94461244,14.3359171 8.94438923,14.3060507 8.94438923,14.2761321 C8.94438923,12.4678022 11.6488735,12.4441496 11.6805012,14.2522029 C11.6810255,14.282173 11.6813199,14.3121119 11.6813858,14.3420176 C11.7164514,16.0510076 13.1125696,17.4253891 14.8299675,17.4253891 C16.5693807,17.4253891 17.9792245,16.0155453 17.9792245,14.2761321 C17.9792245,12.451918 20.7155457,12.451918 20.7155457,14.2761321 C20.7155457,16.0155453 22.1253895,17.4253891 23.8648027,17.4253891 C25.6042159,17.4253891 27.0140597,16.0155453 27.0140597,14.2761321 C27.0140597,12.451918 29.7503809,12.451918 29.7503809,14.2761321 C29.7503809,16.0155453 31.1602247,17.4253891 32.8996379,17.4253891 C34.6243275,17.4253891 36.0250036,16.039312 36.0485924,14.3202312 C36.0486218,14.3002045 36.0487539,14.2801634 36.0489887,14.2601079 C36.0702295,12.44667 38.7852162,12.4625698 38.7852162,14.2761321 C38.7852162,14.2961361 38.7851164,14.3161167 38.7849172,14.3360735 C38.7876811,15.4985017 39.4408509,16.5645153 40.4795985,17.0949759 C41.5313912,17.6320983 42.7955596,17.526992 43.7440564,16.823826 C44.692287,16.1208571 45.1600098,14.9414245 44.951092,13.7794278 C44.9404682,13.7203383 44.9338102,13.6614535 44.9309279,13.6030467 Z M29.2628182,24.0622119 C29.2628182,24.0622119 32.5115778,26.0423135 32.5115778,30.4701788 C32.5115778,34.9328699 29.1533654,36.9577477 29.1533654,36.9577477 C28.9021214,37.1070016 28.5090861,37.0846135 28.2827177,36.9005337 L26.8548556,35.7487912 C26.6284872,35.5647114 26.6384374,35.2761539 26.8747561,35.1045119 C26.8747561,35.1045119 29.2180421,33.4079927 29.2180421,30.4602285 C29.2180421,27.3532601 26.9941592,25.907985 26.9941592,25.907985 C26.7478903,25.7462933 26.7279898,25.467686 26.9543581,25.2836062 L28.3946581,24.1144508 C28.6210265,23.9328585 29.0115742,23.9079829 29.2628182,24.0622119 Z M22.6508711,27.656743 C22.2478856,26.810971 21.4120638,26.1816171 20.1409182,26.1816171 C18.8722602,26.1816171 18.0364385,26.810971 17.6309654,27.656743 C17.3996219,28.176644 17.3125571,28.559729 17.2827063,29.1865953 L22.9966426,29.1865953 C22.9692794,28.5572415 22.8822146,28.1741565 22.6508711,27.656743 Z M17.6707664,31.6144585 C17.6707664,31.6144585 17.2951442,31.5796326 17.2951442,31.8781404 C17.2951442,33.5746596 18.5712649,34.7836161 20.5737545,34.7836161 C22.0613182,34.7836161 22.6956473,34.4278943 23.5961457,33.7612269 C23.8051012,33.6045104 24.0314695,33.4602316 24.2006239,33.6443114 C24.3200271,33.7711772 25.8971431,35.2139648 25.8971431,35.2139648 C26.0936607,35.3980446 26.0414219,35.6169503 25.8299789,35.7935674 C25.6185359,35.9701845 23.2603245,37.7861067 20.5463913,37.7861067 C16.9991239,37.7861067 13.5936478,36.2562544 13.5936478,30.497542 C13.5936478,25.8532585 16.2478794,23.2338528 20.1434058,23.2338528 C24.3274898,23.2338528 26.6931638,26.1293782 26.6931638,30.0323674 L26.6931638,31.0199306 C26.6931638,31.4229161 26.3623177,31.6169461 26.0911732,31.6169461 L17.6707664,31.6169461 L17.6707664,31.6144585 Z" id="path-1"></path>
    </defs>
    <g id="Icon/pago-cobro/48px/Tienda-entel/blue" stroke="none" stroke-width="1" fill="none" fill-rule="evenodd">
        <mask id="mask-2" fill="white">
            <use xlink:href="#path-1"></use>
        </mask>
        <g id="Combined-Shape"></g>
        <rect id="🎨-color" fill="#002EFF" mask="url(#mask-2)" x="0" y="0" width="48" height="48"></rect>
    </g>
</svg>