<?xml version="1.0" encoding="UTF-8"?>
<svg width="48px" height="48px" viewBox="0 0 48 48" version="1.1" xmlns="http://www.w3.org/2000/svg" xmlns:xlink="http://www.w3.org/1999/xlink">
    <!-- Generator: Sketch 54.1 (76490) - https://sketchapp.com -->
    <title>Icon-bicolor/pago-cobro/48px/Tienda-entel/green-blue@2x</title>
    <desc>Created with Sketch.</desc>
    <g id="Icon-bicolor/pago-cobro/48px/Tienda-entel/green-blue" stroke="none" stroke-width="1" fill="none" fill-rule="evenodd">
        <g id="Group" transform="translate(-0.005000, 2.109430)">
            <g id="tienda-entel">
                <g id="Group">
                    <g>
                        <path d="M42.3657155,16.7885746 L45.1020368,16.7885746 L45.1020368,39.0099907 C45.1020368,41.5690893 43.0143645,43.6567617 40.4552658,43.6567617 L7.67164974,43.6567617 C5.11255104,43.6567617 3.02487876,41.5690893 3.02487876,39.0099907 L3.02487876,17.0622067 L5.7612,17.0622067 L5.7612,39.0099907 C5.7612,40.0578609 6.62377953,40.9204404 7.67164974,40.9204404 L40.4552658,40.9204404 C41.503136,40.9204404 42.3657155,40.0578609 42.3657155,39.0099907 L42.3657155,16.7885746 Z" id="Path" fill="#002EFF"></path>
                        <g id="SVGID_79_-link" fill="#42E8B4" fill-rule="nonzero">
                            <path d="M14.9179259,15.5671803 C16.6573391,15.5671803 18.0671829,14.1573365 18.0671829,12.4179233 C18.0671829,10.5937092 20.8035041,10.5937092 20.8035041,12.4179233 C20.8035041,14.1573365 22.2133479,15.5671803 23.9527611,15.5671803 C25.6921744,15.5671803 27.1020181,14.1573365 27.1020181,12.4179233 C27.1020181,10.5937092 29.8383394,10.5937092 29.8383394,12.4179233 C29.8383394,14.1573365 31.2481831,15.5671803 32.9875964,15.5671803 C34.712286,15.5671803 36.112962,14.1811032 36.1365509,12.4620224 C36.1365802,12.4419957 36.1367123,12.4219546 36.1369471,12.4018991 C36.158188,10.5884612 38.8731746,10.604361 38.8731746,12.4179233 C38.8731746,12.4379273 38.8730749,12.4579079 38.8728756,12.4778647 C38.8756395,13.6402929 39.5288094,14.7063065 40.567557,15.2367671 C41.6193496,15.7738895 42.8835181,15.6687832 43.8320148,14.9656172 C44.7802454,14.2626483 45.2479683,13.0832156 45.0390504,11.921219 C44.9053411,11.1775291 45.3998279,10.4662564 46.1435177,10.3325469 C46.8872078,10.1988374 47.5984804,10.6933243 47.73219,11.4370142 C48.1251499,13.6226515 47.2452383,15.8414803 45.46161,17.1637693 C43.6782331,18.4858722 41.3005495,18.6835591 39.3230731,17.6737147 C38.6061465,17.3075996 37.9868692,16.805726 37.4899033,16.2089095 C36.4102875,17.4897968 34.7940109,18.3035016 32.9875964,18.3035016 C31.1727343,18.3035016 29.5497931,17.4821687 28.4701788,16.1909094 C27.3905645,17.4821687 25.7676232,18.3035016 23.9527611,18.3035016 C22.1378991,18.3035016 20.5149578,17.4821687 19.4353435,16.1909094 C18.3557293,17.4821687 16.7327879,18.3035016 14.9179259,18.3035016 C13.1180704,18.3035016 11.5069749,17.4956952 10.4274005,16.2228439 C9.93136681,16.8223201 9.31227124,17.3267289 8.59475555,17.6948968 C6.61263133,18.7119539 4.22482746,18.5131216 2.43852043,17.1815109 C0.651694128,15.8495131 -0.221881066,13.6174468 0.187477535,11.4277031 C0.326329343,10.6849562 1.04100636,10.1954024 1.78375334,10.3342542 C2.52650031,10.473106 3.01605407,11.187783 2.87720226,11.93053 C2.6597953,13.0934847 3.12398908,14.2795433 4.07392412,14.9876767 C5.02317416,15.6952994 6.29200617,15.800955 7.34555948,15.2603613 C8.3793162,14.7299254 9.02892898,13.6669757 9.03301573,12.5075209 C9.03257088,12.4777083 9.03234767,12.4478419 9.03234767,12.4179233 C9.03234767,10.6095934 11.7368319,10.5859408 11.7684596,12.3939941 C11.7689839,12.4239641 11.7692783,12.4539031 11.7693443,12.4838088 C11.8044098,14.1927988 13.2005281,15.5671803 14.9179259,15.5671803 Z M45.0211419,11.7557039 L43.6999319,5.39099942 C43.398195,3.92913655 42.1113583,2.87984613 40.6194451,2.87811244 L11.7711565,2.87811244 L7.3048859,2.8780976 C5.81483632,2.88503613 4.53309258,3.93443191 4.23253187,5.3955229 L2.90993169,11.754343 C2.90920948,11.7577134 2.90788399,11.7646263 2.90593961,11.7756444 C2.90377571,11.7879065 2.90199722,11.7984839 2.89625782,11.833007 C2.88991243,11.8710793 2.88555907,11.8963594 2.88011518,11.9257564 C2.74252594,12.6687383 2.028682,13.159506 1.28570011,13.0219167 C0.542718214,12.8843275 0.0519505016,12.1704836 0.189539741,11.4275017 C0.191232116,11.4183628 0.193336153,11.4061447 0.197167169,11.3831586 C0.203036402,11.3477535 0.206837657,11.325146 0.211255438,11.3001119 C0.218554627,11.2587499 0.225904821,11.2204158 0.23264688,11.1890714 L1.552937,4.84125196 C2.11365718,2.11543882 4.50844179,0.154768551 7.29851503,0.141791192 L36.1716793,0.141791192 L40.6210341,0.141792115 C43.4112069,0.145032732 45.8158457,2.10578225 46.3794503,4.83635305 L47.6985352,11.1909544 C47.6988529,11.192436 47.6989064,11.1926715 47.7021952,11.2068197 C47.7230343,11.2957763 47.7298801,11.3271442 47.7411853,11.398545 C47.7555246,11.4891092 47.7637311,11.581003 47.7637311,11.6791166 C47.7637311,12.4347308 47.1511847,13.0472772 46.3955705,13.0472772 C45.6852563,13.0472772 45.1013699,12.505975 45.0339133,11.8133727 C45.0297345,11.7952768 45.0262223,11.779515 45.0211419,11.7557039 Z" id="SVGID_79_"></path>
                        </g>
                        <g id="SVGID_81_" transform="translate(26.616943, 21.890570)" fill="#002EFF">
                            <path d="M2.73383368,0.313433161 C2.48258964,0.159204145 2.09204197,0.184079793 1.86567358,0.365672021 L0.425373575,1.53482746 C0.199005181,1.71890725 0.218905699,1.99751451 0.465174611,2.15920622 C0.465174611,2.15920622 2.68905751,3.60448135 2.68905751,6.71144974 C2.68905751,9.65921399 0.345771503,11.3557332 0.345771503,11.3557332 C0.10945285,11.5273751 0.0995025907,11.8159326 0.325870984,12.0000124 L1.75373316,13.1517549 C1.98010155,13.3358347 2.37313679,13.3582228 2.62438083,13.2089689 C2.62438083,13.2089689 5.98259326,11.1840912 5.98259326,6.7214 C5.98259326,2.29353472 2.73383368,0.313433161 2.73383368,0.313433161" id="Path"></path>
                        </g>
                        <g id="SVGID_83_" transform="translate(13.681606, 21.144301)" fill="#002EFF" fill-rule="nonzero">
                            <path d="M9.05722332,4.65423368 C8.65423782,3.80846166 7.81841606,3.17910777 6.54727047,3.17910777 C5.27861244,3.17910777 4.44279067,3.80846166 4.03731762,4.65423368 C3.80597409,5.17413472 3.71890933,5.55721969 3.68905855,6.18408601 L9.40299482,6.18408601 C9.37563161,5.55473212 9.28856684,5.17164715 9.05722332,4.65423368 Z M4.07711865,8.61194922 C4.07711865,8.61194922 3.70149637,8.57712332 3.70149637,8.87563109 C3.70149637,10.5721503 4.9776171,11.7811067 6.98010674,11.7811067 C8.46767047,11.7811067 9.10199948,11.425385 10.0024979,10.7587176 C10.2114534,10.602001 10.4378218,10.4577223 10.6069762,10.6418021 C10.7263793,10.7686679 12.3034953,12.2114554 12.3034953,12.2114554 C12.500013,12.3955352 12.4477741,12.6144409 12.2363311,12.791058 C12.0248881,12.9676751 9.66667668,14.7835974 6.95274352,14.7835974 C3.40547617,14.7835974 0,13.2537451 0,7.49503264 C0,2.85074922 2.65423161,0.231343523 6.54975803,0.231343523 C10.733842,0.231343523 13.0995161,3.12686891 13.0995161,7.02985803 L13.0995161,8.01742124 C13.0995161,8.42040674 12.7686699,8.61443679 12.4975254,8.61443679 L4.07711865,8.61443679 L4.07711865,8.61194922 Z" id="Shape"></path>
                        </g>
                    </g>
                </g>
            </g>
        </g>
    </g>
</svg>