<?xml version="1.0" encoding="UTF-8"?>
<svg width="48px" height="48px" viewBox="0 0 48 48" version="1.1" xmlns="http://www.w3.org/2000/svg" xmlns:xlink="http://www.w3.org/1999/xlink">
    <!-- Generator: Sketch 54.1 (76490) - https://sketchapp.com -->
    <title>Icon/pago-cobro/48px/Tienda-entel/white@2x</title>
    <desc>Created with Sketch.</desc>
    <defs>
        <path d="M45.0970368,19.5196161 L45.0970368,41.1194207 C45.0970368,43.6785194 43.0093645,45.7661917 40.4502658,45.7661917 L7.66664974,45.7661917 C5.10755104,45.7661917 3.01987876,43.6785194 3.01987876,41.1194207 L3.01987876,19.6756731 C2.81848129,19.5601906 2.62263017,19.4319137 2.43352043,19.290941 C0.646694128,17.9589432 -0.226881066,15.7268768 0.182477535,13.5371332 C0.321329343,12.7943862 1.03600636,12.3048325 1.77875334,12.4436843 C2.52150031,12.5825361 3.01105407,13.2972131 2.87220226,14.0399601 C2.6547953,15.2029148 3.11898908,16.3889733 4.06892412,17.0971067 C5.01817416,17.8047295 6.28700617,17.9103851 7.34055948,17.3697913 C8.3743162,16.8393555 9.02392898,15.7764058 9.02801573,14.616951 C9.02757088,14.5871383 9.02734767,14.5572719 9.02734767,14.5273534 C9.02734767,12.7190235 11.7318319,12.6953709 11.7634596,14.5034242 C11.7639839,14.5333942 11.7642783,14.5633331 11.7643443,14.5932389 C11.7994098,16.3022289 13.1955281,17.6766104 14.9129259,17.6766104 C16.6523391,17.6766104 18.0621829,16.2667666 18.0621829,14.5273534 C18.0621829,12.7031392 20.7985041,12.7031392 20.7985041,14.5273534 C20.7985041,16.2667666 22.2083479,17.6766104 23.9477611,17.6766104 C25.6871744,17.6766104 27.0970181,16.2667666 27.0970181,14.5273534 C27.0970181,12.7031392 29.8333394,12.7031392 29.8333394,14.5273534 C29.8333394,16.2667666 31.2431831,17.6766104 32.9825964,17.6766104 C34.707286,17.6766104 36.107962,16.2905332 36.1315509,14.5714524 C36.1315802,14.5514257 36.1317123,14.5313846 36.1319471,14.5113291 C36.153188,12.6978913 38.8681746,12.7137911 38.8681746,14.5273534 C38.8681746,14.5473573 38.8680749,14.5673379 38.8678756,14.5872948 C38.8706395,15.7497229 39.5238094,16.8157366 40.562557,17.3461972 C41.6143496,17.8833195 42.8785181,17.7782132 43.8270148,17.0750473 C44.7752454,16.3720783 45.2429683,15.1926457 45.0340504,14.030649 C44.9003411,13.2869591 45.3948279,12.5756864 46.1385177,12.441977 C46.8822078,12.3082675 47.5934804,12.8027543 47.72719,13.5464442 C48.1201499,15.7320816 47.2402383,17.9509104 45.45661,19.2731994 C45.3392323,19.3602171 45.21928,19.4423639 45.0970368,19.5196161 Z M5.7562,20.4461888 L5.7562,41.1194207 C5.7562,42.167291 6.61877953,43.0298705 7.66664974,43.0298705 L40.4502658,43.0298705 C41.498136,43.0298705 42.3607155,42.167291 42.3607155,41.1194207 L42.3607155,20.4100606 C41.3279575,20.4781818 40.2760534,20.2723597 39.3180731,19.7831448 C38.6011465,19.4170296 37.9818692,18.915156 37.4849033,18.3183396 C36.4052875,19.5992268 34.7890109,20.4129316 32.9825964,20.4129316 C31.1677343,20.4129316 29.5447931,19.5915988 28.4651788,18.3003395 C27.3855645,19.5915988 25.7626232,20.4129316 23.9477611,20.4129316 C22.1328991,20.4129316 20.5099578,19.5915988 19.4303435,18.3003395 C18.3507293,19.5915988 16.7277879,20.4129316 14.9129259,20.4129316 C13.1130704,20.4129316 11.5019749,19.6051253 10.4224005,18.3322739 C9.92636681,18.9317502 9.30727124,19.4361589 8.58975555,19.8043268 C7.69686977,20.2624797 6.72166249,20.4739013 5.7562,20.4461888 Z M45.0161419,13.865134 L43.6949319,7.50042947 C43.393195,6.0385666 42.1063583,4.98927618 40.6144451,4.98754249 L11.7661565,4.98754249 L7.2998859,4.98752765 C5.80983632,4.99446619 4.52809258,6.04386196 4.22753187,7.50495296 L2.90493169,13.8637731 C2.90420948,13.8671434 2.90288399,13.8740563 2.90093961,13.8850745 C2.89877571,13.8973366 2.89699722,13.9079139 2.89125782,13.9424371 C2.88491243,13.9805094 2.88055907,14.0057894 2.87511518,14.0351864 C2.73752594,14.7781683 2.023682,15.268936 1.28070011,15.1313468 C0.537718214,14.9937576 0.0469505016,14.2799136 0.184539741,13.5369317 C0.186232116,13.5277929 0.188336153,13.5155747 0.192167169,13.4925886 C0.198036402,13.4571835 0.201837657,13.4345761 0.206255438,13.409542 C0.213554627,13.3681799 0.220904821,13.3298458 0.22764688,13.2985014 L1.547937,6.95068201 C2.10865718,4.22486888 4.50344179,2.2641986 7.29351503,2.25122124 L36.1666793,2.25122124 L40.6160341,2.25122217 C43.4062069,2.25446278 45.8108457,4.2152123 46.3744503,6.9457831 L47.6935352,13.3003844 C47.6938529,13.3018661 47.6939064,13.3021016 47.6971952,13.3162497 C47.7180343,13.4052064 47.7248801,13.4365742 47.7361853,13.5079751 C47.7505246,13.5985393 47.7587311,13.6904331 47.7587311,13.7885466 C47.7587311,14.5441609 47.1461847,15.1567073 46.3905705,15.1567073 C45.6802563,15.1567073 45.0963699,14.6154051 45.0289133,13.9228028 C45.0247345,13.9047068 45.0212223,13.888945 45.0161419,13.865134 Z M29.3457767,24.3134332 C29.3457767,24.3134332 32.5945363,26.2935347 32.5945363,30.7214 C32.5945363,35.1840912 29.2363238,37.2089689 29.2363238,37.2089689 C28.9850798,37.3582228 28.5920446,37.3358347 28.3656762,37.1517549 L26.937814,36.0000124 C26.7114456,35.8159326 26.7213959,35.5273751 26.9577145,35.3557332 C26.9577145,35.3557332 29.3010005,33.659214 29.3010005,30.7114497 C29.3010005,27.6044813 27.0771176,26.1592062 27.0771176,26.1592062 C26.8308487,25.9975145 26.8109482,25.7189073 27.0373166,25.5348275 L28.4776166,24.365672 C28.703985,24.1840798 29.0945326,24.1592041 29.3457767,24.3134332 Z M22.7338295,27.9079642 C22.330844,27.0621922 21.4950223,26.4328383 20.2238767,26.4328383 C18.9552187,26.4328383 18.1193969,27.0621922 17.7139238,27.9079642 C17.4825803,28.4278653 17.3955155,28.8109503 17.3656648,29.4378166 L23.079601,29.4378166 C23.0522378,28.8084627 22.9651731,28.4253777 22.7338295,27.9079642 Z M17.7537249,31.8656798 C17.7537249,31.8656798 17.3781026,31.8308539 17.3781026,32.1293617 C17.3781026,33.8258808 18.6542233,35.0348373 20.656713,35.0348373 C22.1442767,35.0348373 22.7786057,34.6791155 23.6791041,34.0124482 C23.8880596,33.8557316 24.114428,33.7114528 24.2835824,33.8955326 C24.4029855,34.0223984 25.9801016,35.465186 25.9801016,35.465186 C26.1766192,35.6492658 26.1243803,35.8681715 25.9129373,36.0447886 C25.7014943,36.2214057 23.3432829,38.037328 20.6293497,38.037328 C17.0820824,38.037328 13.6766062,36.5074756 13.6766062,30.7487632 C13.6766062,26.1044798 16.3308378,23.4850741 20.2263642,23.4850741 C24.4104482,23.4850741 26.7761223,26.3805995 26.7761223,30.2835886 L26.7761223,31.2711518 C26.7761223,31.6741373 26.4452762,31.8681674 26.1741316,31.8681674 L17.7537249,31.8681674 L17.7537249,31.8656798 Z" id="path-1"></path>
    </defs>
    <g id="Icon/pago-cobro/48px/Tienda-entel/white" stroke="none" stroke-width="1" fill="none" fill-rule="evenodd">
        <mask id="mask-2" fill="white">
            <use xlink:href="#path-1"></use>
        </mask>
        <g id="icon/letra-T/48px/Tienda-entel/blue-Copy"></g>
        <rect id="🎨-color" fill="#FFFFFF" mask="url(#mask-2)" x="0" y="0" width="48" height="48"></rect>
    </g>
</svg>