<?xml version="1.0" encoding="UTF-8"?>
<svg width="48px" height="48px" viewBox="0 0 48 48" version="1.1" xmlns="http://www.w3.org/2000/svg" xmlns:xlink="http://www.w3.org/1999/xlink">
    <!-- Generator: Sketch 54.1 (76490) - https://sketchapp.com -->
    <title>Icon/Navegacion/48px/Busqueda/black@2x</title>
    <desc>Created with Sketch.</desc>
    <defs>
        <path d="M47.4072446,44.5860205 L35.867653,33.0464286 C38.7280614,29.5590816 40.452143,25.0921429 40.452143,20.2235714 C40.452143,9.0562245 31.3909184,-0.005 20.2235714,-0.005 C9.04642856,-0.005 -0.005,9.0562245 -0.005,20.2235714 C-0.005,31.3909184 9.04642856,40.452143 20.2235714,40.452143 C25.0921429,40.452143 29.5492857,38.737857 33.0366327,35.877449 L44.5762245,47.4072446 C45.359898,48.1909185 46.6235715,48.1909185 47.4072446,47.4072446 C48.1909185,46.6333674 48.1909185,45.359898 47.4072446,44.5860205 Z M20.2235714,36.4260205 C11.279898,36.4260205 4.01132654,29.1574489 4.01132654,20.2235714 C4.01132654,11.2896939 11.279898,4.01132654 20.2235714,4.01132654 C29.1574489,4.01132654 36.4358161,11.2896939 36.4358161,20.2235714 C36.4358161,29.1574489 29.1574489,36.4260205 20.2235714,36.4260205 Z" id="path-1"></path>
    </defs>
    <g id="Icon/Navegacion/48px/Busqueda/black" stroke="none" stroke-width="1" fill="none" fill-rule="evenodd">
        <mask id="mask-2" fill="white">
            <use xlink:href="#path-1"></use>
        </mask>
        <g id="icon/letra-B/36px/Busqueda" fill-rule="nonzero"></g>
        <rect id="🎨-color" fill="#191919" mask="url(#mask-2)" x="0" y="0" width="48" height="48"></rect>
    </g>
</svg>