<?xml version="1.0" encoding="UTF-8"?>
<svg width="48px" height="48px" viewBox="0 0 48 48" version="1.1" xmlns="http://www.w3.org/2000/svg" xmlns:xlink="http://www.w3.org/1999/xlink">
    <!-- Generator: Sketch 54.1 (76490) - https://sketchapp.com -->
    <title>Icon-bicolor/Navegacion/48px/Busqueda/green-blue@2x</title>
    <desc>Created with Sketch.</desc>
    <g id="Icon-bicolor/Navegacion/48px/Busqueda/green-blue" stroke="none" stroke-width="1" fill="none" fill-rule="evenodd">
        <g id="Group" fill-rule="nonzero">
            <g id="Busqueda">
                <g>
                    <path d="M46.4543238,43.6900999 L35.147879,32.3836548 C37.9504955,28.9667665 39.6397435,24.5900781 39.6397435,19.8198717 C39.6397435,8.87815078 30.7615927,0 19.8198717,0 C8.86855276,0 0,8.87815078 0,19.8198717 C0,30.7615927 8.86855276,39.6397435 19.8198717,39.6397435 C24.5900781,39.6397435 28.9571685,37.9600932 32.3740568,35.1574771 L43.6805018,46.4543238 C44.4483419,47.2221642 45.686484,47.2221642 46.4543238,46.4543238 C47.2221642,45.6960821 47.2221642,44.4483419 46.4543238,43.6900999 Z M19.8198717,35.6949652 C11.056897,35.6949652 3.93518035,28.5732484 3.93518035,19.8198717 C3.93518035,11.0664949 11.056897,3.93518035 19.8198717,3.93518035 C28.5732484,3.93518035 35.7045629,11.0664949 35.7045629,19.8198717 C35.7045629,28.5732484 28.5732484,35.6949652 19.8198717,35.6949652 Z" id="Shape" fill="#002EFF"></path>
                    <path d="M19.5918367,33.3061224 C12.0176459,33.3061224 5.87755102,27.1660276 5.87755102,19.5918367 C5.87755102,12.0176459 12.0176459,5.87755102 19.5918367,5.87755102 C27.1660276,5.87755102 33.3061224,12.0176459 33.3061224,19.5918367 C33.3061224,27.1660276 27.1660276,33.3061224 19.5918367,33.3061224 Z M19.5918367,31.3469388 C26.0840003,31.3469388 31.3469388,26.0840003 31.3469388,19.5918367 C31.3469388,13.0996731 26.0840003,7.83673469 19.5918367,7.83673469 C13.0996731,7.83673469 7.83673469,13.0996731 7.83673469,19.5918367 C7.83673469,26.0840003 13.0996731,31.3469388 19.5918367,31.3469388 Z" id="Oval" fill="#42E8B4"></path>
                </g>
            </g>
        </g>
    </g>
</svg>