<?xml version="1.0" encoding="UTF-8"?>
<svg width="48px" height="48px" viewBox="0 0 48 48" version="1.1" xmlns="http://www.w3.org/2000/svg" xmlns:xlink="http://www.w3.org/1999/xlink">
    <!-- Generator: Sketch 54.1 (76490) - https://sketchapp.com -->
    <title>Icon/Navegacion/48px/Busqueda/white@2x</title>
    <desc>Created with Sketch.</desc>
    <g id="Icon/Navegacion/48px/Busqueda/white" stroke="none" stroke-width="1" fill="none" fill-rule="evenodd">
        <g id="Group" transform="translate(-0.005000, -0.005000)" fill="#FFFFFF" fill-rule="nonzero">
            <g id="Busqueda">
                <g id="Shape">
                    <path d="M47.4221222,44.6003103 L35.8801265,33.0583143 C38.7411308,29.5702408 40.4655715,25.1023714 40.4655715,20.2327857 C40.4655715,9.06311225 31.4024592,0 20.2327857,0 C9.05331427,0 0,9.06311225 0,20.2327857 C0,31.4024592 9.05331427,40.4655715 20.2327857,40.4655715 C25.1023714,40.4655715 29.5604428,38.7509285 33.0485164,35.8899245 L44.5905123,47.4221222 C45.374349,48.2059593 46.6382858,48.2059593 47.4221222,47.4221222 C48.2059593,46.6480838 48.2059593,45.374349 47.4221222,44.6003103 Z M20.2327857,36.4386103 C11.287249,36.4386103 4.01716328,29.1685244 4.01716328,20.2327857 C4.01716328,11.2970469 11.287249,4.01716328 20.2327857,4.01716328 C29.1685244,4.01716328 36.4484079,11.2970469 36.4484079,20.2327857 C36.4484079,29.1685244 29.1685244,36.4386103 20.2327857,36.4386103 Z"></path>
                </g>
            </g>
        </g>
    </g>
</svg>