<?xml version="1.0" encoding="UTF-8"?>
<svg width="48px" height="48px" viewBox="0 0 48 48" version="1.1" xmlns="http://www.w3.org/2000/svg" xmlns:xlink="http://www.w3.org/1999/xlink">
    <!-- Generator: Sketch 54.1 (76490) - https://sketchapp.com -->
    <title>Icon/Beneficios/48px/Carro arrastre/black@2x</title>
    <desc>Created with Sketch.</desc>
    <defs>
        <path d="M43.4074909,36.632846 C42.8649333,39.8657697 40.0535538,42.32835 36.6666667,42.32835 C33.2898569,42.32835 30.4851351,39.8804023 29.9307456,36.6616833 L2.66666667,36.6616833 C2.02118387,36.6616833 1.49791667,36.1384161 1.49791667,35.4929333 C1.49791667,34.8474505 2.02118387,34.3241833 2.66666667,34.3241833 L9.49791667,34.3241833 L9.49791667,9.22893333 C9.49791667,7.16841729 11.1682169,5.49751667 13.2293333,5.49751667 L43.0306667,5.49751667 C45.1317805,5.49751667 46.8354167,7.20174806 46.8354167,9.30226667 L46.8354167,36.6616833 L43.6666667,36.6616833 C43.5775964,36.6616833 43.4908532,36.6517196 43.4074909,36.632846 Z M43.4074427,34.3530315 C43.4908197,34.3341509 43.5775792,34.3241833 43.6666667,34.3241833 L44.4979167,34.3241833 L44.4979167,9.30226667 C44.4979167,8.4925309 43.8406321,7.83501667 43.0306667,7.83501667 L13.2293333,7.83501667 C12.4593706,7.83501667 11.8354167,8.45919488 11.8354167,9.22893333 L11.8354167,34.3241833 L29.930798,34.3241833 C30.4853488,31.1060792 33.2903119,28.6575167 36.6666667,28.6575167 C40.0531032,28.6575167 42.8647307,31.1207237 43.4074427,34.3530315 Z M41.1645833,35.4929333 C41.1645833,33.0090828 39.1505172,30.9950167 36.6666667,30.9950167 C34.1828161,30.9950167 32.16875,33.0090828 32.16875,35.4929333 C32.16875,37.9776142 34.1823131,39.99085 36.6666667,39.99085 C39.1510203,39.99085 41.1645833,37.9776142 41.1645833,35.4929333 Z M17.5,18.9480833 C16.8545172,18.9480833 16.33125,18.4248161 16.33125,17.7793333 C16.33125,17.1338505 16.8545172,16.6105833 17.5,16.6105833 L41,16.6105833 C41.6454828,16.6105833 42.16875,17.1338505 42.16875,17.7793333 C42.16875,18.4248161 41.6454828,18.9480833 41,18.9480833 L17.5,18.9480833 Z M41,22.63405 C41.6454828,22.63405 42.16875,23.1573172 42.16875,23.8028 C42.16875,24.4482828 41.6454828,24.97155 41,24.97155 L17.5,24.97155 C16.8545172,24.97155 16.33125,24.4482828 16.33125,23.8028 C16.33125,23.1573172 16.8545172,22.63405 17.5,22.63405 L41,22.63405 Z" id="path-1"></path>
    </defs>
    <g id="Icon/Beneficios/48px/Carro-arrastre/black" stroke="none" stroke-width="1" fill="none" fill-rule="evenodd">
        <mask id="mask-2" fill="white">
            <use xlink:href="#path-1"></use>
        </mask>
        <g id="Combined-Shape" fill-rule="nonzero"></g>
        <rect id="🎨-color" fill="#191919" mask="url(#mask-2)" x="0" y="0" width="48" height="48"></rect>
    </g>
</svg>