<?xml version="1.0" encoding="UTF-8"?>
<svg width="48px" height="48px" viewBox="0 0 48 48" version="1.1" xmlns="http://www.w3.org/2000/svg" xmlns:xlink="http://www.w3.org/1999/xlink">
    <!-- Generator: Sketch 54.1 (76490) - https://sketchapp.com -->
    <title>Icon-bicolor/Beneficios/48px/Carro-arrastre/green-white@2x</title>
    <desc>Created with Sketch.</desc>
    <g id="Icon-bicolor/Beneficios/48px/Carro-arrastre/green-white" stroke="none" stroke-width="1" fill="none" fill-rule="evenodd">
        <g id="Group-15" transform="translate(1.000000, 5.000000)" fill-rule="nonzero">
            <path d="M40.1645833,30.4929333 C40.1645833,28.0090828 38.1505172,25.9950167 35.6666667,25.9950167 C33.1828161,25.9950167 31.16875,28.0090828 31.16875,30.4929333 C31.16875,32.9776142 33.1823131,34.99085 35.6666667,34.99085 C38.1510203,34.99085 40.1645833,32.9776142 40.1645833,30.4929333 Z M42.5020833,30.4929333 C42.5020833,34.2686648 39.4419008,37.32835 35.6666667,37.32835 C31.8914325,37.32835 28.83125,34.2686648 28.83125,30.4929333 C28.83125,26.7181172 31.8918505,23.6575167 35.6666667,23.6575167 C39.4414828,23.6575167 42.5020833,26.7181172 42.5020833,30.4929333 Z" id="Stroke-1" fill="#FFFFFF"></path>
            <path d="M1.66666667,31.6616833 C1.02118387,31.6616833 0.497916667,31.1384161 0.497916667,30.4929333 C0.497916667,29.8474505 1.02118387,29.3241833 1.66666667,29.3241833 L30,29.3241833 C30.6454828,29.3241833 31.16875,29.8474505 31.16875,30.4929333 C31.16875,31.1384161 30.6454828,31.6616833 30,31.6616833 L1.66666667,31.6616833 Z" id="Stroke-3" fill="#FFFFFF"></path>
            <path d="M43.4979167,4.30226667 C43.4979167,3.4925309 42.8406321,2.83501667 42.0306667,2.83501667 L12.2293333,2.83501667 C11.4593706,2.83501667 10.8354167,3.45919488 10.8354167,4.22893333 L10.8354167,30.4929333 C10.8354167,31.1384161 10.3121495,31.6616833 9.66666667,31.6616833 C9.02118387,31.6616833 8.49791667,31.1384161 8.49791667,30.4929333 L8.49791667,4.22893333 C8.49791667,2.16841729 10.1682169,0.497516667 12.2293333,0.497516667 L42.0306667,0.497516667 C44.1317805,0.497516667 45.8354167,2.20174806 45.8354167,4.30226667 L45.8354167,31.6616833 L42.6666667,31.6616833 C42.0211839,31.6616833 41.4979167,31.1384161 41.4979167,30.4929333 C41.4979167,29.8474505 42.0211839,29.3241833 42.6666667,29.3241833 L43.4979167,29.3241833 L43.4979167,4.30226667 Z" id="Stroke-5" fill="#FFFFFF"></path>
            <path d="M16.5,13.9480833 C15.8545172,13.9480833 15.33125,13.4248161 15.33125,12.7793333 C15.33125,12.1338505 15.8545172,11.6105833 16.5,11.6105833 L40,11.6105833 C40.6454828,11.6105833 41.16875,12.1338505 41.16875,12.7793333 C41.16875,13.4248161 40.6454828,13.9480833 40,13.9480833 L16.5,13.9480833 Z" id="Stroke-7" fill="#42E8B4"></path>
            <path d="M40,17.63405 C40.6454828,17.63405 41.16875,18.1573172 41.16875,18.8028 C41.16875,19.4482828 40.6454828,19.97155 40,19.97155 L16.5,19.97155 C15.8545172,19.97155 15.33125,19.4482828 15.33125,18.8028 C15.33125,18.1573172 15.8545172,17.63405 16.5,17.63405 L40,17.63405 Z" id="Stroke-11" fill="#42E8B4"></path>
        </g>
    </g>
</svg>