<?xml version="1.0" encoding="UTF-8"?>
<svg width="36px" height="36px" viewBox="0 0 48 48" version="1.1" xmlns="http://www.w3.org/2000/svg" xmlns:xlink="http://www.w3.org/1999/xlink">
    <!-- Generator: Sketch 54.1 (76490) - https://sketchapp.com -->
    <title>Icon-bicolor/Beneficios/48px/Carro-arrastre/green-blue@2x</title>
    <desc>Created with Sketch.</desc>
    <g id="Icon-bicolor/Beneficios/48px/Carro-arrastre/green-blue" stroke="none" stroke-width="1" fill="none" fill-rule="evenodd">
        <g id="Group-15" transform="translate(2.000000, 6.000000)" fill-rule="nonzero">
            <path d="M39.1645833,29.4929333 C39.1645833,27.0090828 37.1505172,24.9950167 34.6666667,24.9950167 C32.1828161,24.9950167 30.16875,27.0090828 30.16875,29.4929333 C30.16875,31.9776142 32.1823131,33.99085 34.6666667,33.99085 C37.1510203,33.99085 39.1645833,31.9776142 39.1645833,29.4929333 Z M41.5020833,29.4929333 C41.5020833,33.2686648 38.4419008,36.32835 34.6666667,36.32835 C30.8914325,36.32835 27.83125,33.2686648 27.83125,29.4929333 C27.83125,25.7181172 30.8918505,22.6575167 34.6666667,22.6575167 C38.4414828,22.6575167 41.5020833,25.7181172 41.5020833,29.4929333 Z" id="Stroke-1" fill="#002EFF"></path>
            <path d="M0.666666667,30.6616833 C0.0211838653,30.6616833 -0.502083333,30.1384161 -0.502083333,29.4929333 C-0.502083333,28.8474505 0.0211838653,28.3241833 0.666666667,28.3241833 L29,28.3241833 C29.6454828,28.3241833 30.16875,28.8474505 30.16875,29.4929333 C30.16875,30.1384161 29.6454828,30.6616833 29,30.6616833 L0.666666667,30.6616833 Z" id="Stroke-3" fill="#002EFF"></path>
            <path d="M42.4979167,3.30226667 C42.4979167,2.4925309 41.8406321,1.83501667 41.0306667,1.83501667 L11.2293333,1.83501667 C10.4593706,1.83501667 9.83541667,2.45919488 9.83541667,3.22893333 L9.83541667,29.4929333 C9.83541667,30.1384161 9.31214947,30.6616833 8.66666667,30.6616833 C8.02118387,30.6616833 7.49791667,30.1384161 7.49791667,29.4929333 L7.49791667,3.22893333 C7.49791667,1.16841729 9.1682169,-0.502483333 11.2293333,-0.502483333 L41.0306667,-0.502483333 C43.1317805,-0.502483333 44.8354167,1.20174806 44.8354167,3.30226667 L44.8354167,30.6616833 L41.6666667,30.6616833 C41.0211839,30.6616833 40.4979167,30.1384161 40.4979167,29.4929333 C40.4979167,28.8474505 41.0211839,28.3241833 41.6666667,28.3241833 L42.4979167,28.3241833 L42.4979167,3.30226667 Z" id="Stroke-5" fill="#002EFF"></path>
            <path d="M15.5,12.9480833 C14.8545172,12.9480833 14.33125,12.4248161 14.33125,11.7793333 C14.33125,11.1338505 14.8545172,10.6105833 15.5,10.6105833 L39,10.6105833 C39.6454828,10.6105833 40.16875,11.1338505 40.16875,11.7793333 C40.16875,12.4248161 39.6454828,12.9480833 39,12.9480833 L15.5,12.9480833 Z" id="Stroke-7" fill="#42E8B4"></path>
            <path d="M39,16.63405 C39.6454828,16.63405 40.16875,17.1573172 40.16875,17.8028 C40.16875,18.4482828 39.6454828,18.97155 39,18.97155 L15.5,18.97155 C14.8545172,18.97155 14.33125,18.4482828 14.33125,17.8028 C14.33125,17.1573172 14.8545172,16.63405 15.5,16.63405 L39,16.63405 Z" id="Stroke-11" fill="#42E8B4"></path>
        </g>
    </g>
</svg>
