<?xml version="1.0" encoding="UTF-8"?>
<svg width="48px" height="48px" viewBox="0 0 48 48" version="1.1" xmlns="http://www.w3.org/2000/svg" xmlns:xlink="http://www.w3.org/1999/xlink">
    <!-- Generator: Sketch 54.1 (76490) - https://sketchapp.com -->
    <title>Icon/Navegacion/48px/Menu/black@2x</title>
    <desc>Created with Sketch.</desc>
    <defs>
        <path d="M45.0005032,35.2642817 C46.5686059,35.2642817 47.8398043,36.5354801 47.8398043,38.1035828 C47.8398043,39.6716855 46.5686059,40.9428839 45.0005032,40.9428839 L2.8756,40.9428839 C1.30749732,40.9428839 0.0362989247,39.6716855 0.0362989247,38.1035828 C0.0362989247,36.5354801 1.30749732,35.2642817 2.8756,35.2642817 L45.0005032,35.2642817 Z M45.0005032,21.2226473 C46.5686059,21.2226473 47.8398043,22.4938457 47.8398043,24.0619484 C47.8398043,25.6300511 46.5686059,26.9012495 45.0005032,26.9012495 L2.8756,26.9012495 C1.30749732,26.9012495 0.0362989247,25.6300511 0.0362989247,24.0619484 C0.0362989247,22.4938457 1.30749732,21.2226473 2.8756,21.2226473 L45.0005032,21.2226473 Z M45.0005032,7.1810129 C46.5686059,7.1810129 47.8398043,8.4522113 47.8398043,10.020314 C47.8398043,11.5884167 46.5686059,12.8596151 45.0005032,12.8596151 L2.8756,12.8596151 C1.30749732,12.8596151 0.0362989247,11.5884167 0.0362989247,10.020314 C0.0362989247,8.4522113 1.30749732,7.1810129 2.8756,7.1810129 L45.0005032,7.1810129 Z" id="path-1"></path>
    </defs>
    <g id="Icon/Navegacion/48px/Menu/black" stroke="none" stroke-width="1" fill="none" fill-rule="evenodd">
        <mask id="mask-2" fill="white">
            <use xlink:href="#path-1"></use>
        </mask>
        <g id="Combined-Shape"></g>
        <rect id="🎨-color" fill="#191919" mask="url(#mask-2)" x="0" y="0" width="48" height="48"></rect>
    </g>
</svg>