<?xml version="1.0" encoding="UTF-8"?>
<svg width="48px" height="48px" viewBox="0 0 48 48" version="1.1" xmlns="http://www.w3.org/2000/svg" xmlns:xlink="http://www.w3.org/1999/xlink">
    <!-- Generator: Sketch 54.1 (76490) - https://sketchapp.com -->
    <title>Icon/Navegacion/48px/Menu/blue@2x</title>
    <desc>Created with Sketch.</desc>
    <defs>
        <path d="M45.0005032,35.2642817 C46.5686059,35.2642817 47.8398043,36.1597122 47.8398043,37.2642817 C47.8398043,38.3688512 46.5686059,39.2642817 45.0005032,39.2642817 L2.8756,39.2642817 C1.30749732,39.2642817 0.0362989247,38.3688512 0.0362989247,37.2642817 C0.0362989247,36.1597122 1.30749732,35.2642817 2.8756,35.2642817 L45.0005032,35.2642817 Z M45.0005032,21.5 C46.5686059,21.5 47.8398043,22.3954305 47.8398043,23.5 C47.8398043,24.6045695 46.5686059,25.5 45.0005032,25.5 L2.8756,25.5 C1.30749732,25.5 0.0362989247,24.6045695 0.0362989247,23.5 C0.0362989247,22.3954305 1.30749732,21.5 2.8756,21.5 L45.0005032,21.5 Z M45.0005032,7.1810129 C46.5686059,7.1810129 47.8398043,8.07644341 47.8398043,9.1810129 C47.8398043,10.2855824 46.5686059,11.1810129 45.0005032,11.1810129 L2.8756,11.1810129 C1.30749732,11.1810129 0.0362989247,10.2855824 0.0362989247,9.1810129 C0.0362989247,8.07644341 1.30749732,7.1810129 2.8756,7.1810129 L45.0005032,7.1810129 Z" id="path-1"></path>
    </defs>
    <g id="Icon/Navegacion/48px/Menu/blue" stroke="none" stroke-width="1" fill="none" fill-rule="evenodd">
        <mask id="mask-2" fill="white">
            <use xlink:href="#path-1"></use>
        </mask>
        <g id="Combined-Shape"></g>
        <rect id="🎨-color" fill="#002EFF" mask="url(#mask-2)" x="0" y="0" width="48" height="48"></rect>
    </g>
</svg>