<?xml version="1.0" encoding="UTF-8"?>
<svg width="53px" height="48px" viewBox="0 0 53 48" version="1.1" xmlns="http://www.w3.org/2000/svg" xmlns:xlink="http://www.w3.org/1999/xlink">
    <!-- Generator: Sketch 54.1 (76490) - https://sketchapp.com -->
    <title>Icon-bicolor/Navegacion/48px/Menu/Notificacion@2x</title>
    <desc>Created with Sketch.</desc>
    <g id="Icon-bicolor/Navegacion/48px/Menu/Notificacion" stroke="none" stroke-width="1" fill="none" fill-rule="evenodd">
        <g id="Group" transform="translate(0.000000, 3.000000)">
            <g id="Menu" transform="translate(0.000000, 7.000000)" fill="#FFFFFF">
                <g id="Group">
                    <g>
                        <path d="M45.0055032,28.5582065 C46.5736059,28.5582065 47.8448043,29.8294049 47.8448043,31.3975075 C47.8448043,32.9656102 46.5736059,34.2368086 45.0055032,34.2368086 L2.8806,34.2368086 C1.31249732,34.2368086 0.0412989247,32.9656102 0.0412989247,31.3975075 C0.0412989247,29.8294049 1.31249732,28.5582065 2.8806,28.5582065 L45.0055032,28.5582065 Z" id="Path"></path>
                        <path d="M45.0055032,14.516572 C46.5736059,14.516572 47.8448043,15.7877704 47.8448043,17.3558731 C47.8448043,18.9239758 46.5736059,20.1951742 45.0055032,20.1951742 L2.8806,20.1951742 C1.31249732,20.1951742 0.0412989247,18.9239758 0.0412989247,17.3558731 C0.0412989247,15.7877704 1.31249732,14.516572 2.8806,14.516572 L45.0055032,14.516572 Z" id="Path"></path>
                        <path d="M45.0055032,0.474937634 C46.5736059,0.474937634 47.8448043,1.74613603 47.8448043,3.31423871 C47.8448043,4.88234139 46.5736059,6.15353978 45.0055032,6.15353978 L2.8806,6.15353978 C1.31249732,6.15353978 0.0412989247,4.88234139 0.0412989247,3.31423871 C0.0412989247,1.74613603 1.31249732,0.474937634 2.8806,0.474937634 L45.0055032,0.474937634 Z" id="Path"></path>
                    </g>
                </g>
            </g>
            <g transform="translate(28.000000, 0.000000)">
                <path d="M12.5,0 C19.403575,0 25,5.59645 25,12.5 C25,19.403575 19.403575,24.999975 12.5,24.999975 C5.596425,24.999975 0,19.403575 0,12.5 C0,5.59645 5.596425,0 12.5,0 Z" id="Notification-bg" fill="#E8200C"></path>
                <path d="M16.4107317,12.444878 C16.6448792,13.0068321 16.7619512,13.6507281 16.7619512,14.3765854 C16.7619512,14.926832 16.6565864,15.5063384 16.4458537,16.115122 C16.176584,16.8526866 15.7317104,17.4234126 15.1112195,17.8273171 C14.4907286,18.2312215 13.7414678,18.4331707 12.8634146,18.4331707 C11.9970688,18.4331707 11.2448812,18.2136607 10.6068293,17.7746341 C9.9687773,17.3356076 9.5151233,16.7414672 9.24585366,15.9921951 C9.1287799,15.6058517 9.0468295,15.1551245 9,14.64 C9,14.452682 9.0936576,14.3590244 9.28097561,14.3590244 L10.7736585,14.3590244 C10.9609765,14.3590244 11.0604877,14.452682 11.0721951,14.64 C11.0956099,14.9443918 11.1424387,15.219511 11.2126829,15.4653659 C11.3297567,15.8400019 11.5317059,16.1356087 11.8185366,16.3521951 C12.1053673,16.5687816 12.4536565,16.6770732 12.8634146,16.6770732 C13.6478088,16.6770732 14.1746328,16.3258572 14.4439024,15.6234146 C14.6195131,15.2487786 14.7073171,14.8156122 14.7073171,14.3239024 C14.7073171,13.750241 14.6078059,13.252685 14.4087805,12.8312195 C14.1278035,12.1756065 13.6068331,11.8478049 12.8458537,11.8478049 C12.6468283,11.8478049 12.4126843,11.9239017 12.1434146,12.0760976 C12.0731704,12.1112197 12.0146344,12.1287805 11.9678049,12.1287805 C11.8975606,12.1287805 11.8273174,12.0878053 11.7570732,12.0058537 L11.0195122,11.075122 C10.9726827,11.0165851 10.9492683,10.9521955 10.9492683,10.8819512 C10.9492683,10.811707 10.9843899,10.7414638 11.0546341,10.6712195 L13.8819512,7.87902439 C13.9170733,7.84390226 13.9287805,7.81463426 13.9170732,7.79121951 C13.9053658,7.76780476 13.8760978,7.75609756 13.8292683,7.75609756 L9.47414634,7.75609756 C9.28682833,7.75609756 9.19317073,7.66243996 9.19317073,7.47512195 L9.19317073,6.28097561 C9.19317073,6.0936576 9.28682833,6 9.47414634,6 L16.3404878,6 C16.5278058,6 16.6214634,6.0936576 16.6214634,6.28097561 L16.6214634,7.59804878 C16.6214634,7.71512254 16.5746346,7.83219454 16.4809756,7.94926829 L13.9697561,10.4956098 C13.9580487,10.5073171 13.9521951,10.5248779 13.9521951,10.5482927 C13.9521951,10.5834148 13.9873167,10.6126828 14.057561,10.6360976 C15.1697617,10.8000008 15.9541441,11.4029216 16.4107317,12.444878 Z" id="3" fill="#FFFFFF"></path>
            </g>
        </g>
    </g>
</svg>