<?xml version="1.0" encoding="UTF-8"?>
<svg width="48px" height="48px" viewBox="0 0 48 48" version="1.1" xmlns="http://www.w3.org/2000/svg" xmlns:xlink="http://www.w3.org/1999/xlink">
    <!-- Generator: Sketch 54.1 (76490) - https://sketchapp.com -->
    <title>Icon/Navegacion/48px/Menu/white@2x</title>
    <desc>Created with Sketch.</desc>
    <g id="Icon/Navegacion/48px/Menu/white" stroke="none" stroke-width="1" fill="none" fill-rule="evenodd">
        <g id="Group" transform="translate(-0.005000, 6.706075)" fill="#FFFFFF">
            <g id="Menu">
                <g id="Group">
                    <g>
                        <path d="M45.0055032,28.5582065 C46.5736059,28.5582065 47.8448043,29.8294049 47.8448043,31.3975075 C47.8448043,32.9656102 46.5736059,34.2368086 45.0055032,34.2368086 L2.8806,34.2368086 C1.31249732,34.2368086 0.0412989247,32.9656102 0.0412989247,31.3975075 C0.0412989247,29.8294049 1.31249732,28.5582065 2.8806,28.5582065 L45.0055032,28.5582065 Z" id="Path"></path>
                        <path d="M45.0055032,14.516572 C46.5736059,14.516572 47.8448043,15.7877704 47.8448043,17.3558731 C47.8448043,18.9239758 46.5736059,20.1951742 45.0055032,20.1951742 L2.8806,20.1951742 C1.31249732,20.1951742 0.0412989247,18.9239758 0.0412989247,17.3558731 C0.0412989247,15.7877704 1.31249732,14.516572 2.8806,14.516572 L45.0055032,14.516572 Z" id="Path"></path>
                        <path d="M45.0055032,0.474937634 C46.5736059,0.474937634 47.8448043,1.74613603 47.8448043,3.31423871 C47.8448043,4.88234139 46.5736059,6.15353978 45.0055032,6.15353978 L2.8806,6.15353978 C1.31249732,6.15353978 0.0412989247,4.88234139 0.0412989247,3.31423871 C0.0412989247,1.74613603 1.31249732,0.474937634 2.8806,0.474937634 L45.0055032,0.474937634 Z" id="Path"></path>
                    </g>
                </g>
            </g>
        </g>
    </g>
</svg>