<svg width="48" height="48" viewBox="0 0 48 48" fill="none" xmlns="http://www.w3.org/2000/svg">
<g clip-path="url(#clip0)">
<mask id="mask0" mask-type="alpha" maskUnits="userSpaceOnUse" x="1" y="9" width="48" height="31">
<path d="M46.115 21.1825V18.1819H3.64055V21.1825H46.115ZM46.115 23.8231H3.64055V35.0862C3.64055 35.9414 4.34571 36.6466 5.20087 36.6466H44.5547C45.4098 36.6466 46.115 35.9414 46.115 35.0862V23.8231ZM46.115 15.5414V13.2009C46.115 12.3457 45.4098 11.6405 44.5547 11.6405H5.20087C4.34571 11.6405 3.64055 12.3457 3.64055 13.2009V15.5414H46.115ZM44.5547 39.2871H5.20087C2.88738 39.2871 1 37.3997 1 35.0862V13.2009C1 10.8874 2.88738 9 5.20087 9H44.5547C46.8682 9 48.7555 10.8874 48.7555 13.2009V35.0862C48.7555 37.3997 46.8682 39.2871 44.5547 39.2871Z" fill="#0020B3"/>
</mask>
<g mask="url(#mask0)">
<path d="M49 0H1V48H49V0Z" fill="#0020B3"/>
</g>
</g>
<defs>
<clipPath id="clip0">
<rect width="48" height="48" fill="white"/>
</clipPath>
</defs>
</svg>
