<?xml version="1.0" encoding="UTF-8"?>
<svg width="48px" height="48px" viewBox="0 0 48 48" version="1.1" xmlns="http://www.w3.org/2000/svg" xmlns:xlink="http://www.w3.org/1999/xlink">
    <!-- Generator: Sketch 54.1 (76490) - https://sketchapp.com -->
    <title>Icon/pago-cobro/48px/Documento-reporte/Blue@2x</title>
    <desc>Created with Sketch.</desc>
    <defs>
        <path d="M29.8870419,2.6763585 L13.05372,2.6763585 C11.073771,2.6763585 9.4793755,4.23996794 9.4793755,6.1570835 L9.4793755,41.648476 C9.4793755,43.5655916 11.073771,45.129201 13.05372,45.129201 L34.927076,45.129201 C36.9054262,45.129201 38.49902,43.5647781 38.49902,41.648476 L38.49902,11.9182835 L29.9278504,11.9182835 L29.8870419,2.6763585 Z M30.7113628,1.84800565 L32.6566382,0.0623943539 L41.1400052,9.30431935 L39.1947298,11.0899307 L30.7113628,1.84800565 Z M32.5567666,9.2777335 L41.13957,9.2777335 L41.13957,41.648476 C41.13957,45.0341443 38.3529541,47.769751 34.927076,47.769751 L13.05372,47.769751 C9.626835,47.769751 6.8388255,45.035575 6.8388255,41.648476 L6.8388255,6.1570835 C6.8388255,2.76998448 9.626835,0.0358085 13.05372,0.0358085 L32.5159581,0.0358085 L32.5567666,9.2777335 Z M14.7839709,34.75424 C14.0548032,34.7539584 13.4639241,34.1626231 13.4642056,33.4334554 C13.4644871,32.7042877 14.0558224,32.1134087 14.7849901,32.11369 L33.4416761,32.1208915 C34.1708438,32.1211731 34.7617228,32.7125084 34.7614415,33.4416761 C34.7611599,34.1708438 34.1698246,34.7617228 33.4406569,34.7614415 L14.7839709,34.75424 Z M26.563734,39.8841085 C25.8345663,39.8841085 25.243459,39.2930012 25.243459,38.5638335 C25.243459,37.8346658 25.8345663,37.2435585 26.563734,37.2435585 L33.4411665,37.2435585 C34.1703342,37.2435585 34.7614415,37.8346658 34.7614415,38.5638335 C34.7614415,39.2930012 34.1703342,39.8841085 33.4411665,39.8841085 L26.563734,39.8841085 Z" id="path-1"></path>
    </defs>
    <g id="Icon/pago-cobro/48px/Documento-reporte/Blue" stroke="none" stroke-width="1" fill="none" fill-rule="evenodd">
        <mask id="mask-2" fill="white">
            <use xlink:href="#path-1"></use>
        </mask>
        <g id="Combined-Shape" fill-rule="nonzero"></g>
        <rect id="🎨-color" fill="#002EFF" mask="url(#mask-2)" x="0" y="0" width="48" height="48"></rect>
    </g>
</svg>