<?xml version="1.0" encoding="UTF-8"?>
<svg width="48px" height="48px" viewBox="0 0 48 48" version="1.1" xmlns="http://www.w3.org/2000/svg" xmlns:xlink="http://www.w3.org/1999/xlink">
    <!-- Generator: Sketch 54.1 (76490) - https://sketchapp.com -->
    <title>Icon-bicolor/pago-cobro/48px/Documento-reporte/green-white@2x</title>
    <desc>Created with Sketch.</desc>
    <g id="Icon-bicolor/pago-cobro/48px/Documento-reporte/green-white" stroke="none" stroke-width="1" fill="none" fill-rule="evenodd">
        <g id="Group" transform="translate(6.716400, -0.005000)">
            <g id="Documento-reporte">
                <g id="Path">
                    <g>
                        <path d="M23.1706419,2.6813585 L6.33732,2.6813585 C4.35737104,2.6813585 2.7629755,4.24496794 2.7629755,6.1620835 L2.7629755,41.653476 C2.7629755,43.5705916 4.35737104,45.134201 6.33732,45.134201 L28.210676,45.134201 C30.1890262,45.134201 31.78262,43.5697781 31.78262,41.653476 L31.78262,11.9232835 L23.2114504,11.9232835 L23.1706419,2.6813585 Z M25.8403666,9.2827335 L34.42317,9.2827335 L34.42317,41.653476 C34.42317,45.0391443 31.6365541,47.774751 28.210676,47.774751 L6.33732,47.774751 C2.910435,47.774751 0.1224255,45.040575 0.1224255,41.653476 L0.1224255,6.1620835 C0.1224255,2.77498448 2.910435,0.0408085 6.33732,0.0408085 L25.7995581,0.0408085 L25.8403666,9.2827335 Z" id="Shape" fill="#FFFFFF" fill-rule="nonzero"></path>
                        <polygon fill="#FFFFFF" points="23.9949628 1.85300565 25.9402382 0.0673943539 34.4236052 9.30931935 32.4783298 11.0949307"></polygon>
                        <path d="M8.06757087,34.75924 C7.33840318,34.7589584 6.74752414,34.1676231 6.7478056,33.4384554 C6.74808705,32.7092877 7.33942243,32.1184087 8.06859013,32.11869 L26.7252761,32.1258915 C27.4544438,32.1261731 28.0453228,32.7175084 28.0450415,33.4466761 C28.0447599,34.1758438 27.4534246,34.7667228 26.7242569,34.7664415 L8.06757087,34.75924 Z" fill="#42E8B4"></path>
                        <path d="M19.847334,39.8891085 C19.1181663,39.8891085 18.527059,39.2980012 18.527059,38.5688335 C18.527059,37.8396658 19.1181663,37.2485585 19.847334,37.2485585 L26.7247665,37.2485585 C27.4539342,37.2485585 28.0450415,37.8396658 28.0450415,38.5688335 C28.0450415,39.2980012 27.4539342,39.8891085 26.7247665,39.8891085 L19.847334,39.8891085 Z" fill="#42E8B4"></path>
                    </g>
                </g>
            </g>
        </g>
    </g>
</svg>