<?xml version="1.0" encoding="UTF-8"?>
<svg width="48px" height="48px" viewBox="0 0 48 48" version="1.1" xmlns="http://www.w3.org/2000/svg" xmlns:xlink="http://www.w3.org/1999/xlink">
    <!-- Generator: Sketch 54.1 (76490) - https://sketchapp.com -->
    <title>Icon/pago-cobro/48px/Documento-reporte/white@2x</title>
    <desc>Created with Sketch.</desc>
    <defs>
        <path d="M30.0482164,2.64055 L13.2148945,2.64055 C11.2349455,2.64055 9.64055,4.20415944 9.64055,6.121275 L9.64055,41.6126675 C9.64055,43.5297831 11.2349455,45.0933925 13.2148945,45.0933925 L35.0882505,45.0933925 C37.0666007,45.0933925 38.6601945,43.5289696 38.6601945,41.6126675 L38.6601945,11.882475 L30.0890249,11.882475 L30.0482164,2.64055 Z M30.8725373,1.81219715 L32.8178127,0.0265858539 L41.3011797,9.26851085 L39.3559043,11.0541222 L30.8725373,1.81219715 Z M32.7179411,9.241925 L41.3007445,9.241925 L41.3007445,41.6126675 C41.3007445,44.9983358 38.5141286,47.7339425 35.0882505,47.7339425 L13.2148945,47.7339425 C9.7880095,47.7339425 7,44.9997665 7,41.6126675 L7,6.121275 C7,2.73417598 9.7880095,0 13.2148945,0 L32.6771326,0 L32.7179411,9.241925 Z M14.9451454,34.7184315 C14.2159777,34.7181499 13.6250986,34.1268146 13.6253801,33.3976469 C13.6256616,32.6684792 14.2169969,32.0776002 14.9461646,32.0778815 L33.6028506,32.085083 C34.3320183,32.0853646 34.9228973,32.6766999 34.922616,33.4058676 C34.9223344,34.1350353 34.3309991,34.7259143 33.6018314,34.725633 L14.9451454,34.7184315 Z M26.7249085,39.8483 C25.9957408,39.8483 25.4046335,39.2571927 25.4046335,38.528025 C25.4046335,37.7988573 25.9957408,37.20775 26.7249085,37.20775 L33.602341,37.20775 C34.3315087,37.20775 34.922616,37.7988573 34.922616,38.528025 C34.922616,39.2571927 34.3315087,39.8483 33.602341,39.8483 L26.7249085,39.8483 Z" id="path-1"></path>
    </defs>
    <g id="Icon/pago-cobro/48px/Documento-reporte/white" stroke="none" stroke-width="1" fill="none" fill-rule="evenodd">
        <mask id="mask-2" fill="white">
            <use xlink:href="#path-1"></use>
        </mask>
        <g id="Icon-bicolor/letra-D/48px/Documento-reporte-Blue-Copy" fill-rule="nonzero"></g>
        <rect id="🎨-color" fill="#FFFFFF" mask="url(#mask-2)" x="0" y="0" width="48" height="48"></rect>
    </g>
</svg>