<?xml version="1.0" encoding="UTF-8"?>
<svg width="48px" height="48px" viewBox="0 0 48 48" version="1.1" xmlns="http://www.w3.org/2000/svg" xmlns:xlink="http://www.w3.org/1999/xlink">
    <!-- Generator: Sketch 54.1 (76490) - https://sketchapp.com -->
    <title>Icon/pago-cobro/48px/Pago-tarjeta/black@2x</title>
    <desc>Created with Sketch.</desc>
    <defs>
        <path d="M45.114997,21.1825375 L45.114997,18.1819125 L2.64055,18.1819125 L2.64055,21.1825375 L45.114997,21.1825375 Z M45.114997,23.8230875 L2.64055,23.8230875 L2.64055,35.0862335 C2.64055,35.9413958 3.34571275,36.6465585 4.200875,36.6465585 L43.554672,36.6465585 C44.4098343,36.6465585 45.114997,35.9413958 45.114997,35.0862335 L45.114997,23.8230875 Z M45.114997,15.5413625 L45.114997,13.200875 C45.114997,12.3457127 44.4098343,11.64055 43.554672,11.64055 L4.200875,11.64055 C3.34571275,11.64055 2.64055,12.3457127 2.64055,13.200875 L2.64055,15.5413625 L45.114997,15.5413625 Z M43.554672,39.2871085 L4.200875,39.2871085 C1.88737725,39.2871085 1.0658141e-13,37.3997312 1.0658141e-13,35.0862335 L1.0658141e-13,13.200875 C1.0658141e-13,10.8873773 1.88737725,9 4.200875,9 L43.554672,9 C45.8681697,9 47.755547,10.8873773 47.755547,13.200875 L47.755547,35.0862335 C47.755547,37.3997312 45.8681697,39.2871085 43.554672,39.2871085 Z" id="path-1"></path>
    </defs>
    <g id="Icon/pago-cobro/48px/Pago-tarjeta/black" stroke="none" stroke-width="1" fill="none" fill-rule="evenodd">
        <mask id="mask-2" fill="white">
            <use xlink:href="#path-1"></use>
        </mask>
        <g id="Combined-Shape" fill-rule="nonzero"></g>
        <rect id="🎨-color" fill="#191919" mask="url(#mask-2)" x="0" y="0" width="48" height="48"></rect>
    </g>
</svg>