<?xml version="1.0" encoding="UTF-8"?>
<svg width="48px" height="48px" viewBox="0 0 48 48" version="1.1" xmlns="http://www.w3.org/2000/svg" xmlns:xlink="http://www.w3.org/1999/xlink">
    <!-- Generator: Sketch 54.1 (76490) - https://sketchapp.com -->
    <title>Icon/pago-cobro/48px/Pago-tarjeta/blue@2x</title>
    <desc>Created with Sketch.</desc>
    <defs>
        <path d="M45.2468255,21.0785915 L45.2468255,18.0779665 L2.7723785,18.0779665 L2.7723785,21.0785915 L45.2468255,21.0785915 Z M45.2468255,23.7191415 L2.7723785,23.7191415 L2.7723785,34.9822875 C2.7723785,35.8374498 3.47754125,36.5426125 4.3327035,36.5426125 L43.6865005,36.5426125 C44.5416628,36.5426125 45.2468255,35.8374498 45.2468255,34.9822875 L45.2468255,23.7191415 Z M45.2468255,15.4374165 L45.2468255,13.096929 C45.2468255,12.2417667 44.5416628,11.536604 43.6865005,11.536604 L4.3327035,11.536604 C3.47754125,11.536604 2.7723785,12.2417667 2.7723785,13.096929 L2.7723785,15.4374165 L45.2468255,15.4374165 Z M43.6865005,39.1831625 L4.3327035,39.1831625 C2.01920575,39.1831625 0.1318285,37.2957852 0.1318285,34.9822875 L0.1318285,13.096929 C0.1318285,10.7834313 2.01920575,8.896054 4.3327035,8.896054 L43.6865005,8.896054 C45.9999982,8.896054 47.8873755,10.7834313 47.8873755,13.096929 L47.8873755,34.9822875 C47.8873755,37.2957852 45.9999982,39.1831625 43.6865005,39.1831625 Z" id="path-1"></path>
    </defs>
    <g id="Icon/pago-cobro/48px/Pago-tarjeta/blue" stroke="none" stroke-width="1" fill="none" fill-rule="evenodd">
        <mask id="mask-2" fill="white">
            <use xlink:href="#path-1"></use>
        </mask>
        <g id="Combined-Shape" fill-rule="nonzero"></g>
        <rect id="🎨-color" fill="#002EFF" mask="url(#mask-2)" x="0" y="0" width="48" height="48"></rect>
    </g>
</svg>