<?xml version="1.0" encoding="UTF-8"?>
<svg width="48px" height="48px" viewBox="0 0 48 48" version="1.1" xmlns="http://www.w3.org/2000/svg" xmlns:xlink="http://www.w3.org/1999/xlink">
    <!-- Generator: Sketch 54.1 (76490) - https://sketchapp.com -->
    <title>Icon-bicolor/pago-cobro/48px/Pago-tarjeta/green-white@2x</title>
    <desc>Created with Sketch.</desc>
    <g id="Icon-bicolor/pago-cobro/48px/Pago-tarjeta/green-white" stroke="none" stroke-width="1" fill="none" fill-rule="evenodd">
        <g id="Group" transform="translate(-0.005000, 8.756825)">
            <g id="Pago-tarjeta">
                <g id="Group">
                    <g>
                        <path d="M1.603534,9.3211415 C0.874366253,9.3211415 0.283259,8.73003424 0.283259,8.0008665 C0.283259,7.27169876 0.874366253,6.6805915 1.603534,6.6805915 L45.8519505,6.6805915 C46.5811182,6.6805915 47.1722255,7.27169876 47.1722255,8.0008665 C47.1722255,8.73003424 46.5811182,9.3211415 45.8519505,9.3211415 L1.603534,9.3211415 Z" id="Path" fill="#42E8B4"></path>
                        <path d="M1.603534,14.9623165 C0.874366253,14.9623165 0.283259,14.3712092 0.283259,13.6420415 C0.283259,12.9128738 0.874366253,12.3217665 1.603534,12.3217665 L45.8519505,12.3217665 C46.5811182,12.3217665 47.1722255,12.9128738 47.1722255,13.6420415 C47.1722255,14.3712092 46.5811182,14.9623165 45.8519505,14.9623165 L1.603534,14.9623165 Z" id="Path" fill="#42E8B4"></path>
                        <path d="M43.6915005,27.7857875 C44.5466628,27.7857875 45.2518255,27.0806248 45.2518255,26.2254625 L45.2518255,4.340104 C45.2518255,3.48494175 44.5466628,2.779779 43.6915005,2.779779 L4.3377035,2.779779 C3.48254125,2.779779 2.7773785,3.48494175 2.7773785,4.340104 L2.7773785,26.2254625 C2.7773785,27.0806248 3.48254125,27.7857875 4.3377035,27.7857875 L43.6915005,27.7857875 Z M43.6915005,30.4263375 L4.3377035,30.4263375 C2.02420575,30.4263375 0.1368285,28.5389602 0.1368285,26.2254625 L0.1368285,4.340104 C0.1368285,2.02660625 2.02420575,0.139229 4.3377035,0.139229 L43.6915005,0.139229 C46.0049982,0.139229 47.8923755,2.02660625 47.8923755,4.340104 L47.8923755,26.2254625 C47.8923755,28.5389602 46.0049982,30.4263375 43.6915005,30.4263375 Z" id="Path" fill="#FFFFFF" fill-rule="nonzero"></path>
                    </g>
                </g>
            </g>
        </g>
    </g>
</svg>