<?xml version="1.0" encoding="UTF-8"?>
<svg width="48px" height="48px" viewBox="0 0 48 48" version="1.1" xmlns="http://www.w3.org/2000/svg" xmlns:xlink="http://www.w3.org/1999/xlink">
    <!-- Generator: Sketch 54.1 (76490) - https://sketchapp.com -->
    <title>Icon/pago-cobro/48px/Pago-tarjeta/white@2x</title>
    <desc>Created with Sketch.</desc>
    <defs>
        <path d="M46.114997,21.1825375 L46.114997,18.1819125 L3.64055,18.1819125 L3.64055,21.1825375 L46.114997,21.1825375 Z M46.114997,23.8230875 L3.64055,23.8230875 L3.64055,35.0862335 C3.64055,35.9413958 4.34571275,36.6465585 5.200875,36.6465585 L44.554672,36.6465585 C45.4098343,36.6465585 46.114997,35.9413958 46.114997,35.0862335 L46.114997,23.8230875 Z M46.114997,15.5413625 L46.114997,13.200875 C46.114997,12.3457127 45.4098343,11.64055 44.554672,11.64055 L5.200875,11.64055 C4.34571275,11.64055 3.64055,12.3457127 3.64055,13.200875 L3.64055,15.5413625 L46.114997,15.5413625 Z M44.554672,39.2871085 L5.200875,39.2871085 C2.88737725,39.2871085 1,37.3997312 1,35.0862335 L1,13.200875 C1,10.8873773 2.88737725,9 5.200875,9 L44.554672,9 C46.8681697,9 48.755547,10.8873773 48.755547,13.200875 L48.755547,35.0862335 C48.755547,37.3997312 46.8681697,39.2871085 44.554672,39.2871085 Z" id="path-1"></path>
    </defs>
    <g id="Icon/pago-cobro/48px/Pago-tarjeta/white" stroke="none" stroke-width="1" fill="none" fill-rule="evenodd">
        <mask id="mask-2" fill="white">
            <use xlink:href="#path-1"></use>
        </mask>
        <g id="icon/letra-P/48px/Pago-tarjeta/blue-Copy" fill-rule="nonzero"></g>
        <rect id="🎨-color" fill="#FFFFFF" mask="url(#mask-2)" x="1" y="0" width="48" height="48"></rect>
    </g>
</svg>