<svg width="82" height="45" viewBox="0 0 82 45" fill="none" xmlns="http://www.w3.org/2000/svg">
<path fill-rule="evenodd" clip-rule="evenodd" d="M19.6879 6.88214L16.7837 18.3753L13.8811 7.42423H10.8711L8.02323 18.3753L5.06434 6.88214H1.37512L6.15127 23.3994H9.48584L12.3357 12.2383L15.2661 23.3994H18.6029L23.3771 6.88214H19.6879Z" fill="#0020B3"/>
<path fill-rule="evenodd" clip-rule="evenodd" d="M35.0792 12.756C34.9294 11.1767 33.2716 8.95901 30.3809 8.98901C27.4598 8.98901 25.8628 11.1157 25.7117 12.756H35.0792ZM25.6523 15.793C25.8325 18.4666 28.1824 19.956 30.4405 19.9253C32.3691 19.9253 33.6647 19.0436 34.4179 17.677H38.4836C37.6999 19.531 36.525 20.9276 35.1388 21.869C33.7549 22.8416 32.1275 23.3276 30.4101 23.3276C25.3205 23.3276 21.6766 19.1656 21.6766 14.518C21.6766 9.77898 25.3512 5.61731 30.3506 5.61731C32.8212 5.61731 34.9894 6.55898 36.525 8.16931C38.5431 10.265 39.2967 12.8776 38.9648 15.793H25.6523Z" fill="#0020B3"/>
<mask id="mask0" mask-type="alpha" maskUnits="userSpaceOnUse" x="38" y="0" width="19" height="24">
<path fill-rule="evenodd" clip-rule="evenodd" d="M38.3917 0.331299H56.1033V23.3279H38.3917V0.331299Z" fill="white"/>
</mask>
<g mask="url(#mask0)">
<path fill-rule="evenodd" clip-rule="evenodd" d="M52.1566 14.4273C52.1566 11.693 50.0786 9.32368 47.188 9.32368C44.1152 9.32368 42.187 11.7537 42.187 14.4583C42.187 17.2527 44.1152 19.622 47.0981 19.622C50.3202 19.622 52.1566 17.039 52.1566 14.4583V14.4273ZM38.3917 0.331268H42.3384V6.1946V8.19926C43.9639 6.1646 46.3449 5.6176 47.8494 5.6176C51.7653 5.6176 56.1033 8.50393 56.1033 14.3963C56.1033 20.0472 52.1874 23.3279 47.6693 23.3279C45.0794 23.3279 43.0612 22.0509 42.187 20.4116V22.8116H38.3917V0.331268Z" fill="#0020B3"/>
</g>
<mask id="mask1" mask-type="alpha" maskUnits="userSpaceOnUse" x="6" y="21" width="19" height="24">
<path fill-rule="evenodd" clip-rule="evenodd" d="M6.24615 21.9735H24.0176V45H6.24615V21.9735Z" fill="white"/>
</mask>
<g mask="url(#mask1)">
<path fill-rule="evenodd" clip-rule="evenodd" d="M20.0726 30.8136C20.0726 28.4132 18.3549 25.6799 15.0121 25.6799C13.5667 25.6799 12.3323 26.2569 11.4276 27.1982C10.5534 28.1099 10.011 29.4159 10.011 30.8746C10.011 32.3029 10.5534 33.5769 11.4584 34.4892C12.361 35.4009 13.6262 35.9772 15.0428 35.9772C18.0541 35.9772 20.0726 33.5769 20.0726 30.8442V30.8136ZM6.24615 22.4908H9.95155V24.9198C11.1265 23.2498 13.0531 21.9735 15.796 21.9735C21.5774 21.9735 24.0176 26.9255 24.0176 30.9652C24.0176 35.7045 20.6744 39.6838 15.8248 39.6838C12.6026 39.6838 10.8545 38.0138 10.1932 36.9492V39.1675V45.0002H6.24615V22.4908Z" fill="#0020B3"/>
</g>
<path fill-rule="evenodd" clip-rule="evenodd" d="M27.0885 30.9043C27.0885 32.9706 28.5662 35.9773 32.1202 35.9773C34.3168 35.9773 35.7641 34.8236 36.5174 33.3043C36.9084 32.5756 37.0885 31.786 37.1497 30.9653C37.1807 30.1763 37.029 29.3556 36.6975 28.6266C36.0054 27.0466 34.4682 25.6796 32.0892 25.6796C28.8961 25.6796 27.0885 28.2923 27.0885 30.8743V30.9043ZM41.0643 39.1677H37.1193V36.7677C36.065 38.7117 33.8664 39.684 31.5468 39.684C26.245 39.684 23.1435 35.5227 23.1435 30.8137C23.1435 25.559 26.9084 21.9736 31.5468 21.9736C34.5585 21.9736 36.3968 23.5843 37.1193 24.92V22.49H41.0643V39.1677Z" fill="#0020B3"/>
<path fill-rule="evenodd" clip-rule="evenodd" d="M45.8528 38.5296L39.619 22.4899H43.836L47.8713 33.5779L51.8467 22.4899H56.064L47.3596 44.9993H43.1423L45.8528 38.5296Z" fill="#0020B3"/>
<path fill-rule="evenodd" clip-rule="evenodd" d="M68.8898 11.9762C68.7007 11.7855 68.3907 11.7855 68.203 11.9762L58.0317 22.2345C57.8423 22.4252 57.6873 22.5805 57.6873 22.5805V23.0715V34.8762C57.6873 35.1445 57.9055 35.3655 58.1722 35.3655H69.8774C70.1438 35.3655 70.5173 35.2089 70.7047 35.0192L80.8779 24.7602C81.067 24.5699 81.067 24.2582 80.8779 24.0672L68.8898 11.9762Z" fill="#0020B3"/>
<path fill-rule="evenodd" clip-rule="evenodd" d="M64.004 26.167C64.004 25.2843 63.3843 24.283 62.1353 24.283C61.6055 24.283 61.1441 24.492 60.809 24.839C60.4844 25.1753 60.2881 25.6513 60.2881 26.187C60.2881 26.722 60.4844 27.1877 60.8199 27.5243C61.1534 27.8617 61.6253 28.07 62.1462 28.07C63.2273 28.07 64.004 27.2277 64.004 26.1766V26.167ZM59.3151 23.48H60.2881V24.422C60.692 23.7777 61.3805 23.3227 62.3337 23.3227C64.17 23.3227 65.0353 24.869 65.0353 26.2067C65.0353 27.7327 63.9449 29.0314 62.3426 29.0314C61.2324 29.0314 60.573 28.417 60.3387 27.9807V28.873V30.835H59.3151V23.48Z" fill="#CCFFEF"/>
<mask id="mask2" mask-type="alpha" maskUnits="userSpaceOnUse" x="0" y="0" width="80" height="45">
<path fill-rule="evenodd" clip-rule="evenodd" d="M0 44.6686H79.6447V0H0V44.6686Z" fill="white"/>
</mask>
<g mask="url(#mask2)">
<path fill-rule="evenodd" clip-rule="evenodd" d="M65.3393 28.872H66.3629V21.5374H65.3393V28.872Z" fill="#CCFFEF"/>
<path fill-rule="evenodd" clip-rule="evenodd" d="M71.8868 28.8731H70.9227V28.0397C70.6686 28.5961 70.0684 29.0414 69.1149 29.0314C67.3939 29.0221 66.9523 27.7627 66.9523 26.6424V23.48H67.9743V26.4047C67.9743 27.3767 68.3474 28.0701 69.3998 28.0701C70.4015 28.0604 70.8649 27.4154 70.8649 26.4937V23.48H71.8868V28.8731Z" fill="#CCFFEF"/>
<path fill-rule="evenodd" clip-rule="evenodd" d="M74.844 24.8884C74.844 24.472 74.5898 24.1547 74.0673 24.1637C73.5665 24.1637 73.2922 24.5017 73.3014 24.858C73.3213 25.284 73.705 25.4827 74.2745 25.6417C75.0909 25.8694 75.9849 26.1067 76.0153 27.2664C76.0335 28.317 75.1702 29.0314 74.1069 29.0314C73.2618 29.0314 72.2111 28.5454 72.1625 27.3174H73.1735C73.2129 27.9704 73.7338 28.1887 74.1178 28.1887C74.608 28.1887 74.9917 27.8414 74.9917 27.3854C74.9828 26.8514 74.5792 26.6724 73.6257 26.355C72.8797 26.1267 72.2884 25.7704 72.2795 24.958C72.2795 23.936 73.1048 23.3227 74.0782 23.3227C74.8152 23.3227 75.7794 23.6884 75.8567 24.8884H74.844Z" fill="#CCFFEF"/>
</g>
</svg>
