<svg width="50" height="28" viewBox="0 0 50 28" fill="none" xmlns="http://www.w3.org/2000/svg">
<path fill-rule="evenodd" clip-rule="evenodd" d="M12.2466 4.24774L10.4598 11.319L8.67395 4.58127H6.82201L5.06981 11.319L3.24933 4.24774H0.979492L3.91807 14.4101H5.9697L7.72309 7.54319L9.52606 14.4101H11.5791L14.5165 4.24774H12.2466Z" fill="black"/>
<path fill-rule="evenodd" clip-rule="evenodd" d="M21.7158 7.86178C21.6237 6.89008 20.6037 5.52564 18.8252 5.54409C17.0279 5.54409 16.0453 6.85255 15.9524 7.86178H21.7158ZM15.9159 9.73029C16.0267 11.3753 17.4725 12.2916 18.8618 12.2728C20.0484 12.2728 20.8455 11.7303 21.309 10.8894H23.8104C23.3282 12.0301 22.6053 12.8895 21.7525 13.4686C20.901 14.0671 19.8997 14.3661 18.8431 14.3661C15.7117 14.3661 13.4697 11.8054 13.4697 8.94584C13.4697 6.03011 15.7306 3.4696 18.8065 3.4696C20.3266 3.4696 21.6606 4.04897 22.6053 5.03975C23.847 6.32913 24.3106 7.9366 24.1065 9.73029H15.9159Z" fill="black"/>
<mask id="mask0" mask-type="alpha" maskUnits="userSpaceOnUse" x="23" y="0" width="12" height="15">
<path fill-rule="evenodd" clip-rule="evenodd" d="M23.7539 0.217285H34.6511V14.3662H23.7539V0.217285Z" fill="white"/>
</mask>
<g mask="url(#mask0)">
<path fill-rule="evenodd" clip-rule="evenodd" d="M32.2232 8.88992C32.2232 7.20759 30.9448 5.74984 29.1662 5.74984C27.2757 5.74984 26.0893 7.24492 26.0893 8.909C26.0893 10.6282 27.2757 12.086 29.1109 12.086C31.0934 12.086 32.2232 10.4968 32.2232 8.909V8.88992ZM23.7539 0.217224H26.1821V3.8247V5.0581C27.1822 3.80624 28.6472 3.4697 29.5728 3.4697C31.9822 3.4697 34.6511 5.24554 34.6511 8.87087C34.6511 12.3477 32.2418 14.3662 29.462 14.3662C27.8685 14.3662 26.6269 13.5805 26.089 12.5719V14.0485H23.7539V0.217224Z" fill="black"/>
</g>
<mask id="mask1" mask-type="alpha" maskUnits="userSpaceOnUse" x="3" y="13" width="12" height="15">
<path fill-rule="evenodd" clip-rule="evenodd" d="M3.97656 13.5329H14.9106V27.7002H3.97656V13.5329Z" fill="white"/>
</mask>
<g mask="url(#mask1)">
<path fill-rule="evenodd" clip-rule="evenodd" d="M12.4835 18.9718C12.4835 17.495 11.4267 15.8133 9.36999 15.8133C8.48073 15.8133 7.72121 16.1683 7.16463 16.7474C6.62677 17.3083 6.29307 18.1119 6.29307 19.0093C6.29307 19.8881 6.62677 20.672 7.18355 21.2333C7.7389 21.7942 8.51733 22.1488 9.3889 22.1488C11.2416 22.1488 12.4835 20.672 12.4835 18.9907V18.9718ZM3.97656 13.8512H6.25635V15.3457C6.97926 14.3182 8.1646 13.5329 9.85222 13.5329C13.4093 13.5329 14.9106 16.5797 14.9106 19.0651C14.9106 21.981 12.8537 24.4294 9.86992 24.4294C7.88743 24.4294 6.8119 23.4019 6.405 22.7468V24.1117V27.7003H3.97656V13.8512Z" fill="#FFA817"/>
</g>
<path fill-rule="evenodd" clip-rule="evenodd" d="M16.7996 19.0276C16.7996 20.299 17.7088 22.1489 19.8955 22.1489C21.247 22.1489 22.1374 21.4391 22.6009 20.5043C22.8414 20.056 22.9523 19.5701 22.9899 19.0652C23.009 18.5797 22.9157 18.0748 22.7117 17.6263C22.2859 16.6542 21.3401 15.8131 19.8764 15.8131C17.9118 15.8131 16.7996 17.4206 16.7996 19.0092V19.0276ZM25.3985 24.1118H22.9713V22.6351C22.3226 23.8312 20.9699 24.4294 19.5428 24.4294C16.2808 24.4294 14.3726 21.8691 14.3726 18.9719C14.3726 15.7389 16.6889 13.533 19.5428 13.533C21.3957 13.533 22.5268 14.5239 22.9713 15.3457V13.8506H25.3985V24.1118Z" fill="#FFA817"/>
<path fill-rule="evenodd" clip-rule="evenodd" d="M28.3447 23.7192L24.5093 13.8506H27.1038L29.5866 20.6727L32.0325 13.8506H34.6273L29.2718 27.6998H26.677L28.3447 23.7192Z" fill="#FFA817"/>
<path fill-rule="evenodd" clip-rule="evenodd" d="M42.5189 7.38196C42.4026 7.26465 42.2118 7.26465 42.0963 7.38196L35.8384 13.6935C35.7218 13.8108 35.6265 13.9064 35.6265 13.9064V14.2085V21.4714C35.6265 21.6365 35.7607 21.7725 35.9248 21.7725H43.1265C43.2904 21.7725 43.5202 21.6761 43.6355 21.5594L49.8947 15.2475C50.011 15.1303 50.011 14.9386 49.8947 14.8211L42.5189 7.38196Z" fill="#FF0005"/>
<path fill-rule="evenodd" clip-rule="evenodd" d="M39.5125 16.113C39.5125 15.5699 39.1312 14.9538 38.3627 14.9538C38.0368 14.9538 37.7529 15.0824 37.5467 15.2959C37.347 15.5028 37.2262 15.7957 37.2262 16.1253C37.2262 16.4544 37.347 16.7409 37.5534 16.9481C37.7586 17.1556 38.049 17.2838 38.3695 17.2838C39.0346 17.2838 39.5125 16.7656 39.5125 16.1189V16.113ZM36.6274 14.4598H37.2261V15.0394C37.4746 14.6429 37.8982 14.363 38.4847 14.363C39.6145 14.363 40.1469 15.3144 40.1469 16.1374C40.1469 17.0763 39.476 17.8753 38.4901 17.8753C37.8071 17.8753 37.4014 17.4973 37.2572 17.2289V17.7779V18.985H36.6274V14.4598Z" fill="white"/>
<mask id="mask2" mask-type="alpha" maskUnits="userSpaceOnUse" x="0" y="0" width="50" height="28">
<path fill-rule="evenodd" clip-rule="evenodd" d="M0.133301 27.4963H49.1355V0.0134277H0.133301V27.4963Z" fill="white"/>
</mask>
<g mask="url(#mask2)">
<path fill-rule="evenodd" clip-rule="evenodd" d="M40.334 17.7773H40.9638V13.2645H40.334V17.7773Z" fill="white"/>
<path fill-rule="evenodd" clip-rule="evenodd" d="M44.3622 17.7779H43.769V17.2652C43.6127 17.6075 43.2434 17.8815 42.6567 17.8753C41.5979 17.8696 41.3262 17.0948 41.3262 16.4055V14.4598H41.9549V16.2592C41.9549 16.8573 42.1845 17.2839 42.832 17.2839C43.4484 17.2779 43.7335 16.8811 43.7335 16.314V14.4598H44.3622V17.7779Z" fill="white"/>
<path fill-rule="evenodd" clip-rule="evenodd" d="M46.182 15.3263C46.182 15.0701 46.0256 14.8749 45.7041 14.8804C45.3961 14.8804 45.2273 15.0884 45.233 15.3076C45.2452 15.5697 45.4813 15.6919 45.8316 15.7898C46.3339 15.9298 46.884 16.0759 46.9027 16.7894C46.9139 17.4358 46.3827 17.8753 45.7285 17.8753C45.2086 17.8753 44.5621 17.5763 44.5322 16.8207H45.1543C45.1785 17.2225 45.499 17.3568 45.7353 17.3568C46.0368 17.3568 46.2729 17.1431 46.2729 16.8626C46.2674 16.534 46.0191 16.4239 45.4325 16.2287C44.9735 16.0882 44.6097 15.8689 44.6042 15.3691C44.6042 14.7403 45.112 14.363 45.7109 14.363C46.1643 14.363 46.7575 14.588 46.8051 15.3263H46.182Z" fill="white"/>
</g>
</svg>
