<?xml version="1.0" encoding="UTF-8"?>
<svg width="48px" height="48px" viewBox="0 0 48 48" version="1.1" xmlns="http://www.w3.org/2000/svg" xmlns:xlink="http://www.w3.org/1999/xlink">
    <!-- Generator: Sketch 54.1 (76490) - https://sketchapp.com -->
    <title>Icon/pago-cobro/48px/Consumo/black@2x</title>
    <desc>Created with Sketch.</desc>
    <defs>
        <path d="M9.19787635,26.9662672 L7.138371,29.6536706 C6.71994166,30.1996698 5.93811781,30.3030857 5.39211855,29.8846564 C4.8461193,29.466227 4.74270345,28.6844032 5.16113277,28.1384039 L8.31801674,24.0190553 C8.84813231,23.3273191 9.9065126,23.3798904 10.3654688,24.1207552 L13.4183616,29.0488519 L25.0378022,10.582241 C25.4952586,9.85521188 26.5339858,9.79854412 27.067818,10.4714935 L35.9561113,21.6760805 L42.5413622,13.091771 C42.9600568,12.545975 43.7419306,12.4429389 44.2877267,12.8616334 C44.8335227,13.2803279 44.9365587,14.0622019 44.5178642,14.6079979 L36.9608184,24.4591064 C36.4673551,25.1023684 35.500621,25.1102248 34.9967683,24.4750678 L26.2094309,13.3977459 L14.4643488,32.0640372 C13.9738773,32.8435365 12.8363034,32.8395559 12.3512991,32.0566433 L9.19787635,26.9662672 Z M2.24554245,38.6475023 C1.55764835,38.6475023 1,38.089854 1,37.4019599 C1,36.7140658 1.55764835,36.1564174 2.24554245,36.1564174 L47.4360873,36.1564174 C48.1239813,36.1564174 48.6816297,36.7140658 48.6816297,37.4019599 C48.6816297,38.089854 48.1239813,38.6475023 47.4360873,38.6475023 L2.24554245,38.6475023 Z" id="path-1"></path>
    </defs>
    <g id="Icon/pago-cobro/48px/Consumo/black" stroke="none" stroke-width="1" fill="none" fill-rule="evenodd">
        <mask id="mask-2" fill="white">
            <use xlink:href="#path-1"></use>
        </mask>
        <g id="Combined-Shape"></g>
        <rect id="🎨-color" fill="#191919" mask="url(#mask-2)" x="1" y="0" width="48" height="48"></rect>
    </g>
</svg>