<?xml version="1.0" encoding="UTF-8"?>
<svg width="48px" height="48px" viewBox="0 0 48 48" version="1.1" xmlns="http://www.w3.org/2000/svg" xmlns:xlink="http://www.w3.org/1999/xlink">
    <!-- Generator: Sketch 54.1 (76490) - https://sketchapp.com -->
    <title>Icon-bicolor/pago-cobro/48px/Consumo/green-white@2x</title>
    <desc>Created with Sketch.</desc>
    <g id="Icon-bicolor/pago-cobro/48px/Consumo/green-white" stroke="none" stroke-width="1" fill="none" fill-rule="evenodd">
        <g id="Group" transform="translate(-0.005000, 9.619646)">
            <g id="Consumo">
                <g id="Group">
                    <g>
                        <path d="M8.40395701,17.0794724 L6.34445166,19.7668758 C5.92602232,20.312875 5.14419847,20.4162909 4.59819922,19.9978616 C4.05219996,19.5794322 3.94878411,18.7976084 4.36721344,18.2516091 L7.5240974,14.1322605 C8.05421297,13.4405243 9.11259326,13.4930956 9.5715495,14.2339604 L12.6244423,19.1620572 L24.2438828,0.69544623 C24.7013393,-0.0315829052 25.7400665,-0.088250664 26.2738987,0.584698696 L35.162192,11.7892858 L41.7474429,3.20497617 C42.1661374,2.65918023 42.9480113,2.55614415 43.4938073,2.97483864 C44.0396033,3.39353314 44.1426394,4.17540712 43.7239448,4.72120308 L36.1668991,14.5723116 C35.6734358,15.2155736 34.7067017,15.22343 34.2028489,14.588273 L25.4155116,3.51095114 L13.6704294,22.1772425 C13.179958,22.9567417 12.042384,22.9527611 11.5573797,22.1698485 L8.40395701,17.0794724 Z" id="Path" fill="#42E8B4"></path>
                        <path d="M1.45162311,28.7607075 C0.763729012,28.7607075 0.20608066,28.2030592 0.20608066,27.5151651 C0.20608066,26.827271 0.763729012,26.2696226 1.45162311,26.2696226 L46.6421679,26.2696226 C47.330062,26.2696226 47.8877104,26.827271 47.8877104,27.5151651 C47.8877104,28.2030592 47.330062,28.7607075 46.6421679,28.7607075 L1.45162311,28.7607075 Z" id="Path" fill="#FFFFFF"></path>
                    </g>
                </g>
            </g>
        </g>
    </g>
</svg>