<?xml version="1.0" encoding="UTF-8"?>
<svg width="48px" height="48px" viewBox="0 0 48 48" version="1.1" xmlns="http://www.w3.org/2000/svg" xmlns:xlink="http://www.w3.org/1999/xlink">
    <!-- Generator: Sketch 54.1 (76490) - https://sketchapp.com -->
    <title>Icon/pago-cobro/48px/Consumo/white@2x</title>
    <desc>Created with Sketch.</desc>
    <defs>
        <path d="M8.19787635,26.9662672 L6.138371,29.6536706 C5.71994166,30.1996698 4.93811781,30.3030857 4.39211855,29.8846564 C3.8461193,29.466227 3.74270345,28.6844032 4.16113277,28.1384039 L7.31801674,24.0190553 C7.84813231,23.3273191 8.9065126,23.3798904 9.36546884,24.1207552 L12.4183616,29.0488519 L24.0378022,10.582241 C24.4952586,9.85521188 25.5339858,9.79854412 26.067818,10.4714935 L34.9561113,21.6760805 L41.5413622,13.091771 C41.9600568,12.545975 42.7419306,12.4429389 43.2877267,12.8616334 C43.8335227,13.2803279 43.9365587,14.0622019 43.5178642,14.6079979 L35.9608184,24.4591064 C35.4673551,25.1023684 34.500621,25.1102248 33.9967683,24.4750678 L25.2094309,13.3977459 L13.4643488,32.0640372 C12.9738773,32.8435365 11.8363034,32.8395559 11.3512991,32.0566433 L8.19787635,26.9662672 Z M1.24554245,38.6475023 C0.557648352,38.6475023 -1.88293825e-13,38.089854 -1.88293825e-13,37.4019599 C-1.88293825e-13,36.7140658 0.557648352,36.1564174 1.24554245,36.1564174 L46.4360873,36.1564174 C47.1239813,36.1564174 47.6816297,36.7140658 47.6816297,37.4019599 C47.6816297,38.089854 47.1239813,38.6475023 46.4360873,38.6475023 L1.24554245,38.6475023 Z" id="path-1"></path>
    </defs>
    <g id="Icon/pago-cobro/48px/Consumo/white" stroke="none" stroke-width="1" fill="none" fill-rule="evenodd">
        <mask id="mask-2" fill="white">
            <use xlink:href="#path-1"></use>
        </mask>
        <g id="icon/letra-C/48px/Consumo/blue-Copy"></g>
        <rect id="🎨-color" fill="#FFFFFF" mask="url(#mask-2)" x="0" y="0" width="48" height="48"></rect>
    </g>
</svg>