<?xml version="1.0" encoding="UTF-8"?>
<svg width="48px" height="48px" viewBox="0 0 48 48" version="1.1" xmlns="http://www.w3.org/2000/svg" xmlns:xlink="http://www.w3.org/1999/xlink">
    <!-- Generator: Sketch 54.1 (76490) - https://sketchapp.com -->
    <title>Icon-bicolor/pago-cobro/48px/prestaluka/green-white@2x</title>
    <desc>Created with Sketch.</desc>
    <g id="Icon-bicolor/pago-cobro/48px/prestaluka/green-white" stroke="none" stroke-width="1" fill="none" fill-rule="evenodd">
        <g id="Group-2" transform="translate(3.000000, 2.000000)">
            <g id="boton-prestaluka">
                <g id="icono-prestaluka">
                    <path d="M22.0187399,36.8902469 C21.3068106,36.8902469 20.7296778,36.344332 20.7296778,35.6709118 C20.7296778,34.9974917 21.3068106,34.4515768 22.0187399,34.4515768 L29.9265497,34.4515768 C30.6384791,34.4515768 31.2156118,34.9974917 31.2156118,35.6709118 C31.2156118,36.344332 30.6384791,36.8902469 29.9265497,36.8902469 L22.0187399,36.8902469 Z" id="Path" fill="#FFFFFF"></path>
                    <path d="M1.03494029,34.8434826 L1.03494029,39.0689469 C1.03494029,40.5938492 5.66852581,41.8300267 11.3843432,41.8300267 C17.1001606,41.8300267 21.7337461,40.5938492 21.7337461,39.0689469 L21.7337461,35.4460219" id="Path" stroke="#FFFFFF" stroke-width="2.11250012" fill-rule="nonzero"></path>
                    <path d="M3.55271368e-15,34.2635659 C3.55271368e-15,35.8855583 4.86526479,37.200443 10.8668731,37.200443 C16.8684813,37.200443 21.3390732,36.1954702 21.3390732,34.5734778" id="Path" stroke="#FFFFFF" stroke-width="2.11250012" fill-rule="nonzero"></path>
                    <ellipse id="Oval" stroke="#FFFFFF" stroke-width="2.11250012" fill-rule="nonzero" cx="10.3494029" cy="29.3687708" rx="10.3494029" ry="2.93687708"></ellipse>
                    <g id="Group" transform="translate(17.593985, 5.873754)" fill="#42E8B4">
                        <path d="M6.99328782,4.67869176 L12.612708,10.3357957 C13.1003885,10.8267465 13.1192654,11.6426915 12.6548707,12.1582597 C12.190476,12.673828 11.4186666,12.6937843 10.9309861,12.2028334 L4.38426546,5.61221063 C3.87963339,5.10419451 3.87963339,4.25318901 4.38426546,3.74517288 L10.9309861,-2.84544992 C11.4186666,-3.33640079 12.190476,-3.31644445 12.6548707,-2.80087621 C13.1192654,-2.28530797 13.1003885,-1.46936302 12.612708,-0.978412162 L6.99328782,4.67869176 Z" id="Path" transform="translate(8.498488, 4.678692) rotate(-270.000000) translate(-8.498488, -4.678692) "></path>
                        <path d="M17.6368497,10.4872669 C18.3102698,10.4872669 18.8561847,11.0643996 18.8561847,11.776329 C18.8561847,12.4882583 18.3102698,13.065391 17.6368497,13.065391 L-0.6398739,13.065391 C-1.31329404,13.065391 -1.85920893,12.4882583 -1.85920893,11.776329 C-1.85920893,11.0643996 -1.31329404,10.4872669 -0.6398739,10.4872669 L17.6368497,10.4872669 Z" id="Path" transform="translate(8.498488, 11.776329) rotate(-270.000000) translate(-8.498488, -11.776329) "></path>
                    </g>
                    <path d="M36.3343601,15.8675867 L38.9124842,15.8675867 L38.9124842,38.996371 C38.9124842,40.6496931 37.4962892,41.9892843 35.7484228,41.9892843 L16.1968668,41.9892843 C14.4490004,41.9892843 13.0328054,40.6496931 13.0328054,38.996371 L13.0328054,3.30310934 C13.0328054,1.64978724 14.4490004,0.310196097 16.1968668,0.310196097 L34.4528117,0.310196097 L31.4419857,2.74886615 L16.1968668,2.74886615 C15.872859,2.74886615 15.6109295,2.99662751 15.6109295,3.30310934 L15.6109295,38.996371 C15.6109295,39.3028529 15.872859,39.5506142 16.1968668,39.5506142 L35.7484228,39.5506142 C36.0724306,39.5506142 36.3343601,39.3028529 36.3343601,38.996371 L36.3343601,15.8675867 Z" id="icon/letra-U/48px/Upgrade-telefono" fill="#FFFFFF" transform="translate(25.972645, 21.149740) rotate(-180.000000) translate(-25.972645, -21.149740) "></path>
                </g>
            </g>
            <path d="M0,29.1428571 L0,34.3088511 C0,35.926628 4.59329347,37.2380952 10.2594081,37.2380952 C15.9255228,37.2380952 20.5188162,35.926628 20.5188162,34.3088511 L20.5188162,29.1428571" id="Path" stroke="#FFFFFF" stroke-width="2.11250012" fill-rule="nonzero"></path>
        </g>
    </g>
</svg>