<?xml version="1.0" encoding="UTF-8"?>
<svg width="48px" height="48px" viewBox="0 0 48 48" version="1.1" xmlns="http://www.w3.org/2000/svg" xmlns:xlink="http://www.w3.org/1999/xlink">
    <!-- Generator: Sketch 54.1 (76490) - https://sketchapp.com -->
    <title>Icon/pago-cobro/48px/efectivo/white@2x</title>
    <desc>Created with Sketch.</desc>
    <g id="Icon/pago-cobro/48px/efectivo/white" stroke="none" stroke-width="1" fill="none" fill-rule="evenodd">
        <path d="M3.85966108,35.8183357 C3.37938804,35.3345017 3.38029675,34.5539628 3.86144694,34.0709532 L7.6325128,30.2886879 C8.22035049,29.7008502 9.02030843,29.4094869 9.82580713,29.4666549 C11.6928633,26.2464498 15.0556468,24.4331733 19.0058198,24.4331733 C20.4114135,24.4331733 21.7757299,24.6995962 23.0635937,25.2256064 L31.8134861,25.2256064 C32.7374878,25.2256064 33.6191536,25.5845196 34.2839209,26.2057688 L38.6168041,21.7534944 C39.9087448,20.2555084 42.1764317,20.0742331 43.6908765,21.3502877 C45.214906,22.6389467 45.407513,24.9244743 44.1216803,26.4459348 C42.4358369,28.4607854 41.0366393,30.1334292 39.7970607,31.6156006 C39.0991125,32.4501414 37.6347933,34.2013342 37.6954722,34.1287761 C37.2522523,34.6587652 37.0877359,34.8552214 37.0085001,34.9490395 C36.9584062,35.008221 36.9584062,35.008221 36.9293108,35.0405791 C36.9126586,35.0577763 36.9072743,35.0633368 36.8949617,35.0739183 C35.4730385,36.4540648 33.5975576,37.2145587 31.6152787,37.2145587 L21.0784746,37.2145587 C20.5748702,37.2145587 20.09988,37.406512 19.7375474,37.7565032 L19.1033986,38.368069 C19.3198429,39.3072689 19.0465775,40.3135735 18.3504162,41.0101402 L14.5074628,44.7958115 C14.0211989,45.2747993 13.2393523,45.2699959 12.7590642,44.7856241 L3.85966108,35.8183357 Z M35.4302168,28.8423371 C35.4302168,30.8370403 33.8081252,32.4591669 31.8134861,32.4591669 L25.3465735,32.4591669 C24.6625248,32.4591669 24.1079351,31.9045293 24.1079351,31.2201321 C24.1079351,30.5362561 24.6626974,29.9814938 25.3465735,29.9814938 L31.8134861,29.9814938 C32.4411595,29.9814938 32.9525437,29.4700875 32.9525437,28.8423371 C32.9525437,28.2143161 32.4362133,27.703676 31.8134861,27.703676 L22.8127893,27.703676 C22.6419418,27.703676 22.4731103,27.6682359 22.3161375,27.5996766 C21.2709208,27.1424589 20.1580315,26.9108464 19.0054234,26.9108464 C15.9072006,26.9108464 13.4069541,28.2594125 11.9980441,30.6586193 L17.658754,36.3193292 L18.016905,35.973561 C18.8419772,35.1768217 19.9303406,34.737282 21.0784746,34.737282 L31.6152787,34.737282 C32.9404984,34.737282 34.1925934,34.2336067 35.1147798,33.3521715 L42.2253811,24.851574 C42.6324583,24.3697057 42.5723156,23.6487868 42.0927702,23.2434716 C41.6139067,22.8396639 40.8918203,22.9007071 40.488486,23.3766983 C40.462214,23.4082633 40.3749336,23.4982696 39.5571437,24.3389378 C39.627133,24.2669905 36.977273,26.9904539 35.4209557,28.5903038 C35.4270909,28.6750454 35.4302168,28.758978 35.4302168,28.8423371 Z M6.48621531,34.9476719 L13.648166,42.1644887 L16.6053154,39.2512761 C16.7341018,39.1225328 16.7357976,38.9005409 16.6008089,38.7657631 C15.0272799,37.1942705 13.7195674,35.8866214 12.542686,34.7083525 C11.9280568,34.0929987 10.6309154,32.7932595 10.5488617,32.7111153 C10.1282406,32.2900304 9.95833542,32.1212593 9.8724344,32.0393815 C9.84085119,32.0092774 9.82644113,31.9964957 9.827385,31.9971971 C9.83985346,32.0064631 9.85745405,32.0166719 9.81663415,31.9924901 C9.67470314,31.9047269 9.50103248,31.9246115 9.3856788,32.0398021 L6.48621531,34.9476719 Z" id="Combined-Shape" fill="#FFFFFF" fill-rule="nonzero"></path>
        <path d="M27.5062976,17.7435335 C27.5062976,18.1343168 27.2188416,18.4066965 26.8394918,18.4066832 L26.410398,18.4035436 C26.0355436,18.4035436 25.7472351,18.1313079 25.7472597,17.7453472 L25.7438731,17.4032399 C24.3362648,17.1201816 23.5,16.142579 23.5,14.758518 L23.5,14.2824289 C23.5,13.9062864 23.7860204,13.6192659 24.163163,13.6192659 L24.6896986,13.6192659 C25.0658411,13.6192659 25.3528616,13.9052863 25.3528616,14.2824289 L25.3528616,14.5835316 C25.3528616,15.2668603 25.8454521,15.7001851 26.7706178,15.7001851 C27.62562,15.7001851 28.025211,15.3390344 28.025211,14.6962481 C28.025211,14.3831551 27.8387303,14.1456368 27.3070903,13.8171069 C27.1319427,13.7088734 26.9297422,13.5968565 26.6252952,13.4370948 C26.7834529,13.5201234 25.9285425,13.0747334 25.7127179,12.958638 C24.1467081,12.142637 23.576458,11.5275476 23.576458,10.2340952 C23.576458,8.81122988 24.3071711,7.8780385 25.6904827,7.58494729 L25.6904827,7.16631589 C25.6904827,6.77538852 25.9787913,6.50315291 26.3499761,6.50316637 L26.7832294,6.5 C27.1580838,6.5 27.4463924,6.77223561 27.446386,7.16062752 L27.448344,7.54739278 C28.97395,7.78461048 29.8528493,8.78877993 29.8528493,10.2711419 L29.8528493,10.6219029 C29.8528493,10.9980454 29.5668289,11.2850659 29.1896863,11.2850659 L28.6379274,11.2850659 C28.2617849,11.2850659 27.9747645,10.9990455 27.9747645,10.6219029 L27.9747645,10.4335166 C27.9747645,9.70893712 27.5198375,9.27902825 26.6074548,9.27902825 C25.8136493,9.27902825 25.465578,9.57630329 25.465578,10.1828605 C25.465578,10.577952 25.6496611,10.7860473 26.2801003,11.0960968 C26.4861632,11.1974383 27.4068421,11.6035463 27.4187508,11.6089637 C29.1373336,12.4037628 29.914331,13.2808217 29.914331,14.6442251 C29.914331,16.1467771 29.0398932,17.1786195 27.5087674,17.4289906 L27.5062976,17.7435335 Z" id="icon/letra-R/48px/Recarga" fill="#FFFFFF" fill-rule="nonzero"></path>
        <path d="M26.5,22 C21.2532949,22 17,17.7467051 17,12.5 C17,7.25329488 21.2532949,3 26.5,3 C31.7467051,3 36,7.25329488 36,12.5 C36,17.7467051 31.7467051,22 26.5,22 Z M26.5,20 C30.6421356,20 34,16.6421356 34,12.5 C34,8.35786438 30.6421356,5 26.5,5 C22.3578644,5 19,8.35786438 19,12.5 C19,16.6421356 22.3578644,20 26.5,20 Z" id="Oval" fill="#FFFFFF" fill-rule="nonzero"></path>
    </g>
</svg>