<?xml version="1.0" encoding="UTF-8"?>
<svg width="48px" height="48px" viewBox="0 0 48 48" version="1.1" xmlns="http://www.w3.org/2000/svg" xmlns:xlink="http://www.w3.org/1999/xlink">
    <!-- Generator: Sketch 54.1 (76490) - https://sketchapp.com -->
    <title>Icon/Navegacion/48px/Cerrar-sesion/blue@2x</title>
    <desc>Created with Sketch.</desc>
    <defs>
        <path d="M28.9103034,23.9866942 L28.9103034,23.9955647 C28.9103034,24.3557414 28.7733845,24.705245 28.5114959,24.9671335 L20.5723595,32.9060454 C20.3071392,33.1580045 19.9669539,33.296205 19.6096632,33.296205 C19.2434424,33.296205 18.9015823,33.1608854 18.6380944,32.8973975 C18.1033943,32.3626973 18.1033943,31.4978305 18.6380944,30.9631304 L24.2436452,25.3575796 L5.07084607,25.365941 C4.31603485,25.365941 3.7004698,24.7503759 3.7004698,23.9955647 C3.7004698,23.2407535 4.31603485,22.6251884 5.07042413,22.6251886 L24.2274308,22.6084649 L18.646965,17.0279991 C18.1122648,16.4932989 18.1122648,15.6284322 18.646965,15.093732 C19.1816651,14.5590319 20.0465319,14.5590319 20.581232,15.093732 L28.4593711,22.9726447 C28.61499,23.1141164 28.7347725,23.281812 28.8136408,23.4789828 L28.8482096,23.5654048 L28.8482096,23.5925579 C28.889988,23.7317277 28.9103034,23.8484046 28.9103034,23.9866942 Z M39.302265,0.156107383 C42.0156526,0.156107383 44.2198858,2.35730026 44.2297282,5.07470018 L44.2297282,42.9252997 C44.2297282,45.6405007 42.0263363,47.8438926 39.3111356,47.8438926 L15.6534018,47.8438926 C12.938201,47.8438926 10.734809,45.6405007 10.734809,42.9252997 L10.734809,37.0086488 C10.734809,36.2538375 11.3503741,35.6382726 12.1051853,35.6382726 C12.8599965,35.6382726 13.4755616,36.2538375 13.4755616,37.0086488 L13.4755616,42.9252997 C13.4755616,44.1220076 14.456694,45.1031399 15.6534018,45.1031399 L39.3111356,45.1031399 C40.5078431,45.1031399 41.4889758,44.1220076 41.4889758,42.9252997 L41.4889758,5.07470018 C41.4889758,3.87799232 40.5078431,2.89685993 39.3111356,2.89685993 L15.6534018,2.89685993 C14.456694,2.89685993 13.4755616,3.87799232 13.4755616,5.07470018 L13.4755616,10.6897528 C13.4755616,11.444564 12.8599965,12.0601291 12.1051853,12.0601291 C11.3503741,12.0601291 10.734809,11.444564 10.734809,10.6897528 L10.734809,5.07470018 C10.734809,2.35949933 12.938201,0.156107383 15.6534018,0.156107383 L39.302265,0.156107383 Z" id="path-1"></path>
    </defs>
    <g id="Icon/Navegacion/48px/Cerrar-sesion/blue" stroke="none" stroke-width="1" fill="none" fill-rule="evenodd">
        <mask id="mask-2" fill="white">
            <use xlink:href="#path-1"></use>
        </mask>
        <g id="icon/letra-C/48px/Cerrar-sesion/blue" fill-rule="nonzero"></g>
        <rect id="🎨-color" fill="#002EFF" mask="url(#mask-2)" x="0" y="0" width="48" height="48"></rect>
    </g>
</svg>