<?xml version="1.0" encoding="UTF-8"?>
<svg width="48px" height="48px" viewBox="0 0 48 48" version="1.1" xmlns="http://www.w3.org/2000/svg" xmlns:xlink="http://www.w3.org/1999/xlink">
    <!-- Generator: Sketch 54.1 (76490) - https://sketchapp.com -->
    <title>Icon-bicolor/Navegacion/48px/Cerrar-sesion/green-white@2x</title>
    <desc>Created with Sketch.</desc>
    <g id="Icon-bicolor/Navegacion/48px/Cerrar-sesion/green-white" stroke="none" stroke-width="1" fill="none" fill-rule="evenodd">
        <g id="Group" transform="translate(3.539362, -0.005000)" fill-rule="nonzero">
            <g id="Cerrar-sesion" transform="translate(0.000000, 0.000000)">
                <g transform="translate(-0.000000, 0.000000)">
                    <path d="M35.7629026,0.161107383 C38.4762902,0.161107383 40.6805234,2.36230026 40.6903658,5.07970018 L40.6903658,42.9302997 C40.6903658,45.6455007 38.4869739,47.8488926 35.7717732,47.8488926 L12.1140394,47.8488926 C9.39883856,47.8488926 7.19544662,45.6455007 7.19544662,42.9302997 L7.19544662,37.0136488 C7.19544662,36.2588375 7.81101166,35.6432726 8.56582289,35.6432726 C9.32063411,35.6432726 9.93619916,36.2588375 9.93619916,37.0136488 L9.93619916,42.9302997 C9.93619916,44.1270076 10.9173315,45.1081399 12.1140394,45.1081399 L35.7717732,45.1081399 C36.9684807,45.1081399 37.9496134,44.1270076 37.9496134,42.9302997 L37.9496134,5.07970018 C37.9496134,3.88299232 36.9684807,2.90185993 35.7717732,2.90185993 L12.1140394,2.90185993 C10.9173315,2.90185993 9.93619916,3.88299232 9.93619916,5.07970018 L9.93619916,10.6947528 C9.93619916,11.449564 9.32063411,12.0651291 8.56582289,12.0651291 C7.81101166,12.0651291 7.19544662,11.449564 7.19544662,10.6947528 L7.19544662,5.07970018 C7.19544662,2.36449933 9.39883856,0.161107383 12.1140394,0.161107383 L35.7629026,0.161107383 Z" id="Combined-Shape" fill="#FFFFFF"></path>
                    <path d="M25.370941,23.9916942 L25.370941,24.0005647 C25.370941,24.3607414 25.2340221,24.710245 24.9721335,24.9721335 L17.0329971,32.9110454 C16.7677768,33.1630045 16.4275915,33.301205 16.0703008,33.301205 C15.70408,33.301205 15.3622199,33.1658854 15.098732,32.9023975 C14.5640319,32.3676973 14.5640319,31.5028305 15.098732,30.9681304 L20.7042828,25.3625796 L1.53148365,25.370941 C0.776672431,25.370941 0.161107383,24.7553759 0.161107383,24.0005647 C0.161107383,23.2457535 0.776672431,22.6301884 1.53106171,22.6301886 L20.6880684,22.6134649 L15.1076026,17.0329991 C14.5729024,16.4982989 14.5729024,15.6334322 15.1076026,15.098732 C15.6423027,14.5640319 16.5071695,14.5640319 17.0418696,15.098732 L24.9200087,22.9776447 C25.0756275,23.1191164 25.1954101,23.286812 25.2742784,23.4839828 L25.3088472,23.5704048 L25.3088472,23.5975579 C25.3506256,23.7367277 25.370941,23.8534046 25.370941,23.9916942 Z" id="Combined-Shape-path" fill="#42E8B4"></path>
                </g>
            </g>
        </g>
    </g>
</svg>