<?xml version="1.0" encoding="utf-8"?>
<!-- Generator: Adobe Illustrator 22.1.0, SVG Export Plug-In . SVG Version: 6.00 Build 0)  -->
<svg version="1.0" id="Capa_1" xmlns="http://www.w3.org/2000/svg" xmlns:xlink="http://www.w3.org/1999/xlink" x="0px" y="0px"
	 viewBox="0 0 36 37" style="enable-background:new 0 0 36 37;" xml:space="preserve">
<style type="text/css">
	.st0{fill:#002EFF;}
</style>
<path class="st0" d="M18,7.3c0.6,0,1,0.4,1,1v1.5c0,0.2,0,0.3-0.1,0.5c0.4,0.1,0.8,0.2,1.2,0.4c0.7,0.4,1.4,1,1.6,1.5
	c0.3,0.5,0.5,0.9,0.6,1.4c0.1,0.4,0.1,0.8,0.1,1.2c0,0.6-0.4,1-1,1c-0.6,0-1-0.4-1-1c0-0.3,0-0.6-0.1-0.8c0-0.2-0.1-0.4-0.3-0.7
	c0,0-0.1-0.2-0.3-0.4c-0.2-0.2-0.4-0.3-0.6-0.4c-0.4-0.2-0.7-0.3-1.2-0.3c-1.5,0-2.2,1.1-2.4,1.5c-0.1,0.2-0.2,0.8,0,1.5
	c0.2,0.6,0.7,1.3,2.2,1.8c0.8,0.2,1.8,0.6,2.4,1c1.1,0.6,1.9,1.8,2.2,2.7c0.1,0.5,0.1,1.1,0,1.7c-0.1,0.6-0.3,1.4-0.8,2
	c-0.6,0.7-1.3,1.2-2,1.4c-0.2,0.1-0.4,0.1-0.6,0.2c0,0.1,0.1,0.2,0.1,0.4v1.5c0,0.6-0.4,1-1,1c-0.6,0-1-0.4-1-1v-1.5
	c0-0.1,0-0.2,0.1-0.3c-1.1-0.2-2.1-0.8-2.8-1.7c-0.5-0.6-0.7-1.3-0.8-1.8c0-0.3-0.1-0.5-0.1-0.7c0-0.2,0-0.3,0-0.3c0-0.6,0.4-1,1-1
	c0.6,0,1,0.4,1,1l0,0c0,0.3,0,1,0.4,1.6c0.5,0.7,1.3,1,1.9,1c0.4,0,0.8,0,1.1-0.1c0.3-0.1,0.7-0.3,1.1-0.8c0.2-0.2,0.3-0.6,0.4-1
	c0.1-0.4,0-0.8,0-0.9c-0.1-0.4-0.5-1.1-1.2-1.5c-0.5-0.3-1.2-0.5-2-0.8c-2.1-0.6-3.1-1.8-3.5-3.1c-0.4-1.2-0.1-2.3,0.1-2.8
	c0.3-0.8,1.4-2.4,3.5-2.7C17,10.1,17,9.9,17,9.8V8.3C17,7.8,17.4,7.3,18,7.3z"/>
<path class="st0" d="M5.8,0c-1.7,0-3,1.3-3,3v30c0,1.7,1.3,3,3,3h24.5c1.7,0,3-1.3,3-3V3c0-1.7-1.3-3-3-3H5.8z M4.8,33V3
	c0-0.6,0.4-1,1-1h24.5c0.6,0,1,0.4,1,1v30c0,0.6-0.4,1-1,1H5.8C5.2,34,4.8,33.6,4.8,33z"/>
</svg>
