<svg width="48" height="48" viewBox="0 0 48 48" fill="none" xmlns="http://www.w3.org/2000/svg">
<mask id="mask0" mask-type="alpha" maskUnits="userSpaceOnUse" x="7" y="0" width="34" height="48">
<path d="M36.9339 9.29344L31.7792 3.6762L31.803 9.29344H36.9339ZM39.739 9.29344H40.0804V10.6211V41.8434C40.0834 45.248 37.3938 48 34.0889 48H12.9938C9.68882 48 7 45.2506 7 41.8446V6.15539C7 2.74942 9.68882 0 12.9938 0H31.7636L31.7644 0.192483L31.9133 0.0558685L40.0925 8.96899L39.739 9.29344ZM29.2282 2.65527H12.9938C11.0843 2.65527 9.54661 4.22759 9.54661 6.15539V41.8446C9.54661 43.7724 11.0843 45.3447 12.9938 45.3447H34.0889C35.9976 45.3447 37.5355 43.7711 37.5338 41.8446V11.9487H29.2676L29.2282 2.65527ZM22.3329 26.8065C21.6297 26.8065 21.0596 26.2364 21.0596 25.5332C21.0596 24.83 21.6297 24.2599 22.3329 24.2599H32.6698C33.373 24.2599 33.9431 24.83 33.9431 25.5332C33.9431 26.2364 33.373 26.8065 32.6698 26.8065H22.3329ZM22.3329 34.525C21.6297 34.525 21.0596 33.9549 21.0596 33.2517C21.0596 32.5485 21.6297 31.9784 22.3329 31.9784H32.6698C33.373 31.9784 33.9431 32.5485 33.9431 33.2517C33.9431 33.9549 33.373 34.525 32.6698 34.525H22.3329ZM14.6143 26.8065C13.9111 26.8065 13.341 26.2364 13.341 25.5332C13.341 24.83 13.9111 24.2599 14.6143 24.2599H17.161C17.8642 24.2599 18.4343 24.83 18.4343 25.5332C18.4343 26.2364 17.8642 26.8065 17.161 26.8065H14.6143ZM14.6143 34.525C13.9111 34.525 13.341 33.9549 13.341 33.2517C13.341 32.5485 13.9111 31.9784 14.6143 31.9784H17.161C17.8642 31.9784 18.4343 32.5485 18.4343 33.2517C18.4343 33.9549 17.8642 34.525 17.161 34.525H14.6143ZM22.3329 19.0903C21.6297 19.0903 21.0596 18.5202 21.0596 17.817C21.0596 17.1138 21.6297 16.5437 22.3329 16.5437H32.6698C33.373 16.5437 33.9431 17.1138 33.9431 17.817C33.9431 18.5202 33.373 19.0903 32.6698 19.0903H22.3329ZM14.6143 19.0903C13.9111 19.0903 13.341 18.5202 13.341 17.817C13.341 17.1138 13.9111 16.5437 14.6143 16.5437H17.161C17.8642 16.5437 18.4343 17.1138 18.4343 17.817C18.4343 18.5202 17.8642 19.0903 17.161 19.0903H14.6143Z" fill="#0020B3"/>
</mask>
<g mask="url(#mask0)">
<path d="M48 0H0V48H48V0Z" fill="#0020B3"/>
</g>
</svg>
