<?xml version="1.0" encoding="UTF-8"?>
<svg width="48px" height="48px" viewBox="0 0 48 48" version="1.1" xmlns="http://www.w3.org/2000/svg" xmlns:xlink="http://www.w3.org/1999/xlink">
    <!-- Generator: Sketch 54.1 (76490) - https://sketchapp.com -->
    <title>Icon-bicolor/pago-cobro/48px/Boleta/green-white@2x</title>
    <desc>Created with Sketch.</desc>
    <g id="Icon-bicolor/pago-cobro/48px/Boleta/green-white" stroke="none" stroke-width="1" fill="none" fill-rule="evenodd">
        <g id="Group" transform="translate(7.000000, 0.000000)" fill-rule="nonzero">
            <path d="M29.9338967,9.29343726 L24.779167,3.67619716 L24.8029553,9.29343726 L29.9338967,9.29343726 Z M32.7389568,9.29343726 L33.0804021,9.29343726 L33.0804021,10.6210712 L33.0804017,41.8434039 C33.0833592,45.2479738 30.3938285,48 27.0889345,48 L5.99378271,48 C2.68881848,48 -3.55271368e-15,45.2505844 -3.55271368e-15,41.8446065 L-3.55271368e-15,6.15539351 C-3.55271368e-15,2.74941562 2.68881848,0 5.99378271,0 L24.7635987,0 L24.7644139,0.19248251 L24.9132856,0.0558684885 L33.0925187,8.96898685 L32.7389568,9.29343726 Z M22.2282134,2.65526779 L5.99378271,2.65526779 C4.08427582,2.65526779 2.54660525,4.22759241 2.54660525,6.15539351 L2.54660525,41.8446065 C2.54660525,43.7724077 4.08427582,45.3447322 5.99378271,45.3447322 L27.0889345,45.3447322 C28.9975976,45.3447322 30.53547,43.7711249 30.5337969,41.8446065 L30.5337969,11.9487051 L22.26757,11.9487051 L22.2282134,2.65526779 Z M15.3328787,26.8064929 C14.6296531,26.8064929 14.0595761,26.2364158 14.0595761,25.5331902 C14.0595761,24.8299646 14.6296531,24.2598876 15.3328787,24.2598876 L25.6697809,24.2598876 C26.3730065,24.2598876 26.9430835,24.8299646 26.9430835,25.5331902 C26.9430835,26.2364158 26.3730065,26.8064929 25.6697809,26.8064929 L15.3328787,26.8064929 Z M15.3328787,34.5250219 C14.6296531,34.5250219 14.0595761,33.9549448 14.0595761,33.2517192 C14.0595761,32.5484936 14.6296531,31.9784166 15.3328787,31.9784166 L25.6697809,31.9784166 C26.3730065,31.9784166 26.9430835,32.5484936 26.9430835,33.2517192 C26.9430835,33.9549448 26.3730065,34.5250219 25.6697809,34.5250219 L15.3328787,34.5250219 Z M7.61434969,26.8064929 C6.91112407,26.8064929 6.34104706,26.2364158 6.34104706,25.5331902 C6.34104706,24.8299646 6.91112407,24.2598876 7.61434969,24.2598876 L10.1609549,24.2598876 C10.8641805,24.2598876 11.4342576,24.8299646 11.4342576,25.5331902 C11.4342576,26.2364158 10.8641805,26.8064929 10.1609549,26.8064929 L7.61434969,26.8064929 Z M7.61434969,34.5250219 C6.91112407,34.5250219 6.34104706,33.9549448 6.34104706,33.2517192 C6.34104706,32.5484936 6.91112407,31.9784166 7.61434969,31.9784166 L10.1609549,31.9784166 C10.8641805,31.9784166 11.4342576,32.5484936 11.4342576,33.2517192 C11.4342576,33.9549448 10.8641805,34.5250219 10.1609549,34.5250219 L7.61434969,34.5250219 Z" id="Path" fill="#FFFFFF"></path>
            <path d="M15.3328787,19.090279 C14.6296531,19.090279 14.0595761,18.520202 14.0595761,17.8169763 C14.0595761,17.1137507 14.6296531,16.5436737 15.3328787,16.5436737 L25.6697809,16.5436737 C26.3730065,16.5436737 26.9430835,17.1137507 26.9430835,17.8169763 C26.9430835,18.520202 26.3730065,19.090279 25.6697809,19.090279 L15.3328787,19.090279 Z" id="Path" fill="#42E8B4"></path>
            <path d="M7.61434969,19.090279 C6.91112407,19.090279 6.34104706,18.520202 6.34104706,17.8169763 C6.34104706,17.1137507 6.91112407,16.5436737 7.61434969,16.5436737 L10.1609549,16.5436737 C10.8641805,16.5436737 11.4342576,17.1137507 11.4342576,17.8169763 C11.4342576,18.520202 10.8641805,19.090279 10.1609549,19.090279 L7.61434969,19.090279 Z" id="Path" fill="#42E8B4"></path>
        </g>
    </g>
</svg>