<?xml version="1.0" encoding="UTF-8"?>
<svg width="48px" height="48px" viewBox="0 0 48 48" version="1.1" xmlns="http://www.w3.org/2000/svg" xmlns:xlink="http://www.w3.org/1999/xlink">
    <!-- Generator: Sketch 54.1 (76490) - https://sketchapp.com -->
    <title>Icon/pago-cobro/48px/Boleta/white@2x</title>
    <desc>Created with Sketch.</desc>
    <defs>
        <path d="M36.9338967,9.29343726 L31.779167,3.67619716 L31.8029553,9.29343726 L36.9338967,9.29343726 Z M39.7389568,9.29343726 L40.0804021,9.29343726 L40.0804021,10.6210712 L40.0804017,41.8434039 C40.0833592,45.2479738 37.3938285,48 34.0889345,48 L12.9937827,48 C9.68881848,48 7,45.2505844 7,41.8446065 L7,6.15539351 C7,2.74941562 9.68881848,0 12.9937827,0 L31.7635987,0 L31.7644139,0.19248251 L31.9132856,0.0558684885 L40.0925187,8.96898685 L39.7389568,9.29343726 Z M29.2282134,2.65526779 L12.9937827,2.65526779 C11.0842758,2.65526779 9.54660525,4.22759241 9.54660525,6.15539351 L9.54660525,41.8446065 C9.54660525,43.7724077 11.0842758,45.3447322 12.9937827,45.3447322 L34.0889345,45.3447322 C35.9975976,45.3447322 37.53547,43.7711249 37.5337969,41.8446065 L37.5337969,11.9487051 L29.26757,11.9487051 L29.2282134,2.65526779 Z M22.3328787,26.8064929 C21.6296531,26.8064929 21.0595761,26.2364158 21.0595761,25.5331902 C21.0595761,24.8299646 21.6296531,24.2598876 22.3328787,24.2598876 L32.6697809,24.2598876 C33.3730065,24.2598876 33.9430835,24.8299646 33.9430835,25.5331902 C33.9430835,26.2364158 33.3730065,26.8064929 32.6697809,26.8064929 L22.3328787,26.8064929 Z M22.3328787,34.5250219 C21.6296531,34.5250219 21.0595761,33.9549448 21.0595761,33.2517192 C21.0595761,32.5484936 21.6296531,31.9784166 22.3328787,31.9784166 L32.6697809,31.9784166 C33.3730065,31.9784166 33.9430835,32.5484936 33.9430835,33.2517192 C33.9430835,33.9549448 33.3730065,34.5250219 32.6697809,34.5250219 L22.3328787,34.5250219 Z M14.6143497,26.8064929 C13.9111241,26.8064929 13.3410471,26.2364158 13.3410471,25.5331902 C13.3410471,24.8299646 13.9111241,24.2598876 14.6143497,24.2598876 L17.1609549,24.2598876 C17.8641805,24.2598876 18.4342576,24.8299646 18.4342576,25.5331902 C18.4342576,26.2364158 17.8641805,26.8064929 17.1609549,26.8064929 L14.6143497,26.8064929 Z M14.6143497,34.5250219 C13.9111241,34.5250219 13.3410471,33.9549448 13.3410471,33.2517192 C13.3410471,32.5484936 13.9111241,31.9784166 14.6143497,31.9784166 L17.1609549,31.9784166 C17.8641805,31.9784166 18.4342576,32.5484936 18.4342576,33.2517192 C18.4342576,33.9549448 17.8641805,34.5250219 17.1609549,34.5250219 L14.6143497,34.5250219 Z M22.3328787,19.090279 C21.6296531,19.090279 21.0595761,18.520202 21.0595761,17.8169763 C21.0595761,17.1137507 21.6296531,16.5436737 22.3328787,16.5436737 L32.6697809,16.5436737 C33.3730065,16.5436737 33.9430835,17.1137507 33.9430835,17.8169763 C33.9430835,18.520202 33.3730065,19.090279 32.6697809,19.090279 L22.3328787,19.090279 Z M14.6143497,19.090279 C13.9111241,19.090279 13.3410471,18.520202 13.3410471,17.8169763 C13.3410471,17.1137507 13.9111241,16.5436737 14.6143497,16.5436737 L17.1609549,16.5436737 C17.8641805,16.5436737 18.4342576,17.1137507 18.4342576,17.8169763 C18.4342576,18.520202 17.8641805,19.090279 17.1609549,19.090279 L14.6143497,19.090279 Z" id="path-1"></path>
    </defs>
    <g id="Icon/pago-cobro/48px/Boleta/white" stroke="none" stroke-width="1" fill="none" fill-rule="evenodd">
        <mask id="mask-2" fill="white">
            <use xlink:href="#path-1"></use>
        </mask>
        <g id="icon/letra-B/48px/Boleta/blue-Copy" fill-rule="nonzero"></g>
        <rect id="🎨-color" fill="#FFFFFF" mask="url(#mask-2)" x="0" y="0" width="48" height="48"></rect>
    </g>
</svg>