<?xml version="1.0" encoding="UTF-8"?>
<svg width="48px" height="48px" viewBox="0 0 48 48" version="1.1" xmlns="http://www.w3.org/2000/svg" xmlns:xlink="http://www.w3.org/1999/xlink">
    <!-- Generator: Sketch 54.1 (76490) - https://sketchapp.com -->
    <title>Icon-bicolor/pago-cobro/48px/Reporte/green-blue@2x</title>
    <desc>Created with Sketch.</desc>
    <g id="Icon-bicolor/pago-cobro/48px/Reporte/green-blue" stroke="none" stroke-width="1" fill="none" fill-rule="evenodd">
        <g id="Group" transform="translate(7.000000, 0.000000)">
            <g id="Reporte">
                <g id="Group">
                    <g>
                        <path d="M10.6566017,26.9719101 C10.6566017,27.7911997 9.99243623,28.4553652 9.17314663,28.4553652 C8.35385703,28.4553652 7.68969157,27.7911997 7.68969157,26.9719101 L7.68969157,23.341491 C7.68969157,22.5222014 8.35385703,21.858036 9.17314663,21.858036 C9.99243623,21.858036 10.6566017,22.5222014 10.6566017,23.341491 L10.6566017,26.9719101 Z" id="Path" fill="#42E8B4"></path>
                        <path d="M16.5014146,26.9719101 C16.5014146,27.7911997 15.8372491,28.4553652 15.0179596,28.4553652 C14.19867,28.4553652 13.5345045,27.7911997 13.5345045,26.9719101 L13.5345045,19.7434382 C13.5345045,18.9241486 14.19867,18.2599831 15.0179596,18.2599831 C15.8372491,18.2599831 16.5014146,18.9241486 16.5014146,19.7434382 L16.5014146,26.9719101 Z" id="Path" fill="#42E8B4"></path>
                        <path d="M22.6159466,26.9719101 C22.6159466,27.7911997 21.9517812,28.4553652 21.1324916,28.4553652 C20.313202,28.4553652 19.6490365,27.7911997 19.6490365,26.9719101 L19.6490365,15.4629961 C19.6490365,14.6437065 20.313202,13.979541 21.1324916,13.979541 C21.9517812,13.979541 22.6159466,14.6437065 22.6159466,15.4629961 L22.6159466,26.9719101 Z" id="Path" fill="#42E8B4"></path>
                        <path d="M28.6387742,26.9719101 C28.6387742,27.7911997 27.9746087,28.4553652 27.1553191,28.4553652 C26.3360295,28.4553652 25.671864,27.7911997 25.671864,26.9719101 L25.671864,11.8271826 C25.671864,11.007893 26.3360295,10.3437275 27.1553191,10.3437275 C27.9746087,10.3437275 28.6387742,11.007893 28.6387742,11.8271826 L28.6387742,26.9719101 Z" id="Path" fill="#42E8B4"></path>
                        <path d="M31.7405438,44.819223 C32.4101037,44.819223 32.9542798,44.2750469 32.9542798,43.6054871 L32.9542798,4.31550562 C32.9542798,3.64594578 32.4101037,3.10176966 31.7405438,3.10176966 L4.4099073,3.10176966 C3.74034747,3.10176966 3.19617135,3.64594578 3.19617135,4.31550562 L3.19617135,43.6054871 C3.19617135,44.2750469 3.74034747,44.819223 4.4099073,44.819223 L31.7405438,44.819223 Z M31.7405438,47.7861331 L4.4099073,47.7861331 C2.10176826,47.7861331 0.229261236,45.9136261 0.229261236,43.6054871 L0.229261236,4.31550562 C0.229261236,2.00736658 2.10176826,0.134859551 4.4099073,0.134859551 L31.7405438,0.134859551 C34.0486828,0.134859551 35.9211899,2.00736658 35.9211899,4.31550562 L35.9211899,43.6054871 C35.9211899,45.9136261 34.0486828,47.7861331 31.7405438,47.7861331 Z" id="Path" fill="#002EFF" fill-rule="nonzero"></path>
                        <path d="M9.18534141,34.3406306 C8.36605478,34.3384278 7.70367737,33.6724792 7.70588009,32.8531926 C7.7080828,32.033906 8.37403151,31.3715284 9.19331814,31.3737312 L27.251012,31.4222807 C28.0702986,31.4244835 28.7326761,32.0904321 28.7304733,32.9097187 C28.7282705,33.7290053 28.0623219,34.3913828 27.2430352,34.38918 L9.18534141,34.3406306 Z" id="Path" fill="#002EFF"></path>
                        <path d="M9.18534141,40.0047317 C8.36605478,40.0025289 7.70367737,39.3365803 7.70588009,38.5172937 C7.7080828,37.6980071 8.37403151,37.0356296 9.19331814,37.0378324 L27.251012,37.0863818 C28.0702986,37.0885846 28.7326761,37.7545332 28.7304733,38.5738198 C28.7282705,39.3931064 28.0623219,40.0554839 27.2430352,40.0532811 L9.18534141,40.0047317 Z" id="Path" fill="#002EFF"></path>
                    </g>
                </g>
            </g>
        </g>
    </g>
</svg>