<?xml version="1.0" encoding="UTF-8"?>
<svg width="48px" height="48px" viewBox="0 0 48 48" version="1.1" xmlns="http://www.w3.org/2000/svg" xmlns:xlink="http://www.w3.org/1999/xlink">
    <!-- Generator: Sketch 54.1 (76490) - https://sketchapp.com -->
    <title>Icon/pago-cobro/48px/Reporte/white@2x</title>
    <desc>Created with Sketch.</desc>
    <defs>
        <path d="M16.5854219,26.9669101 C16.5854219,27.7861997 15.9212565,28.4503652 15.1019669,28.4503652 C14.2826773,28.4503652 13.6185118,27.7861997 13.6185118,26.9669101 L13.6185118,23.336491 C13.6185118,22.5172014 14.2826773,21.853036 15.1019669,21.853036 C15.9212565,21.853036 16.5854219,22.5172014 16.5854219,23.336491 L16.5854219,26.9669101 Z M22.4302348,26.9669101 C22.4302348,27.7861997 21.7660694,28.4503652 20.9467798,28.4503652 C20.1274902,28.4503652 19.4633247,27.7861997 19.4633247,26.9669101 L19.4633247,19.7384382 C19.4633247,18.9191486 20.1274902,18.2549831 20.9467798,18.2549831 C21.7660694,18.2549831 22.4302348,18.9191486 22.4302348,19.7384382 L22.4302348,26.9669101 Z M28.5447669,26.9669101 C28.5447669,27.7861997 27.8806014,28.4503652 27.0613118,28.4503652 C26.2420222,28.4503652 25.5778567,27.7861997 25.5778567,26.9669101 L25.5778567,15.4579961 C25.5778567,14.6387065 26.2420222,13.974541 27.0613118,13.974541 C27.8806014,13.974541 28.5447669,14.6387065 28.5447669,15.4579961 L28.5447669,26.9669101 Z M34.5675944,26.9669101 C34.5675944,27.7861997 33.9034289,28.4503652 33.0841393,28.4503652 C32.2648497,28.4503652 31.6006843,27.7861997 31.6006843,26.9669101 L31.6006843,11.8221826 C31.6006843,11.002893 32.2648497,10.3387275 33.0841393,10.3387275 C33.9034289,10.3387275 34.5675944,11.002893 34.5675944,11.8221826 L34.5675944,26.9669101 Z M37.669364,44.814223 C38.3389239,44.814223 38.8831,44.2700469 38.8831,43.6004871 L38.8831,4.31050562 C38.8831,3.64094578 38.3389239,3.09676966 37.669364,3.09676966 L10.3387275,3.09676966 C9.66916769,3.09676966 9.12499157,3.64094578 9.12499157,4.31050562 L9.12499157,43.6004871 C9.12499157,44.2700469 9.66916769,44.814223 10.3387275,44.814223 L37.669364,44.814223 Z M37.669364,47.7811331 L10.3387275,47.7811331 C8.03058849,47.7811331 6.15808146,45.9086261 6.15808146,43.6004871 L6.15808146,4.31050562 C6.15808146,2.00236658 8.03058849,0.129859551 10.3387275,0.129859551 L37.669364,0.129859551 C39.9775031,0.129859551 41.8500101,2.00236658 41.8500101,4.31050562 L41.8500101,43.6004871 C41.8500101,45.9086261 39.9775031,47.7811331 37.669364,47.7811331 Z M15.1141616,34.3356306 C14.294875,34.3334278 13.6324976,33.6674792 13.6347003,32.8481926 C13.636903,32.028906 14.3028517,31.3665284 15.1221384,31.3687312 L33.1798322,31.4172807 C33.9991188,31.4194835 34.6614963,32.0854321 34.6592935,32.9047187 C34.6570907,33.7240053 33.9911421,34.3863828 33.1718555,34.38418 L15.1141616,34.3356306 Z M15.1141616,39.9997317 C14.294875,39.9975289 13.6324976,39.3315803 13.6347003,38.5122937 C13.636903,37.6930071 14.3028517,37.0306296 15.1221384,37.0328324 L33.1798322,37.0813818 C33.9991188,37.0835846 34.6614963,37.7495332 34.6592935,38.5688198 C34.6570907,39.3881064 33.9911421,40.0504839 33.1718555,40.0482811 L15.1141616,39.9997317 Z" id="path-1"></path>
    </defs>
    <g id="Icon/pago-cobro/48px/Reporte/white" stroke="none" stroke-width="1" fill="none" fill-rule="evenodd">
        <mask id="mask-2" fill="white">
            <use xlink:href="#path-1"></use>
        </mask>
        <g id="icon/letra-R/48px/Reporte/blue-Copy"></g>
        <rect id="🎨-color" fill="#FFFFFF" mask="url(#mask-2)" x="0" y="0" width="48" height="48"></rect>
    </g>
</svg>