<svg width="38" height="38" viewBox="0 0 38 38" fill="none" xmlns="http://www.w3.org/2000/svg">
<g clip-path="url(#clip0)">
<path d="M33.8387 1.21073C33.7362 0.752059 33.3567 0.407164 32.8903 0.348828C28.2955 -0.225477 24.0509 -0.0902501 20.2744 0.750723C15.4653 1.82148 11.3427 4.04834 8.02044 7.37007C2.83945 12.5563 2.83945 20.9949 8.02096 26.1815C8.52075 26.6811 9.05386 27.1353 9.61459 27.5436V36.8867C9.61459 37.5015 10.113 38 10.7279 38C11.3427 38 11.8411 37.5015 11.8411 36.8867V28.8531C13.5695 29.6528 15.4663 30.0749 17.4287 30.0749C20.9842 30.0749 24.3238 28.692 26.832 26.1814C30.7533 22.2604 29.9412 16.8577 29.6741 13.8258C29.266 9.19704 28.9135 5.19947 33.3475 2.39437C33.7446 2.14307 33.9413 1.66948 33.8387 1.21073ZM9.59514 8.94418C13.5162 5.02387 18.6115 2.81074 24.8012 2.32609C22.1464 3.6195 19.581 5.50577 17.3411 7.87016C12.9492 12.506 10.298 18.4195 9.73066 24.7392C5.29372 20.4482 5.22536 13.3183 9.59514 8.94418ZM27.456 14.0214C27.8054 17.9853 28.1354 21.7293 25.2571 24.6074C23.1692 26.6974 20.389 27.8484 17.4286 27.8484C15.4398 27.8484 13.532 27.3282 11.86 26.3537C12.0884 20.003 14.587 14.0147 18.9574 9.40136C20.9655 7.28175 23.3176 5.5313 25.7596 4.33927C26.9502 3.75807 28.1515 3.31439 29.3305 3.01618C28.4555 4.1368 27.8625 5.41856 27.5391 6.88119C27.0296 9.18524 27.2464 11.6438 27.456 14.0214Z" fill="#017E4E"/>
</g>
<defs>
<clipPath id="clip0">
<rect width="38" height="38" fill="white"/>
</clipPath>
</defs>
</svg>
