<?xml version="1.0" encoding="UTF-8"?>
<svg width="48px" height="48px" viewBox="0 0 48 48" version="1.1" xmlns="http://www.w3.org/2000/svg" xmlns:xlink="http://www.w3.org/1999/xlink">
    <!-- Generator: Sketch 54.1 (76490) - https://sketchapp.com -->
    <title>Icon/Beneficios/48px/Beneficios/black@2x</title>
    <desc>Created with Sketch.</desc>
    <defs>
        <path d="M24.0895453,5.68936746 L18.5711236,16.876264 C18.2510429,17.5272303 17.6289822,17.9794705 16.9088658,18.0853899 L4.55376397,19.8822777 L13.4928296,28.5976203 C14.0112272,29.1055442 14.2503648,29.8375154 14.1247076,30.5496136 L12.0151825,42.8535608 L23.0655392,37.0440231 C23.708435,36.7066961 24.473565,36.7066961 25.1177406,37.0446956 L36.1638719,42.8533358 L34.0557098,30.5572405 C33.928726,29.8375154 34.1678637,29.1055442 34.6890847,28.5948607 L43.6253267,19.8822773 L31.2676641,18.0850153 C30.5483206,17.9792075 29.9229631,17.5274662 29.6088735,16.878104 L24.0895453,5.68936746 Z M32.2473043,14.9931676 L46.0766396,17.0044638 C47.8840103,17.2687543 48.6100831,19.4906073 47.2994608,20.7697871 L37.2964368,30.5224467 L39.658294,44.2981572 C39.9641881,46.1022523 38.0702608,47.477797 36.4548048,46.6223699 L24.090948,40.1208062 L11.7283476,46.6202269 C10.10819,47.4781359 8.21377577,46.0983061 8.52129239,44.2952507 L10.8826687,30.5224675 L0.879020986,20.7691929 C-0.430763084,19.4908309 0.291802316,17.2676938 2.10367966,17.0042847 L15.9317329,14.9931774 L22.1067452,2.47534642 C22.9066033,0.82196199 25.2593253,0.821206543 26.0675848,2.46558821 L32.2473043,14.9931676 Z" id="path-1"></path>
    </defs>
    <g id="Icon/Beneficios/48px/Beneficios/black" stroke="none" stroke-width="1" fill="none" fill-rule="evenodd">
        <mask id="mask-2" fill="white">
            <use xlink:href="#path-1"></use>
        </mask>
        <g id="icon/letra-B/48px/Beneficio" fill-rule="nonzero"></g>
        <rect id="🎨-color" fill="#191919" mask="url(#mask-2)" x="0" y="0" width="48" height="48"></rect>
    </g>
</svg>