<svg width="48" height="48" viewBox="0 0 48 48" fill="none" xmlns="http://www.w3.org/2000/svg">
<g clip-path="url(#clip0)">
<mask id="mask0" mask-type="alpha" maskUnits="userSpaceOnUse" x="0" y="1" width="48" height="46">
<path d="M23.886 5.45587L18.366 16.6435C18.0459 17.2946 17.4236 17.7468 16.7033 17.8528L4.34477 19.6498L13.2863 28.3657C13.8049 28.8737 14.0441 29.6057 13.9184 30.3178L11.8083 42.6227L22.8617 36.8127C23.5048 36.4754 24.2701 36.4754 24.9145 36.8134L35.9637 42.6224L33.8549 30.3255C33.7279 29.6057 33.9671 28.8737 34.4885 28.363L43.4272 19.6498L31.0661 17.8524C30.3465 17.7466 29.721 17.2948 29.4068 16.6454L23.886 5.45587ZM32.046 14.7603L45.8792 16.7718C47.6871 17.0361 48.4133 19.2581 47.1023 20.5373L37.0965 30.2907L39.4591 44.0673C39.765 45.8716 37.8706 47.2472 36.2547 46.3917L23.8874 39.8897L11.5213 46.3896C9.90074 47.2475 8.0058 45.8676 8.3134 44.0644L10.6754 30.2907L0.669006 20.5367C-0.641141 19.2583 0.0816246 17.035 1.89401 16.7716L15.7259 14.7603L21.9026 2.24163C22.7027 0.588132 25.0561 0.587376 25.8646 2.23187L32.046 14.7603Z" fill="white"/>
</mask>
<g mask="url(#mask0)">
<path d="M48 0H0V48H48V0Z" fill="#0020B3"/>
</g>
<mask id="mask1" mask-type="alpha" maskUnits="userSpaceOnUse" x="0" y="1" width="48" height="46">
<path d="M23.886 5.45587L18.366 16.6435C18.0459 17.2946 17.4236 17.7468 16.7033 17.8528L4.34477 19.6498L13.2863 28.3657C13.8049 28.8737 14.0441 29.6057 13.9184 30.3178L11.8083 42.6227L22.8617 36.8127C23.5048 36.4754 24.2701 36.4754 24.9145 36.8134L35.9637 42.6224L33.8549 30.3255C33.7279 29.6057 33.9671 28.8737 34.4885 28.363L43.4272 19.6498L31.0661 17.8524C30.3465 17.7466 29.721 17.2948 29.4068 16.6454L23.886 5.45587ZM32.046 14.7603L45.8792 16.7718C47.6871 17.0361 48.4133 19.2581 47.1023 20.5373L37.0965 30.2907L39.4591 44.0673C39.765 45.8716 37.8706 47.2472 36.2547 46.3917L23.8874 39.8897L11.5213 46.3896C9.90074 47.2475 8.0058 45.8676 8.3134 44.0644L10.6754 30.2907L0.669006 20.5367C-0.641141 19.2583 0.0816246 17.035 1.89401 16.7716L15.7259 14.7603L21.9026 2.24163C22.7027 0.588132 25.0561 0.587376 25.8646 2.23187L32.046 14.7603Z" fill="white"/>
</mask>
<g mask="url(#mask1)">
<path d="M23.886 5.45587L18.366 16.6435C18.0459 17.2946 17.4236 17.7468 16.7033 17.8528L4.34477 19.6498L13.2863 28.3657C13.8049 28.8737 14.0441 29.6057 13.9184 30.3178L11.8083 42.6227L22.8617 36.8127C23.5048 36.4754 24.2701 36.4754 24.9145 36.8134L35.9637 42.6224L33.8549 30.3255C33.7279 29.6057 33.9671 28.8737 34.4885 28.363L43.4272 19.6498L31.0661 17.8524C30.3465 17.7466 29.721 17.2948 29.4068 16.6454L23.886 5.45587ZM32.046 14.7603L45.8792 16.7718C47.6871 17.0361 48.4133 19.2581 47.1023 20.5373L37.0965 30.2907L39.4591 44.0673C39.765 45.8716 37.8706 47.2472 36.2547 46.3917L23.8874 39.8897L11.5213 46.3896C9.90074 47.2475 8.0058 45.8676 8.3134 44.0644L10.6754 30.2907L0.669006 20.5367C-0.641141 19.2583 0.0816246 17.035 1.89401 16.7716L15.7259 14.7603L21.9026 2.24163C22.7027 0.588132 25.0561 0.587376 25.8646 2.23187L32.046 14.7603Z" fill="#0020B3"/>
</g>
</g>
<defs>
<clipPath id="clip0">
<rect width="48" height="48" fill="white"/>
</clipPath>
</defs>
</svg>
