<?xml version="1.0" encoding="UTF-8"?>
<svg width="48px" height="48px" viewBox="0 0 48 48" version="1.1" xmlns="http://www.w3.org/2000/svg" xmlns:xlink="http://www.w3.org/1999/xlink">
    <!-- Generator: Sketch 54.1 (76490) - https://sketchapp.com -->
    <title>Icon-bicolor/Beneficios/48px/Beneficios/green-blue@2x</title>
    <desc>Created with Sketch.</desc>
    <g id="Icon-bicolor/Beneficios/48px/Beneficios/green-blue" stroke="none" stroke-width="1" fill="none" fill-rule="evenodd">
        <g id="Beneficios" transform="translate(0.000000, 1.000000)" fill-rule="nonzero">
            <path d="M23.8859782,4.45587492 L18.3660235,15.6435482 C18.045854,16.2945596 17.4236204,16.7468312 16.703304,16.852758 L4.34477023,18.6497705 L13.2863189,27.3657183 C13.8048606,27.8736775 14.0440646,28.6056994 13.9183725,29.3178472 L11.8082614,41.6226485 L22.8616876,35.8127075 C23.504762,35.4753571 24.2701045,35.4753571 24.9144591,35.81338 L35.9636587,41.6224236 L33.8549111,29.3254746 C33.7278919,28.6056994 33.9670961,27.8736775 34.4884618,27.3629585 L43.4271862,18.6497702 L31.0660909,16.8523834 C30.3465476,16.7465682 29.7210163,16.2947956 29.4068396,15.6453883 L23.8859782,4.45587492 Z M32.0460032,13.760321 L45.87918,15.7717568 C47.6870528,16.0360657 48.4133272,18.258073 47.1023409,19.5373416 L37.0965382,29.2906783 L39.4590515,43.0673453 C39.7650306,44.8715656 37.8705772,46.2472058 36.2546725,45.3917193 L23.8873812,38.8897043 L11.5213468,45.3895762 C9.90073915,46.2475448 8.0057987,44.8676192 8.31340074,43.0644386 L10.675433,29.2906991 L0.669006482,19.5367473 C-0.641141417,18.2582965 0.0816246953,16.0350051 1.89400534,15.7715777 L15.7258997,13.7603309 L21.9026273,1.24163073 C22.7027076,-0.41186849 25.0560831,-0.41262399 25.8645671,1.23187185 L32.0460032,13.760321 Z" id="Path" fill="#002EFF"></path>
            <path d="M23.8859774,10.4826548 L20.7589568,16.8204006 C20.0511404,18.2596273 18.678654,19.2576175 17.0870197,19.4916732 L10.0748251,20.5112927 L15.1523985,25.4607621 C16.2983035,26.5832813 16.823386,28.2009438 16.546673,29.768566 L15.3496913,36.7485883 L21.6228896,33.4512481 C23.0420845,32.7067527 24.7335536,32.7071563 26.1553914,33.4530415 L32.4221438,36.7477451 L31.2288216,29.7889021 C30.9487876,28.2020428 31.4728481,26.5840619 32.627088,25.453404 L37.6971265,20.5112893 L30.678107,19.4906744 C29.0874642,19.2567564 27.7066478,18.2542744 27.0154167,16.8253069 L23.8859774,10.4826548 Z M23.8859782,4.45587492 L29.4068396,15.6453883 C29.7210163,16.2947956 30.3465476,16.7465682 31.0660909,16.8523834 L43.4271862,18.6497702 L34.4884618,27.3629585 C33.9670961,27.8736775 33.7278919,28.6056994 33.8549111,29.3254746 L35.9636587,41.6224236 L24.9144591,35.81338 C24.2701045,35.4753571 23.504762,35.4753571 22.8616876,35.8127075 L11.8082614,41.6226485 L13.9183725,29.3178472 C14.0440646,28.6056994 13.8048606,27.8736775 13.2863189,27.3657183 L4.34477023,18.6497705 L16.703304,16.852758 C17.4236204,16.7468312 18.045854,16.2945596 18.3660235,15.6435482 L23.8859782,4.45587492 Z" id="Path-path" fill="#42E8B4"></path>
        </g>
        <g id="Beneficios" transform="translate(0.000000, 1.000000)" fill-rule="nonzero">
            <path d="M23.8859782,4.45587492 L18.3660235,15.6435482 C18.045854,16.2945596 17.4236204,16.7468312 16.703304,16.852758 L4.34477023,18.6497705 L13.2863189,27.3657183 C13.8048606,27.8736775 14.0440646,28.6056994 13.9183725,29.3178472 L11.8082614,41.6226485 L22.8616876,35.8127075 C23.504762,35.4753571 24.2701045,35.4753571 24.9144591,35.81338 L35.9636587,41.6224236 L33.8549111,29.3254746 C33.7278919,28.6056994 33.9670961,27.8736775 34.4884618,27.3629585 L43.4271862,18.6497702 L31.0660909,16.8523834 C30.3465476,16.7465682 29.7210163,16.2947956 29.4068396,15.6453883 L23.8859782,4.45587492 Z M32.0460032,13.760321 L45.87918,15.7717568 C47.6870528,16.0360657 48.4133272,18.258073 47.1023409,19.5373416 L37.0965382,29.2906783 L39.4590515,43.0673453 C39.7650306,44.8715656 37.8705772,46.2472058 36.2546725,45.3917193 L23.8873812,38.8897043 L11.5213468,45.3895762 C9.90073915,46.2475448 8.0057987,44.8676192 8.31340074,43.0644386 L10.675433,29.2906991 L0.669006482,19.5367473 C-0.641141417,18.2582965 0.0816246953,16.0350051 1.89400534,15.7715777 L15.7258997,13.7603309 L21.9026273,1.24163073 C22.7027076,-0.41186849 25.0560831,-0.41262399 25.8645671,1.23187185 L32.0460032,13.760321 Z" id="Path" fill="#002EFF"></path>
            <path d="M23.8859774,10.4826548 L20.7589568,16.8204006 C20.0511404,18.2596273 18.678654,19.2576175 17.0870197,19.4916732 L10.0748251,20.5112927 L15.1523985,25.4607621 C16.2983035,26.5832813 16.823386,28.2009438 16.546673,29.768566 L15.3496913,36.7485883 L21.6228896,33.4512481 C23.0420845,32.7067527 24.7335536,32.7071563 26.1553914,33.4530415 L32.4221438,36.7477451 L31.2288216,29.7889021 C30.9487876,28.2020428 31.4728481,26.5840619 32.627088,25.453404 L37.6971265,20.5112893 L30.678107,19.4906744 C29.0874642,19.2567564 27.7066478,18.2542744 27.0154167,16.8253069 L23.8859774,10.4826548 Z M23.8859782,4.45587492 L29.4068396,15.6453883 C29.7210163,16.2947956 30.3465476,16.7465682 31.0660909,16.8523834 L43.4271862,18.6497702 L34.4884618,27.3629585 C33.9670961,27.8736775 33.7278919,28.6056994 33.8549111,29.3254746 L35.9636587,41.6224236 L24.9144591,35.81338 C24.2701045,35.4753571 23.504762,35.4753571 22.8616876,35.8127075 L11.8082614,41.6226485 L13.9183725,29.3178472 C14.0440646,28.6056994 13.8048606,27.8736775 13.2863189,27.3657183 L4.34477023,18.6497705 L16.703304,16.852758 C17.4236204,16.7468312 18.045854,16.2945596 18.3660235,15.6435482 L23.8859782,4.45587492 Z" id="Path-path" fill="#42E8B4"></path>
        </g>
    </g>
</svg>