<?xml version="1.0" encoding="UTF-8"?>
<svg width="48px" height="48px" viewBox="0 0 48 48" version="1.1" xmlns="http://www.w3.org/2000/svg" xmlns:xlink="http://www.w3.org/1999/xlink">
    <!-- Generator: Sketch 54.1 (76490) - https://sketchapp.com -->
    <title>Icon/Beneficios/48px/Beneficios/white@2x</title>
    <desc>Created with Sketch.</desc>
    <defs>
        <path d="M23.8859782,5.45587492 L18.3660235,16.6435482 C18.045854,17.2945596 17.4236204,17.7468312 16.703304,17.852758 L4.34477023,19.6497705 L13.2863189,28.3657183 C13.8048606,28.8736775 14.0440646,29.6056994 13.9183725,30.3178472 L11.8082614,42.6226485 L22.8616876,36.8127075 C23.504762,36.4753571 24.2701045,36.4753571 24.9144591,36.81338 L35.9636587,42.6224236 L33.8549111,30.3254746 C33.7278919,29.6056994 33.9670961,28.8736775 34.4884618,28.3629585 L43.4271862,19.6497702 L31.0660909,17.8523834 C30.3465476,17.7465682 29.7210163,17.2947956 29.4068396,16.6453883 L23.8859782,5.45587492 Z M32.0460032,14.760321 L45.87918,16.7717568 C47.6870528,17.0360657 48.4133272,19.258073 47.1023409,20.5373416 L37.0965382,30.2906783 L39.4590515,44.0673453 C39.7650306,45.8715656 37.8705772,47.2472058 36.2546725,46.3917193 L23.8873812,39.8897043 L11.5213468,46.3895762 C9.90073915,47.2475448 8.0057987,45.8676192 8.31340074,44.0644386 L10.675433,30.2906991 L0.669006482,20.5367473 C-0.641141417,19.2582965 0.0816246953,17.0350051 1.89400534,16.7715777 L15.7258997,14.7603309 L21.9026273,2.24163073 C22.7027076,0.58813151 25.0560831,0.58737601 25.8645671,2.23187185 L32.0460032,14.760321 Z" id="path-1"></path>
        <path d="M23.8859782,5.45587492 L18.3660235,16.6435482 C18.045854,17.2945596 17.4236204,17.7468312 16.703304,17.852758 L4.34477023,19.6497705 L13.2863189,28.3657183 C13.8048606,28.8736775 14.0440646,29.6056994 13.9183725,30.3178472 L11.8082614,42.6226485 L22.8616876,36.8127075 C23.504762,36.4753571 24.2701045,36.4753571 24.9144591,36.81338 L35.9636587,42.6224236 L33.8549111,30.3254746 C33.7278919,29.6056994 33.9670961,28.8736775 34.4884618,28.3629585 L43.4271862,19.6497702 L31.0660909,17.8523834 C30.3465476,17.7465682 29.7210163,17.2947956 29.4068396,16.6453883 L23.8859782,5.45587492 Z M32.0460032,14.760321 L45.87918,16.7717568 C47.6870528,17.0360657 48.4133272,19.258073 47.1023409,20.5373416 L37.0965382,30.2906783 L39.4590515,44.0673453 C39.7650306,45.8715656 37.8705772,47.2472058 36.2546725,46.3917193 L23.8873812,39.8897043 L11.5213468,46.3895762 C9.90073915,47.2475448 8.0057987,45.8676192 8.31340074,44.0644386 L10.675433,30.2906991 L0.669006482,20.5367473 C-0.641141417,19.2582965 0.0816246953,17.0350051 1.89400534,16.7715777 L15.7258997,14.7603309 L21.9026273,2.24163073 C22.7027076,0.58813151 25.0560831,0.58737601 25.8645671,2.23187185 L32.0460032,14.760321 Z" id="path-3"></path>
    </defs>
    <g id="Icon/Beneficios/48px/Beneficios/white" stroke="none" stroke-width="1" fill="none" fill-rule="evenodd">
        <mask id="mask-2" fill="white">
            <use xlink:href="#path-1"></use>
        </mask>
        <g id="icon/letra-B/48px/Beneficios/blue-Copy" fill-rule="nonzero"></g>
        <rect id="🎨-color" fill="#FFFFFF" mask="url(#mask-2)" x="0" y="0" width="48" height="48"></rect>
        <mask id="mask-4" fill="white">
            <use xlink:href="#path-3"></use>
        </mask>
        <g id="icon/letra-B/48px/Beneficios/blue-Copy" fill-rule="nonzero"></g>
        <path d="M23.8859782,5.45587492 L18.3660235,16.6435482 C18.045854,17.2945596 17.4236204,17.7468312 16.703304,17.852758 L4.34477023,19.6497705 L13.2863189,28.3657183 C13.8048606,28.8736775 14.0440646,29.6056994 13.9183725,30.3178472 L11.8082614,42.6226485 L22.8616876,36.8127075 C23.504762,36.4753571 24.2701045,36.4753571 24.9144591,36.81338 L35.9636587,42.6224236 L33.8549111,30.3254746 C33.7278919,29.6056994 33.9670961,28.8736775 34.4884618,28.3629585 L43.4271862,19.6497702 L31.0660909,17.8523834 C30.3465476,17.7465682 29.7210163,17.2947956 29.4068396,16.6453883 L23.8859782,5.45587492 Z M32.0460032,14.760321 L45.87918,16.7717568 C47.6870528,17.0360657 48.4133272,19.258073 47.1023409,20.5373416 L37.0965382,30.2906783 L39.4590515,44.0673453 C39.7650306,45.8715656 37.8705772,47.2472058 36.2546725,46.3917193 L23.8873812,39.8897043 L11.5213468,46.3895762 C9.90073915,47.2475448 8.0057987,45.8676192 8.31340074,44.0644386 L10.675433,30.2906991 L0.669006482,20.5367473 C-0.641141417,19.2582965 0.0816246953,17.0350051 1.89400534,16.7715777 L15.7258997,14.7603309 L21.9026273,2.24163073 C22.7027076,0.58813151 25.0560831,0.58737601 25.8645671,2.23187185 L32.0460032,14.760321 Z" id="icon/letra-B/48px/Beneficios/blue" fill="#FFFFFF" fill-rule="nonzero" mask="url(#mask-4)"></path>
    </g>
</svg>