<?xml version="1.0" encoding="UTF-8"?>
<svg width="48px" height="48px" viewBox="0 0 48 48" version="1.1" xmlns="http://www.w3.org/2000/svg" xmlns:xlink="http://www.w3.org/1999/xlink">
    <!-- Generator: Sketch 54.1 (76490) - https://sketchapp.com -->
    <title>Icon/pago-cobro/48px/Carrito-compra/black@2x</title>
    <desc>Created with Sketch.</desc>
    <defs>
        <path d="M48.826534,8.81538556 C48.8943315,9.02858278 48.9058131,9.26260803 48.8478491,9.49563701 L45.4736048,23.0608723 C44.1926732,28.218376 39.7315671,31.7000332 34.7365191,31.2235464 L12.7081634,31.2235464 L13.1973705,35.6316706 L13.2005595,35.6642985 C13.3417427,37.3345221 14.1522379,38.4569558 15.3043514,38.8532904 C16.0540365,36.5964558 18.1823994,34.9687815 20.6909261,34.9687815 C23.1458415,34.9687815 25.236669,36.5276273 26.0275555,38.7094659 L32.7971715,38.7094659 C33.5880579,36.5276273 35.6788854,34.9687815 38.1338009,34.9687815 C41.2678714,34.9687815 43.8085374,37.5094475 43.8085374,40.643518 C43.8085374,43.7775885 41.2678714,46.3182545 38.1338009,46.3182545 C35.1917194,46.3182545 32.7725669,44.07933 32.4872193,41.2123569 L26.3375077,41.2123569 C26.0521601,44.07933 23.6330075,46.3182545 20.6909261,46.3182545 C17.8076661,46.3182545 15.426634,44.1679613 15.0640054,41.3835502 C12.6841718,40.8557249 10.9580892,38.7787333 10.7080185,35.8921253 L7.3284088,5.43929798 C7.15659662,4.54089543 5.78760981,3.502891 4.36752607,3.502891 L2.2514455,3.502891 C1.56029123,3.502891 1,2.94259976 1,2.2514455 C1,1.56029123 1.56029123,1 2.2514455,1 L4.36752607,1 C6.97708841,1 9.44410306,2.88972762 9.80251723,5.05761145 L9.80796068,5.09053639 L9.81811898,5.18207035 C9.84938654,5.18190399 9.88089273,5.18289949 9.91259301,5.18509559 L47.6834935,7.80175436 C48.2629304,7.84189607 48.7228231,8.27039489 48.826534,8.81538556 Z M46.0933646,10.2004847 L10.0983155,7.7068518 L12.4303963,28.7206555 L34.8619433,28.7206555 L34.9254258,28.7271466 C38.6543866,29.1084309 42.0468269,26.4746205 43.0446187,22.4571421 L46.0933646,10.2004847 Z M15.0276679,40.2796426 C15.0328726,40.1973972 15.0398294,40.1156276 15.0485012,40.0343707 C15.0347525,40.1086641 15.0275664,40.1852597 15.0275664,40.2635336 C15.0275664,40.2689113 15.0276003,40.274281 15.0276679,40.2796426 Z M20.6909261,43.8153635 C22.442688,43.8153635 23.8627716,42.3952798 23.8627716,40.643518 C23.8627716,38.8917562 22.442688,37.4716725 20.6909261,37.4716725 C18.9391642,37.4716725 17.5190806,38.8917562 17.5190806,40.643518 C17.5190806,42.3952798 18.9391642,43.8153635 20.6909261,43.8153635 Z M38.1338009,43.8153635 C39.8855628,43.8153635 41.3056464,42.3952798 41.3056464,40.643518 C41.3056464,38.8917562 39.8855628,37.4716725 38.1338009,37.4716725 C36.3820391,37.4716725 34.9619555,38.8917562 34.9619555,40.643518 C34.9619555,42.3952798 36.3820391,43.8153635 38.1338009,43.8153635 Z" id="path-1"></path>
    </defs>
    <g id="Icon/pago-cobro/48px/Carrito-compra/black" stroke="none" stroke-width="1" fill="none" fill-rule="evenodd">
        <mask id="mask-2" fill="white">
            <use xlink:href="#path-1"></use>
        </mask>
        <g id="Combined-Shape" fill-rule="nonzero"></g>
        <rect id="🎨-color" fill="#191919" mask="url(#mask-2)" x="1" y="0" width="48" height="48"></rect>
    </g>
</svg>