<?xml version="1.0" encoding="UTF-8"?>
<svg width="48px" height="48px" viewBox="0 0 48 48" version="1.1" xmlns="http://www.w3.org/2000/svg" xmlns:xlink="http://www.w3.org/1999/xlink">
    <!-- Generator: Sketch 54.1 (76490) - https://sketchapp.com -->
    <title>Icon/pago-cobro/48px/Carrito-compra/blue@2x</title>
    <desc>Created with Sketch.</desc>
    <defs>
        <path d="M47.826534,8.81538556 C47.8943315,9.02858278 47.9058131,9.26260803 47.8478491,9.49563701 L44.4736048,23.0608723 C43.1926732,28.218376 38.7315671,31.7000332 33.7365191,31.2235464 L11.7081634,31.2235464 L12.1973705,35.6316706 L12.2005595,35.6642985 C12.3417427,37.3345221 13.1522379,38.4569558 14.3043514,38.8532904 C15.0540365,36.5964558 17.1823994,34.9687815 19.6909261,34.9687815 C22.1458415,34.9687815 24.236669,36.5276273 25.0275555,38.7094659 L31.7971715,38.7094659 C32.5880579,36.5276273 34.6788854,34.9687815 37.1338009,34.9687815 C40.2678714,34.9687815 42.8085374,37.5094475 42.8085374,40.643518 C42.8085374,43.7775885 40.2678714,46.3182545 37.1338009,46.3182545 C34.1917194,46.3182545 31.7725669,44.07933 31.4872193,41.2123569 L25.3375077,41.2123569 C25.0521601,44.07933 22.6330075,46.3182545 19.6909261,46.3182545 C16.8076661,46.3182545 14.426634,44.1679613 14.0640054,41.3835502 C11.6841718,40.8557249 9.95808918,38.7787333 9.70801853,35.8921253 L6.3284088,5.43929798 C6.15659662,4.54089543 4.78760981,3.502891 3.36752607,3.502891 L1.2514455,3.502891 C0.560291235,3.502891 3.72146758e-13,2.94259976 3.72146758e-13,2.2514455 C3.72146758e-13,1.56029123 0.560291235,1 1.2514455,1 L3.36752607,1 C5.97708841,1 8.44410306,2.88972762 8.80251723,5.05761145 L8.80796068,5.09053639 L8.81811898,5.18207035 C8.84938654,5.18190399 8.88089273,5.18289949 8.91259301,5.18509559 L46.6834935,7.80175436 C47.2629304,7.84189607 47.7228231,8.27039489 47.826534,8.81538556 Z M45.0933646,10.2004847 L9.09831549,7.7068518 L11.4303963,28.7206555 L33.8619433,28.7206555 L33.9254258,28.7271466 C37.6543866,29.1084309 41.0468269,26.4746205 42.0446187,22.4571421 L45.0933646,10.2004847 Z M14.0276679,40.2796426 C14.0328726,40.1973972 14.0398294,40.1156276 14.0485012,40.0343707 C14.0347525,40.1086641 14.0275664,40.1852597 14.0275664,40.2635336 C14.0275664,40.2689113 14.0276003,40.274281 14.0276679,40.2796426 Z M19.6909261,43.8153635 C21.442688,43.8153635 22.8627716,42.3952798 22.8627716,40.643518 C22.8627716,38.8917562 21.442688,37.4716725 19.6909261,37.4716725 C17.9391642,37.4716725 16.5190806,38.8917562 16.5190806,40.643518 C16.5190806,42.3952798 17.9391642,43.8153635 19.6909261,43.8153635 Z M37.1338009,43.8153635 C38.8855628,43.8153635 40.3056464,42.3952798 40.3056464,40.643518 C40.3056464,38.8917562 38.8855628,37.4716725 37.1338009,37.4716725 C35.3820391,37.4716725 33.9619555,38.8917562 33.9619555,40.643518 C33.9619555,42.3952798 35.3820391,43.8153635 37.1338009,43.8153635 Z" id="path-1"></path>
    </defs>
    <g id="Icon/pago-cobro/48px/Carrito-compra/blue" stroke="none" stroke-width="1" fill="none" fill-rule="evenodd">
        <mask id="mask-2" fill="white">
            <use xlink:href="#path-1"></use>
        </mask>
        <g id="Combined-Shape" fill-rule="nonzero"></g>
        <rect id="🎨-color" fill="#002EFF" mask="url(#mask-2)" x="0" y="0" width="48" height="48"></rect>
    </g>
</svg>