<?xml version="1.0" encoding="UTF-8"?>
<svg width="48px" height="48px" viewBox="0 0 48 48" version="1.1" xmlns="http://www.w3.org/2000/svg" xmlns:xlink="http://www.w3.org/1999/xlink">
    <!-- Generator: Sketch 54.1 (76490) - https://sketchapp.com -->
    <title>Icon-bicolor/pago-cobro/48px/Carrito-compra/green-blue@2x</title>
    <desc>Created with Sketch.</desc>
    <g id="Icon-bicolor/pago-cobro/48px/Carrito-compra/green-blue" stroke="none" stroke-width="1" fill="none" fill-rule="evenodd">
        <g id="Group" transform="translate(0.000000, 1.000000)">
            <g id="Carrito-compra">
                <g id="Group-2">
                    <g>
                        <g id="Group">
                            <g>
                                <path d="M25.0753379,37.8505379 L31.844954,37.8505379 C32.6358404,35.6686993 34.7266679,34.1098536 37.1815834,34.1098536 C40.3156539,34.1098536 42.8563199,36.6505195 42.8563199,39.78459 C42.8563199,42.9186605 40.3156539,45.4593265 37.1815834,45.4593265 C34.2395019,45.4593265 31.8203494,43.220402 31.5350018,40.3534289 L25.3852902,40.3534289 C25.0999426,43.220402 22.68079,45.4593265 19.7387085,45.4593265 C16.6046381,45.4593265 14.063972,42.9186605 14.063972,39.78459 C14.063972,36.6505195 16.6046381,34.1098536 19.7387085,34.1098536 C22.193624,34.1098536 24.2844515,35.6686993 25.0753379,37.8505379 Z M19.7387085,42.9564355 C21.4904704,42.9564355 22.910554,41.5363519 22.910554,39.78459 C22.910554,38.0328282 21.4904704,36.6127445 19.7387085,36.6127445 C17.9869466,36.6127445 16.566863,38.0328282 16.566863,39.78459 C16.566863,41.5363519 17.9869466,42.9564355 19.7387085,42.9564355 Z M37.1815834,42.9564355 C38.9333452,42.9564355 40.3534289,41.5363519 40.3534289,39.78459 C40.3534289,38.0328282 38.9333452,36.6127445 37.1815834,36.6127445 C35.4298216,36.6127445 34.0097379,38.0328282 34.0097379,39.78459 C34.0097379,41.5363519 35.4298216,42.9564355 37.1815834,42.9564355 Z" id="Combined-Shape" fill="#42E8B4" fill-rule="nonzero"></path>
                                <path d="M15.331345,40.6560512 C15.3285144,40.6560512 15.3256845,40.6560491 15.3228551,40.656045 C14.6335124,40.653921 14.0753488,40.0944464 14.0753488,39.4046057 C14.0753488,38.7134515 14.6356401,38.1531602 15.3267943,38.1531602 L15.331345,38.1531602 L15.331345,40.6560512 L15.3267943,40.6560512 C15.3254808,40.6560512 15.3241677,40.6560491 15.3228551,40.656045 C12.3332518,40.6517708 10.0465936,38.3898663 9.75580099,35.0331973 L6.37619126,4.58037002 C6.20437908,3.68196747 4.83539227,2.64396303 3.41530853,2.64396303 L1.29922796,2.64396303 C0.608073699,2.64396303 0.0477824645,2.0836718 0.0477824645,1.39251754 C0.0477824645,0.701363273 0.608073699,0.141072038 1.29922796,0.141072038 L3.41530853,0.141072038 C6.02487087,0.141072038 8.49188552,2.03079965 8.85029969,4.19868349 L8.85574314,4.23160843 L12.245153,34.7727426 L12.248342,34.8053706 C12.4268456,36.917102 13.6752828,38.1531602 15.331345,38.1531602 L15.331345,40.6560512 Z" id="Path" fill="#002EFF"></path>
                                <path d="M33.7843016,30.3646185 L11.1492417,30.3646185 C10.4580874,30.3646185 9.89779621,29.8043272 9.89779621,29.113173 C9.89779621,28.4220188 10.4580874,27.8617275 11.1492417,27.8617275 L33.9097258,27.8617275 L33.9732082,27.8682186 C37.702169,28.2495029 41.0946093,25.6156925 42.0924012,21.5982142 L45.4667533,8.03254498 C45.6335887,7.36182878 46.3125582,6.95335262 46.9832745,7.12018794 C47.6539906,7.28702324 48.0624667,7.96599288 47.8956315,8.63670905 L44.5213873,22.2019444 C43.2404557,27.359448 38.7793496,30.8411052 33.7843016,30.3646185 Z" id="Path" fill="#002EFF"></path>
                            </g>
                            <path d="M8.78739704,6.82307408 C8.09789535,6.7753074 7.57766636,6.1776333 7.62543303,5.48813163 C7.67319971,4.79862994 8.27087381,4.27840096 8.96037547,4.32616763 L46.7312759,6.9428264 C47.4207776,6.99059307 47.9410067,7.58826717 47.8932399,8.27776884 C47.8454734,8.96727053 47.2477992,9.48749952 46.5582975,9.43973284 L8.78739704,6.82307408 Z" id="Path" fill="#002EFF"></path>
                        </g>
                    </g>
                </g>
            </g>
        </g>
    </g>
</svg>