<?xml version="1.0" encoding="UTF-8"?>
<svg width="48px" height="48px" viewBox="0 0 48 48" version="1.1" xmlns="http://www.w3.org/2000/svg" xmlns:xlink="http://www.w3.org/1999/xlink">
    <!-- Generator: Sketch 54.1 (76490) - https://sketchapp.com -->
    <title>Icon/Navegacion/48px/Cerrar/white@2x</title>
    <desc>Created with Sketch.</desc>
    <g id="Icon/Navegacion/48px/Cerrar/white" stroke="none" stroke-width="1" fill="none" fill-rule="evenodd">
        <g id="Group" transform="translate(0.207434, -0.005000)" fill="#FFFFFF">
            <g id="cerrar">
                <g id="Group">
                    <g>
                        <path d="M0.981831139,4.37149629 C0.0692657265,3.45893088 0.0692657265,1.97937001 0.981831139,1.06680459 C1.89439656,0.154239178 3.37395743,0.154239178 4.28652284,1.06680459 L46.8879625,43.6682444 C47.8005281,44.5808098 47.8005281,46.0603708 46.8879625,46.972936 C45.9753974,47.8855016 44.4958364,47.8855016 43.583271,46.972936 L0.981831139,4.37149629 Z" id="Path"></path>
                        <path d="M43.583271,1.06680459 C44.4958364,0.154239178 45.9753974,0.154239178 46.8879625,1.06680459 C47.8005281,1.97937001 47.8005281,3.45893088 46.8879625,4.37149629 L4.28652284,46.972936 C3.37395743,47.8855016 1.89439656,47.8855016 0.981831139,46.972936 C0.0692657265,46.0603708 0.0692657265,44.5808098 0.981831139,43.6682444 L43.583271,1.06680459 Z" id="Path"></path>
                    </g>
                </g>
            </g>
        </g>
    </g>
</svg>