<?xml version="1.0" encoding="UTF-8"?>
<svg width="36px" height="36px" viewBox="0 0 48 48" version="1.1" xmlns="http://www.w3.org/2000/svg" xmlns:xlink="http://www.w3.org/1999/xlink">
    <!-- Generator: Sketch 54.1 (76490) - https://sketchapp.com -->
    <title>Icon-bicolor/Beneficios/48px/Camioneta/green-blue@2x</title>
    <desc>Created with Sketch.</desc>
    <g id="Icon-bicolor/Beneficios/48px/Camioneta/green-blue" stroke="none" stroke-width="1" fill="none" fill-rule="evenodd">
        <g id="Group-11" transform="translate(1.000000, 11.000000)" fill-rule="nonzero">
            <path d="M31.9137833,14.6157566 C32.5441769,14.6157566 33.0552119,15.1267916 33.0552119,15.7571852 C33.0552119,16.3875788 32.5441769,16.8986138 31.9137833,16.8986138 L11.4600796,16.8986138 C10.829686,16.8986138 10.3186511,16.3875788 10.3186511,15.7571852 C10.3186511,15.1267916 10.829686,14.6157566 11.4600796,14.6157566 L31.9137833,14.6157566 Z" id="Stroke-5" fill="#002EFF"></path>
            <path d="M39.3119315,16.8986138 C38.6815379,16.8986138 38.1705029,16.3875788 38.1705029,15.7571852 C38.1705029,15.1267916 38.6815379,14.6157566 39.3119315,14.6157566 L46.030608,14.6157566 C46.6610016,14.6157566 47.1720366,15.1267916 47.1720366,15.7571852 C47.1720366,16.3875788 46.6610016,16.8986138 46.030608,16.8986138 L39.3119315,16.8986138 Z" id="Stroke-7" fill="#002EFF"></path>
            <path d="M29.7182119,5.72548766 L43.4811299,5.72548766 C44.853163,5.72548766 45.9654156,6.83774026 45.9654156,8.20977338 L45.9654156,15.1044074 C45.9654156,15.734801 45.4543806,16.245836 44.823987,16.245836 C44.1935934,16.245836 43.6825585,15.734801 43.6825585,15.1044074 L43.6825585,8.20977338 C43.6825585,8.09852745 43.5923758,8.0083448 43.4811299,8.0083448 L27.4353548,8.0083448 L27.4353548,3.12089947 C27.4353548,2.26801402 26.7439545,1.57661376 25.891069,1.57661376 L19.9138142,1.57661376 C18.7937335,1.57661376 17.6996446,1.91413226 16.7742292,2.54515306 L10.8362686,6.59412029 L4.33712053,7.10054809 C2.8550487,7.21603436 1.70292218,8.43802502 1.67478736,9.92432324 L1.59798323,13.9817109 C1.59611101,14.0806164 1.66633601,14.1662431 1.76369482,14.1837663 L4.26412331,14.6338074 C4.88454773,14.7454749 5.29697673,15.3389526 5.18530927,15.959377 C5.0736418,16.5798014 4.48016407,16.9922304 3.85973966,16.880563 L1.35931116,16.4305218 C0.158552601,16.2144026 -0.707555812,15.1583396 -0.684465018,13.9385054 L-0.607660888,9.88111774 C-0.557279944,7.21960697 1.50583034,5.03139114 4.15977292,4.82459014 L10.0526203,4.36540662 L15.4881342,0.65904696 C16.7926354,-0.230464289 18.3349052,-0.706243386 19.9138142,-0.706243386 L25.891069,-0.706243386 C28.0047417,-0.706243386 29.7182119,1.00722684 29.7182119,3.12089947 L29.7182119,5.72548766 Z" id="Stroke-9" fill="#002EFF"></path>
            <path d="M38.1033601,15.7571852 C38.1033601,14.3819015 36.9881411,13.2666825 35.6128574,13.2666825 C34.2375737,13.2666825 33.1223548,14.3819015 33.1223548,15.7571852 C33.1223548,17.1329947 34.2372291,18.2476878 35.6128574,18.2476878 C36.9884857,18.2476878 38.1033601,17.1329947 38.1033601,15.7571852 Z M40.5205029,15.7571852 C40.5205029,18.4680338 38.3233489,20.6648307 35.6128574,20.6648307 C32.9023659,20.6648307 30.7052119,18.4680338 30.7052119,15.7571852 C30.7052119,13.0469504 32.9026226,10.8495397 35.6128574,10.8495397 C38.3230922,10.8495397 40.5205029,13.0469504 40.5205029,15.7571852 Z" id="Stroke-1" fill="#42E8B4"></path>
            <path d="M10.2515082,15.7571852 C10.2515082,14.3819015 9.13628925,13.2666825 7.76100556,13.2666825 C6.38572187,13.2666825 5.27050291,14.3819015 5.27050291,15.7571852 C5.27050291,17.1329947 6.38537726,18.2476878 7.76100556,18.2476878 C9.13663386,18.2476878 10.2515082,17.1329947 10.2515082,15.7571852 Z M12.6686511,15.7571852 C12.6686511,18.4680338 10.4714971,20.6648307 7.76100556,20.6648307 C5.05051406,20.6648307 2.85336005,18.4680338 2.85336005,15.7571852 C2.85336005,13.0469504 5.05077073,10.8495397 7.76100556,10.8495397 C10.4712404,10.8495397 12.6686511,13.0469504 12.6686511,15.7571852 Z" id="Stroke-3" fill="#42E8B4"></path>
        </g>
    </g>
</svg>
