<?xml version="1.0" encoding="UTF-8"?>
<svg width="48px" height="48px" viewBox="0 0 48 48" version="1.1" xmlns="http://www.w3.org/2000/svg" xmlns:xlink="http://www.w3.org/1999/xlink">
    <!-- Generator: Sketch 54.1 (76490) - https://sketchapp.com -->
    <title>Icon-bicolor/Beneficios/48px/Camioneta/green-white@2x</title>
    <desc>Created with Sketch.</desc>
    <g id="Icon-bicolor/Beneficios/48px/Camioneta/green-white" stroke="none" stroke-width="1" fill="none" fill-rule="evenodd">
        <g id="Group-11" transform="translate(0.000000, 10.000000)" fill-rule="nonzero">
            <path d="M32.9137833,15.6157566 C33.5441769,15.6157566 34.0552119,16.1267916 34.0552119,16.7571852 C34.0552119,17.3875788 33.5441769,17.8986138 32.9137833,17.8986138 L12.4600796,17.8986138 C11.829686,17.8986138 11.3186511,17.3875788 11.3186511,16.7571852 C11.3186511,16.1267916 11.829686,15.6157566 12.4600796,15.6157566 L32.9137833,15.6157566 Z" id="Stroke-5" fill="#FFFFFF"></path>
            <path d="M40.3119315,17.8986138 C39.6815379,17.8986138 39.1705029,17.3875788 39.1705029,16.7571852 C39.1705029,16.1267916 39.6815379,15.6157566 40.3119315,15.6157566 L47.030608,15.6157566 C47.6610016,15.6157566 48.1720366,16.1267916 48.1720366,16.7571852 C48.1720366,17.3875788 47.6610016,17.8986138 47.030608,17.8986138 L40.3119315,17.8986138 Z" id="Stroke-7" fill="#FFFFFF"></path>
            <path d="M30.7182119,6.72548766 L44.4811299,6.72548766 C45.853163,6.72548766 46.9654156,7.83774026 46.9654156,9.20977338 L46.9654156,16.1044074 C46.9654156,16.734801 46.4543806,17.245836 45.823987,17.245836 C45.1935934,17.245836 44.6825585,16.734801 44.6825585,16.1044074 L44.6825585,9.20977338 C44.6825585,9.09852745 44.5923758,9.0083448 44.4811299,9.0083448 L28.4353548,9.0083448 L28.4353548,4.12089947 C28.4353548,3.26801402 27.7439545,2.57661376 26.891069,2.57661376 L20.9138142,2.57661376 C19.7937335,2.57661376 18.6996446,2.91413226 17.7742292,3.54515306 L11.8362686,7.59412029 L5.33712053,8.10054809 C3.8550487,8.21603436 2.70292218,9.43802502 2.67478736,10.9243232 L2.59798323,14.9817109 C2.59611101,15.0806164 2.66633601,15.1662431 2.76369482,15.1837663 L5.26412331,15.6338074 C5.88454773,15.7454749 6.29697673,16.3389526 6.18530927,16.959377 C6.0736418,17.5798014 5.48016407,17.9922304 4.85973966,17.880563 L2.35931116,17.4305218 C1.1585526,17.2144026 0.292444188,16.1583396 0.315534982,14.9385054 L0.392339112,10.8811177 C0.442720056,8.21960697 2.50583034,6.03139114 5.15977292,5.82459014 L11.0526203,5.36540662 L16.4881342,1.65904696 C17.7926354,0.769535711 19.3349052,0.293756614 20.9138142,0.293756614 L26.891069,0.293756614 C29.0047417,0.293756614 30.7182119,2.00722684 30.7182119,4.12089947 L30.7182119,6.72548766 Z" id="Stroke-9" fill="#FFFFFF"></path>
            <path d="M39.1033601,16.7571852 C39.1033601,15.3819015 37.9881411,14.2666825 36.6128574,14.2666825 C35.2375737,14.2666825 34.1223548,15.3819015 34.1223548,16.7571852 C34.1223548,18.1329947 35.2372291,19.2476878 36.6128574,19.2476878 C37.9884857,19.2476878 39.1033601,18.1329947 39.1033601,16.7571852 Z M41.5205029,16.7571852 C41.5205029,19.4680338 39.3233489,21.6648307 36.6128574,21.6648307 C33.9023659,21.6648307 31.7052119,19.4680338 31.7052119,16.7571852 C31.7052119,14.0469504 33.9026226,11.8495397 36.6128574,11.8495397 C39.3230922,11.8495397 41.5205029,14.0469504 41.5205029,16.7571852 Z" id="Stroke-1" fill="#42E8B4"></path>
            <path d="M11.2515082,16.7571852 C11.2515082,15.3819015 10.1362892,14.2666825 8.76100556,14.2666825 C7.38572187,14.2666825 6.27050291,15.3819015 6.27050291,16.7571852 C6.27050291,18.1329947 7.38537726,19.2476878 8.76100556,19.2476878 C10.1366339,19.2476878 11.2515082,18.1329947 11.2515082,16.7571852 Z M13.6686511,16.7571852 C13.6686511,19.4680338 11.4714971,21.6648307 8.76100556,21.6648307 C6.05051406,21.6648307 3.85336005,19.4680338 3.85336005,16.7571852 C3.85336005,14.0469504 6.05077073,11.8495397 8.76100556,11.8495397 C11.4712404,11.8495397 13.6686511,14.0469504 13.6686511,16.7571852 Z" id="Stroke-3" fill="#42E8B4"></path>
        </g>
    </g>
</svg>