<?xml version="1.0" encoding="UTF-8"?>
<svg width="48px" height="48px" viewBox="0 0 48 48" version="1.1" xmlns="http://www.w3.org/2000/svg" xmlns:xlink="http://www.w3.org/1999/xlink">
    <!-- Generator: Sketch 54.1 (76490) - https://sketchapp.com -->
    <title>Icon/Beneficios/48px/Camioneta/white@2x</title>
    <desc>Created with Sketch.</desc>
    <defs>
        <path d="M4.03963455,25.4134171 C4.62405615,23.3563554 6.51670311,21.8495397 8.76100556,21.8495397 C11.0782712,21.8495397 13.0206447,23.4559224 13.5351949,25.6157566 L31.838668,25.6157566 C32.3532182,23.4559224 34.2955918,21.8495397 36.6128574,21.8495397 C38.930123,21.8495397 40.8724966,23.4559224 41.3870468,25.6157566 L44.6825585,25.6157566 L44.6825585,19.2097734 C44.6825585,19.0985274 44.5923758,19.0083448 44.4811299,19.0083448 L28.4353548,19.0083448 L28.4353548,14.1208995 C28.4353548,13.268014 27.7439545,12.5766138 26.891069,12.5766138 L20.9138142,12.5766138 C19.7937335,12.5766138 18.6996446,12.9141323 17.7742292,13.5451531 L11.8362686,17.5941203 L5.33712053,18.1005481 C3.8550487,18.2160344 2.70292218,19.438025 2.67478736,20.9243232 L2.59798323,24.9817109 C2.59611101,25.0806164 2.66633601,25.1662431 2.76369482,25.1837663 L4.03963455,25.4134171 Z M3.94700553,27.716284 L2.35931116,27.4305218 C1.1585526,27.2144026 0.292444188,26.1583396 0.315534982,24.9385054 L0.392339112,20.8811177 C0.442720056,18.219607 2.50583034,16.0313911 5.15977292,15.8245901 L11.0526203,15.3654066 L16.4881342,11.659047 C17.7926354,10.7695357 19.3349052,10.2937566 20.9138142,10.2937566 L26.891069,10.2937566 C29.0047417,10.2937566 30.7182119,12.0072268 30.7182119,14.1208995 L30.7182119,16.7254877 L44.4811299,16.7254877 C45.853163,16.7254877 46.9654156,17.8377403 46.9654156,19.2097734 L46.9654156,25.6157566 L47.030608,25.6157566 C47.6610016,25.6157566 48.1720366,26.1267916 48.1720366,26.7571852 C48.1720366,27.3875788 47.6610016,27.8986138 47.030608,27.8986138 L41.3871071,27.8986138 C40.8726772,30.0587999 38.9304123,31.6648307 36.6128574,31.6648307 C34.2953025,31.6648307 32.3530376,30.0587999 31.8386077,27.8986138 L13.5352553,27.8986138 C13.0208254,30.0587999 11.0785604,31.6648307 8.76100556,31.6648307 C6.37870238,31.6648307 4.39295194,29.9678071 3.94700553,27.716284 Z M39.1033601,26.7571852 C39.1033601,25.3819015 37.9881411,24.2666825 36.6128574,24.2666825 C35.2375737,24.2666825 34.1223548,25.3819015 34.1223548,26.7571852 C34.1223548,28.1329947 35.2372291,29.2476878 36.6128574,29.2476878 C37.9884857,29.2476878 39.1033601,28.1329947 39.1033601,26.7571852 Z M11.2515082,26.7571852 C11.2515082,25.3819015 10.1362892,24.2666825 8.76100556,24.2666825 C7.38572187,24.2666825 6.27050291,25.3819015 6.27050291,26.7571852 C6.27050291,28.1329947 7.38537726,29.2476878 8.76100556,29.2476878 C10.1366339,29.2476878 11.2515082,28.1329947 11.2515082,26.7571852 Z" id="path-1"></path>
    </defs>
    <g id="Icon/Beneficios/48px/Camioneta/white" stroke="none" stroke-width="1" fill="none" fill-rule="evenodd">
        <mask id="mask-2" fill="white">
            <use xlink:href="#path-1"></use>
        </mask>
        <g id="Icon/letra-C/36px/Camioneta/blue" fill-rule="nonzero"></g>
        <rect id="🎨-color" fill="#FFFFFF" mask="url(#mask-2)" x="0" y="0" width="48" height="48"></rect>
    </g>
</svg>