<?xml version="1.0" encoding="UTF-8"?>
<svg width="48px" height="48px" viewBox="0 0 48 48" version="1.1" xmlns="http://www.w3.org/2000/svg" xmlns:xlink="http://www.w3.org/1999/xlink">
    <!-- Generator: Sketch 54.1 (76490) - https://sketchapp.com -->
    <title>Icon/Beneficios/48px/Moto/black@2x</title>
    <desc>Created with Sketch.</desc>
    <defs>
        <path d="M13.5561957,23.2765338 L11.3400666,26.969709 C12.7536191,28.1767309 13.6498722,29.971855 13.6498722,31.9761278 C13.6498722,35.611078 10.7037881,38.5566833 7.06931667,38.5566833 C3.43484523,38.5566833 0.488761111,35.611078 0.488761111,31.9761278 C0.488761111,28.3420559 3.43524476,25.3955722 7.06931667,25.3955722 C7.9196092,25.3955722 8.73225927,25.5568794 9.47833205,25.850559 L11.7167232,22.1202841 L9.72358608,20.8674444 C8.61827105,20.172669 8.2854629,18.7134074 8.98023827,17.6080924 C9.08734928,17.43769 9.21578444,17.2816647 9.36242677,17.1438033 L9.95700339,16.5848295 C11.359722,15.2661049 13.3878873,14.854722 15.1935726,15.52267 L16.2182499,15.9017123 L20.1760181,10.5529056 L24.9651056,10.5529056 C25.5649482,10.5529056 26.0512167,11.0391741 26.0512167,11.6390167 C26.0512167,12.2388593 25.5649482,12.7251278 24.9651056,12.7251278 L21.2709314,12.7251278 L18.339778,16.6864948 L21.9416386,18.0188729 C23.409215,18.5617497 25.022214,18.5639035 26.4912351,18.0249478 L33.178677,15.571455 C35.5802442,14.6903661 38.1932775,14.5619852 40.6696476,15.2034162 C43.2637328,15.8753379 45.0453287,16.54724 46.0685849,17.2702715 C47.4917463,18.2758755 47.709678,19.7215717 46.4374314,20.8347875 C46.0613143,21.1638899 45.7557313,21.1983284 44.9331406,21.2010096 C44.5689026,21.2021968 44.3444818,21.1953055 43.3325187,21.1576637 C42.9161186,21.142175 42.6462926,21.1331792 42.3683925,21.1262856 C40.9487203,21.0910691 39.9532349,21.1732896 39.8707329,21.2390956 C38.4308634,22.387577 36.408776,23.9713948 33.9306333,25.8952043 L33.9306333,30.2124111 C33.9306333,32.2236481 32.3002036,33.8540778 30.2889667,33.8540778 L23.6069937,33.8540778 C23.4969714,33.9384386 23.38878,34.0213806 23.282494,34.1028475 C22.8760444,34.4143863 22.5857562,34.6366905 22.4306924,34.7553465 L22.2617137,34.8846503 L22.0564358,34.9406352 C21.9539121,34.9685962 21.7935094,35.0050513 21.587717,35.0401296 C21.024038,35.1362112 20.4398104,35.1668525 19.8669687,35.0887378 C18.2674469,34.8706212 17.1706611,33.8236892 17.1706611,31.9761278 L17.1706611,25.5485029 L13.5561957,23.2765338 Z M10.1309321,28.9847295 L8.00049657,32.5350966 C7.69185716,33.0494437 7.02469484,33.2162026 6.51034781,32.9075632 C5.99600078,32.5989238 5.8292418,31.9317615 6.13788121,31.4174145 L8.26894696,27.8659971 C7.88830233,27.755059 7.48574712,27.6955722 7.06931667,27.6955722 C4.70549968,27.6955722 2.78876111,29.6123108 2.78876111,31.9761278 C2.78876111,34.3407394 4.70501648,36.2566833 7.06931667,36.2566833 C9.43361685,36.2566833 11.3498722,34.3407394 11.3498722,31.9761278 C11.3498722,30.8120748 10.8850566,29.7564398 10.1309321,28.9847295 Z M26.4360606,31.6818556 L30.2889667,31.6818556 C31.1005184,31.6818556 31.7584111,31.0239629 31.7584111,30.2124111 L31.7584111,27.5783135 C30.0456212,28.9031674 28.2469795,30.2895609 26.4360606,31.6818556 Z M45.6012167,31.9761278 C45.6012167,29.5770259 43.6558741,27.6316833 41.2567722,27.6316833 C38.8576704,27.6316833 36.9123278,29.5770259 36.9123278,31.9761278 C36.9123278,34.3760266 38.8571895,36.3205722 41.2567722,36.3205722 C43.6563549,36.3205722 45.6012167,34.3760266 45.6012167,31.9761278 Z M47.7734389,31.9761278 C47.7734389,35.5757908 44.8559611,38.4927944 41.2567722,38.4927944 C37.6575833,38.4927944 34.7401056,35.5757908 34.7401056,31.9761278 C34.7401056,28.3773407 37.6579852,25.4594611 41.2567722,25.4594611 C44.8555593,25.4594611 47.7734389,28.3773407 47.7734389,31.9761278 Z M40.1249721,17.3062424 C38.0759959,16.7755152 35.913943,16.881739 33.9268594,17.6107618 L27.2394175,20.0642547 C25.285477,20.781118 23.1400317,20.7782532 21.1880127,20.0561743 L14.4399466,17.5599715 C13.4071817,17.1779374 12.2471689,17.4132286 11.4448814,18.1674755 L10.8503048,18.7264493 C10.8384149,18.7376272 10.8280012,18.7502779 10.8193166,18.7640943 C10.7629834,18.8537145 10.7899679,18.972033 10.879588,19.0283661 L19.3428833,24.3481971 L19.3428833,31.9761278 C19.3428833,32.6441913 19.5638058,32.8550719 20.1604646,32.9364345 C20.4836646,32.9805072 20.8587286,32.960836 21.2227164,32.8987926 C21.2504184,32.8940707 21.2763933,32.8894098 21.3004951,32.8848968 C21.4630922,32.7603887 21.6853228,32.590143 21.9610396,32.3788094 C22.6377576,31.8601132 23.39184,31.281524 24.2039379,30.6576744 C26.52414,28.8753065 28.844307,27.0874203 31.0095612,25.411145 C31.097535,25.3430352 31.097535,25.3430352 31.1854996,25.2749199 C34.3064154,22.858129 36.82124,20.892872 38.5162131,19.5409125 C39.2046158,18.9918227 40.2931541,18.9019167 42.4222601,18.9547314 C42.7112756,18.9619007 42.9885708,18.9711455 43.4132626,18.9869427 C44.2466556,19.0179422 44.5272321,19.0273272 44.7927652,19.0287094 C44.0323396,18.5014837 42.4588829,17.9107736 40.1249721,17.3062424 Z" id="path-1"></path>
    </defs>
    <g id="Icon/Beneficios/48px/Moto/black" stroke="none" stroke-width="1" fill="none" fill-rule="evenodd">
        <mask id="mask-2" fill="white">
            <use xlink:href="#path-1"></use>
        </mask>
        <g id="Combined-Shape" fill-rule="nonzero"></g>
        <rect id="🎨-color" fill="#191919" mask="url(#mask-2)" x="0" y="0" width="48" height="48"></rect>
    </g>
</svg>