<?xml version="1.0" encoding="UTF-8"?>
<svg width="48px" height="48px" viewBox="0 0 48 48" version="1.1" xmlns="http://www.w3.org/2000/svg" xmlns:xlink="http://www.w3.org/1999/xlink">
    <!-- Generator: Sketch 54.1 (76490) - https://sketchapp.com -->
    <title>Icon-bicolor/Beneficios/48px/Moto/green-white@2x</title>
    <desc>Created with Sketch.</desc>
    <g id="Icon-bicolor/Beneficios/48px/Moto/green-white" stroke="none" stroke-width="1" fill="none" fill-rule="evenodd">
        <g id="Group-13" transform="translate(0.000000, 10.000000)" fill-rule="nonzero">
            <path d="M45.6012167,21.9761278 C45.6012167,19.5770259 43.6558741,17.6316833 41.2567722,17.6316833 C38.8576704,17.6316833 36.9123278,19.5770259 36.9123278,21.9761278 C36.9123278,24.3760266 38.8571895,26.3205722 41.2567722,26.3205722 C43.6563549,26.3205722 45.6012167,24.3760266 45.6012167,21.9761278 Z M47.7734389,21.9761278 C47.7734389,25.5757908 44.8559611,28.4927944 41.2567722,28.4927944 C37.6575833,28.4927944 34.7401056,25.5757908 34.7401056,21.9761278 C34.7401056,18.3773407 37.6579852,15.4594611 41.2567722,15.4594611 C44.8555593,15.4594611 47.7734389,18.3773407 47.7734389,21.9761278 Z" id="Stroke-1" fill="#42E8B4"></path>
            <path d="M11.3498722,21.9761278 C11.3498722,19.6123108 9.43313365,17.6955722 7.06931667,17.6955722 C4.70549968,17.6955722 2.78876111,19.6123108 2.78876111,21.9761278 C2.78876111,24.3407394 4.70501648,26.2566833 7.06931667,26.2566833 C9.43361685,26.2566833 11.3498722,24.3407394 11.3498722,21.9761278 Z M13.6498722,21.9761278 C13.6498722,25.611078 10.7037881,28.5566833 7.06931667,28.5566833 C3.43484523,28.5566833 0.488761111,25.611078 0.488761111,21.9761278 C0.488761111,18.3420559 3.43524476,15.3955722 7.06931667,15.3955722 C10.7033886,15.3955722 13.6498722,18.3420559 13.6498722,21.9761278 Z" id="Stroke-3" fill="#42E8B4"></path>
            <path d="M31.7584111,15.8730778 C31.7584111,15.2732352 32.2446796,14.7869667 32.8445222,14.7869667 C33.4443648,14.7869667 33.9306333,15.2732352 33.9306333,15.8730778 L33.9306333,20.2124111 C33.9306333,22.2236481 32.3002036,23.8540778 30.2889667,23.8540778 L23.5502431,23.8540778 C22.9504005,23.8540778 22.464132,23.3678093 22.464132,22.7679667 C22.464132,22.1681241 22.9504005,21.6818556 23.5502431,21.6818556 L30.2889667,21.6818556 C31.1005184,21.6818556 31.7584111,21.0239629 31.7584111,20.2124111 L31.7584111,15.8730778 Z" id="Stroke-5" fill="#FFFFFF"></path>
            <path d="M17.5773611,7.71687881 C17.2205692,8.19907246 16.5404371,8.3007307 16.0582434,7.94393884 C15.5760498,7.58714698 15.4743915,6.90701484 15.8311834,6.42482119 L20.1760181,0.552905556 L24.9651056,0.552905556 C25.5649482,0.552905556 26.0512167,1.03917406 26.0512167,1.63901667 C26.0512167,2.23885927 25.5649482,2.72512778 24.9651056,2.72512778 L21.2709314,2.72512778 L17.5773611,7.71687881 Z" id="Stroke-9" fill="#FFFFFF"></path>
            <path d="M40.1249721,7.30624244 C38.0759959,6.77551523 35.913943,6.881739 33.9268594,7.61076184 L27.2394175,10.0642547 C25.285477,10.781118 23.1400317,10.7782532 21.1880127,10.0561743 L14.4399466,7.55997145 C13.4071817,7.17793741 12.2471689,7.41322861 11.4448814,8.16747553 L10.8503048,8.72644925 C10.8384149,8.73762721 10.8280012,8.7502779 10.8193166,8.76409431 C10.7629834,8.85371445 10.7899679,8.97203296 10.879588,9.0283661 L19.3428833,14.3481971 L19.3428833,21.9761278 C19.3428833,22.6441913 19.5638058,22.8550719 20.1604646,22.9364345 C20.4836646,22.9805072 20.8587286,22.960836 21.2227164,22.8987926 C21.2504184,22.8940707 21.2763933,22.8894098 21.3004951,22.8848968 C21.4630922,22.7603887 21.6853228,22.590143 21.9610396,22.3788094 C22.6377576,21.8601132 23.39184,21.281524 24.2039379,20.6576744 C26.52414,18.8753065 28.844307,17.0874203 31.0095612,15.411145 C31.097535,15.3430352 31.097535,15.3430352 31.1854996,15.2749199 C34.3064154,12.858129 36.82124,10.892872 38.5162131,9.54091253 C39.2046158,8.99182271 40.2931541,8.90191667 42.4222601,8.95473137 C42.7112756,8.9619007 42.9885708,8.9711455 43.4132626,8.98694266 C44.2466556,9.0179422 44.5272321,9.02732717 44.7927652,9.02870939 C44.0323396,8.50148372 42.4588829,7.91077358 40.1249721,7.30624244 Z M17.1706611,15.5485029 L9.72358608,10.8674444 C8.61827105,10.172669 8.2854629,8.71340742 8.98023827,7.60809239 C9.08734928,7.43768997 9.21578444,7.28166474 9.36242677,7.14380327 L9.95700339,6.58482955 C11.359722,5.26610494 13.3878873,4.85472202 15.1935726,5.52266998 L21.9416386,8.01887287 C23.409215,8.56174965 25.022214,8.56390348 26.4912351,8.02494785 L33.178677,5.57145497 C35.5802442,4.69036607 38.1932775,4.56198518 40.6696476,5.20341624 C43.2637328,5.87533795 45.0453287,6.54723997 46.0685849,7.2702715 C47.4917463,8.27587551 47.709678,9.72157171 46.4374314,10.8347875 C46.0613143,11.1638899 45.7557313,11.1983284 44.9331406,11.2010096 C44.5689026,11.2021968 44.3444818,11.1953055 43.3325187,11.1576637 C42.9161186,11.142175 42.6462926,11.1331792 42.3683925,11.1262856 C40.9487203,11.0910691 39.9532349,11.1732896 39.8707329,11.2390956 C38.1656218,12.5991414 35.6440324,14.5696848 32.5154816,16.9923882 C32.4274006,17.0605936 32.4274006,17.0605936 32.3393123,17.1287921 C30.1716646,18.8069203 27.8494368,20.5963945 25.5272441,22.3802916 C24.7145038,23.0046347 23.9598079,23.5836947 23.282494,24.1028475 C22.8760444,24.4143863 22.5857562,24.6366905 22.4306924,24.7553465 L22.2617137,24.8846503 L22.0564358,24.9406352 C21.9539121,24.9685962 21.7935094,25.0050513 21.587717,25.0401296 C21.024038,25.1362112 20.4398104,25.1668525 19.8669687,25.0887378 C18.2674469,24.8706212 17.1706611,23.8236892 17.1706611,21.9761278 L17.1706611,15.5485029 Z" id="Stroke-7" fill="#FFFFFF"></path>
            <path d="M12.2075812,11.30227 C12.5162206,10.787923 13.1833829,10.621164 13.69773,10.9298034 C14.212077,11.2384428 14.378836,11.9056052 14.0701966,12.4199522 L8.00049657,22.5350966 C7.69185716,23.0494437 7.02469484,23.2162026 6.51034781,22.9075632 C5.99600078,22.5989238 5.8292418,21.9317615 6.13788121,21.4174145 L12.2075812,11.30227 Z" id="Stroke-11" fill="#FFFFFF"></path>
        </g>
    </g>
</svg>