<?xml version="1.0" encoding="UTF-8"?>
<svg width="36px" height="36px" viewBox="0 0 48 48" version="1.1" xmlns="http://www.w3.org/2000/svg" xmlns:xlink="http://www.w3.org/1999/xlink">
    <!-- Generator: Sketch 54.1 (76490) - https://sketchapp.com -->
    <title>Icon-bicolor/Beneficios/48px/Moto/green-blue@2x</title>
    <desc>Created with Sketch.</desc>
    <g id="Icon-bicolor/Beneficios/48px/Moto/green-blue" stroke="none" stroke-width="1" fill="none" fill-rule="evenodd">
        <g id="Group-13" transform="translate(1.000000, 11.000000)" fill-rule="nonzero">
            <path d="M44.6012167,20.9761278 C44.6012167,18.5770259 42.6558741,16.6316833 40.2567722,16.6316833 C37.8576704,16.6316833 35.9123278,18.5770259 35.9123278,20.9761278 C35.9123278,23.3760266 37.8571895,25.3205722 40.2567722,25.3205722 C42.6563549,25.3205722 44.6012167,23.3760266 44.6012167,20.9761278 Z M46.7734389,20.9761278 C46.7734389,24.5757908 43.8559611,27.4927944 40.2567722,27.4927944 C36.6575833,27.4927944 33.7401056,24.5757908 33.7401056,20.9761278 C33.7401056,17.3773407 36.6579852,14.4594611 40.2567722,14.4594611 C43.8555593,14.4594611 46.7734389,17.3773407 46.7734389,20.9761278 Z" id="Stroke-1" fill="#002EFF"></path>
            <path d="M10.3498722,20.9761278 C10.3498722,18.6123108 8.43313365,16.6955722 6.06931667,16.6955722 C3.70549968,16.6955722 1.78876111,18.6123108 1.78876111,20.9761278 C1.78876111,23.3407394 3.70501648,25.2566833 6.06931667,25.2566833 C8.43361685,25.2566833 10.3498722,23.3407394 10.3498722,20.9761278 Z M12.6498722,20.9761278 C12.6498722,24.611078 9.7037881,27.5566833 6.06931667,27.5566833 C2.43484523,27.5566833 -0.511238889,24.611078 -0.511238889,20.9761278 C-0.511238889,17.3420559 2.43524476,14.3955722 6.06931667,14.3955722 C9.70338857,14.3955722 12.6498722,17.3420559 12.6498722,20.9761278 Z" id="Stroke-3" fill="#42E8B4"></path>
            <path d="M30.7584111,14.8730778 C30.7584111,14.2732352 31.2446796,13.7869667 31.8445222,13.7869667 C32.4443648,13.7869667 32.9306333,14.2732352 32.9306333,14.8730778 L32.9306333,19.2124111 C32.9306333,21.2236481 31.3002036,22.8540778 29.2889667,22.8540778 L22.5502431,22.8540778 C21.9504005,22.8540778 21.464132,22.3678093 21.464132,21.7679667 C21.464132,21.1681241 21.9504005,20.6818556 22.5502431,20.6818556 L29.2889667,20.6818556 C30.1005184,20.6818556 30.7584111,20.0239629 30.7584111,19.2124111 L30.7584111,14.8730778 Z" id="Stroke-5" fill="#002EFF"></path>
            <path d="M16.5773611,6.71687881 C16.2205692,7.19907246 15.5404371,7.3007307 15.0582434,6.94393884 C14.5760498,6.58714698 14.4743915,5.90701484 14.8311834,5.42482119 L19.1760181,-0.447094444 L23.9651056,-0.447094444 C24.5649482,-0.447094444 25.0512167,0.0391740634 25.0512167,0.639016667 C25.0512167,1.23885927 24.5649482,1.72512778 23.9651056,1.72512778 L20.2709314,1.72512778 L16.5773611,6.71687881 Z" id="Stroke-9" fill="#002EFF"></path>
            <path d="M39.1249721,6.30624244 C37.0759959,5.77551523 34.913943,5.881739 32.9268594,6.61076184 L26.2394175,9.06425472 C24.285477,9.78111796 22.1400317,9.77825317 20.1880127,9.05617434 L13.4399466,6.55997145 C12.4071817,6.17793741 11.2471689,6.41322861 10.4448814,7.16747553 L9.85030481,7.72644925 C9.8384149,7.73762721 9.82800123,7.7502779 9.81931656,7.76409431 C9.76298342,7.85371445 9.78996786,7.97203296 9.879588,8.0283661 L18.3428833,13.3481971 L18.3428833,20.9761278 C18.3428833,21.6441913 18.5638058,21.8550719 19.1604646,21.9364345 C19.4836646,21.9805072 19.8587286,21.960836 20.2227164,21.8987926 C20.2504184,21.8940707 20.2763933,21.8894098 20.3004951,21.8848968 C20.4630922,21.7603887 20.6853228,21.590143 20.9610396,21.3788094 C21.6377576,20.8601132 22.39184,20.281524 23.2039379,19.6576744 C25.52414,17.8753065 27.844307,16.0874203 30.0095612,14.411145 C30.097535,14.3430352 30.097535,14.3430352 30.1854996,14.2749199 C33.3064154,11.858129 35.82124,9.89287196 37.5162131,8.54091253 C38.2046158,7.99182271 39.2931541,7.90191667 41.4222601,7.95473137 C41.7112756,7.9619007 41.9885708,7.9711455 42.4132626,7.98694266 C43.2466556,8.0179422 43.5272321,8.02732717 43.7927652,8.02870939 C43.0323396,7.50148372 41.4588829,6.91077358 39.1249721,6.30624244 Z M16.1706611,14.5485029 L8.72358608,9.86744438 C7.61827105,9.17266901 7.2854629,7.71340742 7.98023827,6.60809239 C8.08734928,6.43768997 8.21578444,6.28166474 8.36242677,6.14380327 L8.95700339,5.58482955 C10.359722,4.26610494 12.3878873,3.85472202 14.1935726,4.52266998 L20.9416386,7.01887287 C22.409215,7.56174965 24.022214,7.56390348 25.4912351,7.02494785 L32.178677,4.57145497 C34.5802442,3.69036607 37.1932775,3.56198518 39.6696476,4.20341624 C42.2637328,4.87533795 44.0453287,5.54723997 45.0685849,6.2702715 C46.4917463,7.27587551 46.709678,8.72157171 45.4374314,9.83478747 C45.0613143,10.1638899 44.7557313,10.1983284 43.9331406,10.2010096 C43.5689026,10.2021968 43.3444818,10.1953055 42.3325187,10.1576637 C41.9161186,10.142175 41.6462926,10.1331792 41.3683925,10.1262856 C39.9487203,10.0910691 38.9532349,10.1732896 38.8707329,10.2390956 C37.1656218,11.5991414 34.6440324,13.5696848 31.5154816,15.9923882 C31.4274006,16.0605936 31.4274006,16.0605936 31.3393123,16.1287921 C29.1716646,17.8069203 26.8494368,19.5963945 24.5272441,21.3802916 C23.7145038,22.0046347 22.9598079,22.5836947 22.282494,23.1028475 C21.8760444,23.4143863 21.5857562,23.6366905 21.4306924,23.7553465 L21.2617137,23.8846503 L21.0564358,23.9406352 C20.9539121,23.9685962 20.7935094,24.0050513 20.587717,24.0401296 C20.024038,24.1362112 19.4398104,24.1668525 18.8669687,24.0887378 C17.2674469,23.8706212 16.1706611,22.8236892 16.1706611,20.9761278 L16.1706611,14.5485029 Z" id="Stroke-7" fill="#002EFF"></path>
            <path d="M11.2075812,10.30227 C11.5162206,9.787923 12.1833829,9.62116403 12.69773,9.92980343 C13.212077,10.2384428 13.378836,10.9056052 13.0701966,11.4199522 L7.00049657,21.5350966 C6.69185716,22.0494437 6.02469484,22.2162026 5.51034781,21.9075632 C4.99600078,21.5989238 4.8292418,20.9317615 5.13788121,20.4174145 L11.2075812,10.30227 Z" id="Stroke-11" fill="#002EFF"></path>
        </g>
    </g>
</svg>
