<?xml version="1.0" encoding="UTF-8"?>
<svg width="56px" height="48px" viewBox="0 0 56 48" version="1.1" xmlns="http://www.w3.org/2000/svg" xmlns:xlink="http://www.w3.org/1999/xlink">
    <!-- Generator: Sketch 54.1 (76490) - https://sketchapp.com -->
    <title>Icon/logo-entel/white@2x</title>
    <desc>Created with Sketch.</desc>
    <defs>
        <path d="M16.7405813,25.1660456 C16.7405813,25.1660456 16.0848619,25.1038514 16.0848619,25.6276933 C16.0848619,28.5867267 18.310991,30.6955589 21.8083739,30.6955589 C24.4044615,30.6955589 25.5130611,30.0761816 27.0809194,28.9130859 C27.4476885,28.6405856 27.8386963,28.3866794 28.1353009,28.707268 C28.3419673,28.9265507 31.096244,31.4457364 31.096244,31.4457364 C31.441326,31.7663251 31.3469228,32.1491079 30.9769643,32.4562319 C30.6095573,32.7646382 26.4908995,35.9339777 21.757983,35.9339777 C15.5675579,35.9339777 9.62398439,33.2653977 9.62398439,23.214943 C9.62398439,15.1130263 14.2567569,10.5388672 21.0537863,10.5388672 C28.3547245,10.5388672 32.4816746,15.5900622 32.4816746,22.4019302 L32.4816746,24.1254148 C32.4816746,24.8281452 31.9063254,25.1660456 31.4317581,25.1660456 L16.7405813,25.1660456 Z M25.4326908,18.2573599 C24.728494,16.782652 23.2709854,15.6830329 21.0537863,15.6830329 C18.8391386,15.6830329 17.3797164,16.782652 16.6748818,18.2573599 C16.2723925,19.1633435 16.1186684,19.8314502 16.0682775,20.9252988 L26.0386572,20.9252988 C25.9876284,19.8314502 25.83518,19.1633435 25.4326908,18.2573599 L25.4326908,18.2573599 Z" id="path-1"></path>
    </defs>
    <g id="Icon/logo-entel/white" stroke="none" stroke-width="1" fill="none" fill-rule="evenodd">
        <g id="Group" transform="translate(0.000000, 1.000000)">
            <path d="M7.86323116,-0.1194522 L48.6703831,4.08201488 C50.2915933,4.2489332 51.5901431,5.49968266 51.8177194,7.11349595 L55.8852103,35.9573228 C56.1586088,37.8960758 54.8085723,39.689379 52.8698193,39.9627775 C52.8543737,39.9649556 52.8389139,39.9670318 52.8234408,39.9690058 L3.82823625,46.2198012 C1.88604345,46.4675856 0.11071611,45.0939962 -0.137068338,43.1518034 C-0.171708891,42.8802826 -0.174787048,42.6056635 -0.146241291,42.3334344 L3.9743205,3.03734516 C4.17823739,1.09267431 5.91818039,-0.319712849 7.86323116,-0.1194522 Z" id="Rectangle-3" fill="#FFFFFF" fill-rule="nonzero" transform="translate(27.875828, 23.017666) scale(1, -1) translate(-27.875828, -23.017666) "></path>
            <path d="M37.5912521,12.442421 C37.1819505,12.1746074 36.5417948,12.219348 36.1722957,12.5337927 L33.819309,14.5540527 C33.4491465,14.871018 33.480325,15.3543428 33.8829929,15.6334992 C33.8829929,15.6334992 37.5176176,18.1270016 37.5176176,23.4939866 C37.5176176,28.5818154 33.6859709,31.513902 33.6859709,31.513902 C33.2998874,31.8088121 33.283303,32.3091509 33.6534656,32.6267464 L35.9885411,34.6142386 C36.3580403,34.931834 36.9988593,34.9702732 37.4121412,34.7131721 C37.4121412,34.7131721 42.9008955,31.2164713 42.9008955,23.512261 C42.9008955,15.8616134 37.5912521,12.442421 37.5912521,12.442421" id="Fill-1" fill="#FF3D00"></path>
            <mask id="mask-2" fill="white">
                <use xlink:href="#path-1"></use>
            </mask>
            <use id="Fill-4" fill="#002EFF" xlink:href="#path-1"></use>
        </g>
    </g>
</svg>